<mxfile host="Electron" agent="Mozilla/5.0 (Windows NT 10.0; Win64; x64) AppleWebKit/537.36 (KHTML, like Gecko) draw.io/26.0.16 Chrome/132.0.6834.196 Electron/34.2.0 Safari/537.36" version="26.0.16">
  <diagram name="Page-1" id="sYgfCSPP8BGgELV3zHY9">
    <mxGraphModel dx="2514" dy="1125" grid="1" gridSize="10" guides="1" tooltips="1" connect="1" arrows="1" fold="1" page="1" pageScale="1" pageWidth="827" pageHeight="1169" math="0" shadow="0">
      <root>
        <mxCell id="0" />
        <mxCell id="1" parent="0" />
        <mxCell id="QoFwCXkcrfL1e2SWgKoZ-1" value="" style="shape=image;verticalLabelPosition=bottom;labelBackgroundColor=default;verticalAlign=top;aspect=fixed;imageAspect=0;image=data:image/png,iVBORw0KGgoAAAANSUhEUgAAAcYAAAMvCAIAAADH1OcdAAAgAElEQVR4Aey9XahtSXImtqb9qscRpl8KwYCRJQbuw0x33d0D0n0aDeOXBr22XOqq3jAPBjF+MRJIl0ZQdFV13zOW0IMeRBnmgqCt6R9JZ+CiCxshBsEd2mr13x2fMS4a2zDHsgmPuv56ZC8rV6yIjPxZv3vlysy9IzicHSsyMiLyy8zv5Fr7nH2aVkURUAQUAUVgIwSajeJoGEVAEVAEFIFWKVUXgSKgCCgCmyHQ/EcVRUARUAQUgY0QaEBFEVAEFAFFYCMElFI3AlLDKAKKgCIAoJSqq0ARUAQUgc0QUErdDEoNpAgoAoqAUqquAUVAEVAENkNAKXUzKDWQIqAIKAJKqboGFAFFQBHYDAGl1M2g1ECKgCKgCCil6hpQBBQBRWAzBJRSN4NSAykCioAioJSqa0ARUAQUgc0QUErdDEoNpAgoAoqAUqquAUVAEVAENkNAKXUzKDWQIqAIKAJKqboGFAFFQBHYDAGl1M2g1ECKgCKgCCil6hpQBBQBRWAzBJRSN4NSAykCioAioJSqa0ARUAQUgc0QUErdDEoNpAgoAoqAUqquAUVAEVAENkNAKXUzKDWQIqAIKAJKqboGFAFFQBHYDIGmVVEEFAFFQBHYCAHnlPruu+8CQNu2oKIIKAKKgCKwHAGl1OWYaY/ECLyrcrkIJF47+cMrpeafA63AQwDvljyjXl4AAtcws81JiHfjf7k/KXVkpSNwAfShQwgRuApKbUlOp1NIqf+fymwEkKVmu6vjIALXsPFCurkGyzXMbPM3JFFK/X9VZiOAlDrbXR0HEQg33nuz5RqIqd4xhjNb71iGKm9+TBKlVOJbfZ1GACl12k89phAIN9577733T9p/wl8jBDu00NVeAgLhzJZQ1bY1NB+SKKVO7fSJdqXUCYBmN4cbDym1+XeN+fpnzXvvvdc0ze+RoN40xr7t9tBo2yIQzuy28UuI1rxPEqXU/6QyGwGk1Nnu6jiIQLjxopTKTNqQRCj1q6+99tUCNtq33vzUp9781pxC5nvOiTbkg1n2ySVqCGdWNF6I2vxHkiil4lOBtn3Qtg/u782vB7B+f9/c3zfPnj6iJwerXr/5xhvfXNWxvE5IqVgXo6SIrZiocOOZY+k/M+dT/Jp14//V15rmU2+++dprb775qab51Guvfepvz7GCX7E9QnPzieZbJvKymBycFY9JhuydGybEnyCWoke6yA5YKTrL714BKS/DmU2ZLU9s+3upI5QqeUHq9/fN3fOHK/aM6fLNN5rm4Ze//MYbX/7yw6Z5+MYbD/uzRoxjv//lhw+//P0f//jHUqGzSdPEuqwsa303SakSJamfhdjXj80nXn3y1vELbz159RPNP/rl46ufQAje+NcfB2V/98nh4ZdffvzjH/fKy7c+Y/FC7R+99e+CboFBxKF0pvfx6/8pcCUDdyHD0tdw441wqNfkbqOOUZB7DIm89hqfFc3lp/jK7TX7an5MpDAAYGUoybCDGYzlUfETYbiLk066oS4tQ/VM2XHZyykLLRxDurHxwpTm/yaJUurHJMgLeDKVOh5UyWvp6/ffebVpXn3n+9jv+++8yvpQJPZh5eOPP/7GGzbIUMf0dlxJnEeiJPWzEPuoY8bPvP2Dj0yeH3/3ycNX30Gd83qK5+Ndes7hJfuzgnlf/UTzha/9OPSfWVW0IxvDjbfm7anwlPqpN79K999ffa0xp9eOocRJjq4/9ea3Orp587X+55A43QoG6HwiMSVVod5bbKqe3o0dz88mkcnCfYVv98jgq68JQjVFhDHN+PjQ3PlzcQBgxvzVvhf2dbITW9u88UGL8feq5FCpRz1D44VZmv+TJEqpHwmRvCD1+/vm5YsnwnGe+o3XDZu+8/rr7yCvfu+j7xlK/d5HH6Hyzuv9an79G72l8+iNr77+eu9ssn3j9ab36pubLlAXsIsz1Pr666+aHq9/43umCKOYcP1FYwo09cwTXEzSV6Ik9XWIffy1L3ziE//gK1/6whtf+sqrn2g+86WXH3/nKw9ffef7H36Eylde60+thuz6pu/z4fQzX3r50Ue95/c/7Mv8+DsmVNM0n/jEP/jydz7+6KOPfvAlOs1+5u3vfyi6v/YFzIU9Kb717yN8+AOZkaNxfInPkD5Eqea9KfftKZzu3/u930Nl7FlqT0Adr1hCcZ9veqTD9/QBm/UsMBSzt3deXi5uYjsTpfkZ8NpXewcsJRbBMhD5cEzmTVYsPzbmMci3iIiD7MbRtGMRJoexzCVVYCZFxdboauHMuu2XcNX8B5JxSkVGGHmiOrQ9JuzfeB1ZzLhJSiV2M2z56jvfk02CdpHvDAN63Icc21Gjjc+l2NauG5L79zpmxlw9tX4kq+PeQ4pHqYkQ+/hrX/jC136MNTCvITOi/eOvfaH5zNs/+M6XJdtKDmVm/PDDP369ef2PO3rFUD/4zpc//Xd+GS3/4xc+/8dE1szaHEf27Yv52heaX/6jkLW91iH0pD3ceNG3p5hJWYlQKm9S4h3DGYPnwY52mG7o3EbnQY5FylBMshs/Lxo3eXbjKs6VDhV29XJHSk7HTkrR23ue7V9kL5lR6tgRGdTzn8+pYFnVFhho4cwGLtUbmv+DJEqp9BtW5lWes6T++PFj6bZe/+7br7769nc//PBDVlhni1TwZGLOkl0vdJZGdsaavvt2dxLtPF59+7vc6itf787Hr3994UiQUmUniZLUt0Lso7/88quffvt7H3zIyocf9vr3//KdsIlbv/eBKdP06s+1iNrr3/zRN3Hsf9Q5SH+Z4sMPP/zggz96vXn9jzA1Bzm8FSnGbZX4DOnhxlvz9pS3N5ks+PTFtMLnRLbQjX//5hX3nR/To2OO4Cl8aSK7lMoR+qTBUZn7stJ5dmQaO8DinT86y+8Y/zxK1VNqP0sAzf9GEqXUD1yRvCD1Z08fuY6rrr7z1quvvvWdDz74gBXW2RIqnOo7b73aYH+KwM4YZ6iV3VgxMb/+ecMzn/86x59ScFV5XhIlqW+C2IffNrz53fc/YOWDD3r9e99+O2zi1u++b8qUvWTZ77//h0isfygie854+b1vv/0P/7N/+Pa3P5TR2PPDb78TtspEQ3qUUr23oYYueWX7iss7pjWgFcMqTKbSX+oybmjnmHS+c2LK22n2ZOpEzuxj2htwTtiH6q+FA7Kh40c/JWSFMn6QnWLYsGThuIMK8ylMnVXDmR0MWm1D80OSOZT6wQcfMC/cPX8o9aHtscDOjMZKlFKR5qQP5hCWnl2FRdK038puqHznrc93xE7EPHcEUUpNipgkLyRQpjZJqZ/+O7/8hx2HcitSKlLnG//qYx7hh99+53Nf+ba5fP97b3361be//eGH334Hu3Mu09hx7hv/6mNp/N6bD5vDW8jvYRdu5VwjSrjx3nvvvbb9Jf4a4tM5N/52qxLd4KMA86wRfyMgoJvJG/8wpuGjTpyYnR+ms3b0M9+7J5dUlUnKTUS70iafc/Yx+yfDHAIfiHIUEZ/HyI2UQuSVGewQPU3yKTaFFu4Sziw3XYzS/K8kUUqlvwNwXplJnz19JHXHaenFX75Fd+Wf/9pfmuPqX2IE1IXla93p8dXPf976UC5sMk8CsFX0ev/99wdb2a1X2LHhKijD2CuupKiHREnqUeeZxg/+4m26bX/963/x5NVPv/2dH5muxv7pt5FS0fK17m2rh29+n1vR3l+KG/Pv/DXe+Jt9hv4Gt6774b9+g9KZ97Le+osPsE5sbZrGOFANnDHaOjnAcOMhpd7dNXd3zRe/aP966m95iP+SCvXKdqZgvwWVj/cKnhAsiJzYNZzZxAkzhG/+F5Iopf5oQJgXXr54IvUB96swI6UODVWiJPUh/2u2hxsvSql4wEJKZT3lHuLjbHi0W5t2nByHo1IpfLa0rvQY1VrK0cKZLae2rSqZ+LzUkY19Op3wVyx/9KMfSX2ky2U3jVOqh5IiNrIYwo333nvvffGL5nyKX2tu/LfaMRrnDATCmT0jWKFd7V9P4aNl+b+n3n333b8eldPp9PjxY3SR+mini21ESh0fnkRJ6uO9rq013HgjHOo1FbrPtKwOgXBmLw+YCUqlDwDQ12kEkFKn/dRjCoFr2HiXRyVzRnQNM9sgEfB375Q6tfi13SKglGqxOE+7ho03h4Auz+caZtaeUpERPEr9f1RmI4AAznZXx0EErmHjXR5dzhnRNczsBKXOgUl9EAH+maSAnInANWy8MyGqtPs1zGycUpEd9LsikAuBSilDyx5HINdy2jPvIKWOQ6OtisA1IHDz5x8U8rUJ2oWM5ebPP9hkOGUGUUotc160qiIQuPnzD07//q/P+UIWOyfC6d//9VYcdGHDKWKJBEVUQ6m/+Zu/+f777wf1b2NIGnybErNGSYpP0uBnwnZhHFTacEqe+jkrJ1r/BpR6+FZz+FbzM79jQ82pZshn6AF2tPqhIEvtc4L//m8ffkhC/5rTvJLth7//24eleTf0b//L/2J+NHy0NN9/Dj7zo3mec4K/8sor/Eegr7zyihdh5uWKIJKDuICZCp5MU5xSm3blXpPDWXdw3nY4k1OPUM+cX+mWkZTs3PA2a9t2iNdk0awfvtX8efvNTSiVnyJzcFYm0WfPFcqc4Pf3ze//9gG/mEZ/+EPDpPj1xX/+91ek3qRL+z//N+2LvzfCqgwsz/KiKZ6Dz+qBTAZvmuZzv/4bT/70z/Drc7/+G01j1+3MvOuCSA5qmgZp6LOf/Ww7IJ/97GfRh5235SAcrKTUkN9HAJHDKZ9Sm6ZBmEdGNNSUkZTs0uTNNp9S8UcBV/8zv3PWWZW3fRSmyY0X7cUxpRJ6zgmOlNp2Ik+paPn93z7kolTk03/9338yHBdbmEBR4blmh3FlDj5hhPbv/l3v69/EqHA8OFLh0/d++OxvWvx6+t4Pl7Lq6iCSg5qm+SxJOyDU/tkRSm3aZvwrJLvwWWofgUhHltORrMkRzog3nJCORyxYlfcTYsQ/2sRBsLbJqW/b9v7eclQ4otCSnZRsubzNPEr9uZ96yV9yAD/3Uy+RTP+8/ea/aI/4NXRWHWI0aecCZBbWR9CXQdhffhqudGBykZ4jwdlNUmobSFJKxU+uwv9Sw//rGwubw6f86Q08lnGo2Y2VSXyiFRo+/Z3fMV+/8iv4tZRSX3nllc/9+m8gn7Zt+7cfIShZdeYTAC9I2zrUPB7E4yBkhKSn1Kbtz8KSWENK5akJmUs0+awqh9MuFGbDTYJgkePrCk+pz54+4hGxwoz0cz/1ko0AUAIpTVPqr73W/uxPfgW/fu01O0k/91Mv8Vj6M7/T/Iv2yLocIetDpDZk546sjKA/FMSz8yXHZGUkOPtkpFQA8Djr7vlDAPi//qeb9sXfGz+fYv049uiPGR7giDIHn7DCf9M04VeYZSR40zRP/vTPnv1NizzIlPrsb9onf/pnM2//vSB82p0TRNLHVqdUyZWhvpRSQzzZEh5U5XAMpp14pExm/zUXpbat5RwgKZmUpin1b/8nDlPqz/7kV3BQP/dTL9H4yZ/4RaZUGm/8lRmNz4nSwsZ4Z4CRjecxBUaQwYdisn08OLrlpVRmVTyl4scqNk3zv//Jr/AoRhR5vy+RQX2kIzbNwSda4WRkGJ1ZZkNv289hQ059ThDJQXwvf+Ypdei2HzlrE0rFFIwAK3I4bSf8vBIv8VaAdalMUirOkezi6QwgH7rH1xXW9vM///MQk2JJaRalej8Tfu21Fin1kz/xi7/2Wjt+PmU0wp0sLew2pIyjL0OF+lBMto8HR7czKfWnY8IFzFTwJMis+vLFkzkdz+TTcdbzClhR4Qj4zIZ4tDzzlCrPp6hPHnUlB4WnVOYjVla/PdU07SaUOkSmOE1yOJI9+SeWNLaujFMqI+B2cq7WUWr0lAoAxZLSLEr1DqryiApLJCQ7tMyJMbLxsHvS4ABwJqUCgEeqc0Ytfbw7azyoSochfQiZyTsDDjgJPnquq3AkuHwM+uxv/GepM2/8vSBMrHPe5pIcxIyAp1R5KGM9I6WOkylOkBwOsyezISp82boyRKlhL0ZDhkIjB8F6RqYeALg7Ooff5UG1HFKaS6nyZwLf8oeDHLdE9/Z4F24dR9+79+dE3H1cmQy+CaVKVh2vZ6hVngEfP3485DZiZ2RYGXHmpjn4oPOKCseDj7xZP/7OEhePm5Pf5kJKZT4dDyI5SJ5SkSDC73Mo1Xu7vz+cilMqO2DT5F9PzSFTREMOZytKbTth+vPCSsLln0mLbvyHTqneQbUcUppLqfhumvyx8LM/+RX5bpVcwSM672SpjPhz0/jGQzcZk3WOMKLMCX7+KRUL+Omf/umRSiabJGdF3wwdjyBhkfp4rzn4cISlFU4Gj/5KadM0v/qrvzrzoMqs6v1y62QQyUHMCBueUvnJKd/4M41KhTmIQUZlPpmivxyOx33hZesK1uP9EhW7pKBUnLXxKebDKVNTdlKaS6lc+id/4he5en63Cids8jvvYU+Z7DjncZ4Xky83Cb7VKXVOMZM+zFn4vv+kv+cg7/dnojTJel6KRRXOCS7/8Klpmlc6+fmf//lFrLoiiOQgj1KZg6Qy55QquXI1pS4lU5wgORxZdvRWvXVliFLlORR7SIuncxCsZ87Uo2f0e5mktIxS8f0o+RBg0c8E3sChEoVMGifRD2OyRcaJ6pPBi6JU+d76ioOqh8AclObg44VlVp2scEVwPL+88sorS1nVKxLZeSSI5KCQUttAzqFUZEn5ncnXO6WGvx3ljWvoUg4Ha5eny2A0joHZMAzCoTwCDVmbg0An41PfNI+bZuzpFlJqaaQ0i1LlTwPEYsVBlbcun5JCCwaPfh9HPwwVWqJh0TgeHH22uvEfKWNRE3PWzPf9R4IzVkM+c/AJ+86scF3wfVhV0kdSSmX2jCojlBo+zw0ngi1yOC2JFwHNoZHZMBqEgk28chDoZHzqxym1WFKaplTvV6YQi6UHVd60qGCQqBGbwu8j6EfjRI1hWLSMBOcupVEqnlXnv+/PA4kqDFe0dQ4+0Y78v7WjrWhcHXwHVpX0UQ6ldgPHP2vt/wq+FWLYsGsMMZfDET1mqcyGmwTB2sanfoRSSyalaUoNfxogHIsOqrxj+YiKQYbs2Cq/j6A/FGTILsOiPhKcnZFS+UNSQiXL3/jjf67mIs9RGK4wyBx8wl5omazwnOAeqw7VMGmXTwCks6SPRJTK7++HCp9YvVOqrNA7Tso3c+Snq2AXbzhh3xFLlFJH/KNNHATrWT31JZPSNKXK+cuor0Z/Ts1zguNf8X/xn//9oa+8H+43Z5iTPsiqodscfMJeMy3nB2dCnJkx6hYNsjkHMUsuUkYoNToWNI5T6qIC2Nl7x5/tixQezvjUj5xSR0a9Z1O0fqVUMwVRaPacm8JzJcUnafAzgZWUuog12HlbDrqw4ZQ89XOgjtZfDaXOGaH6KALbIoCEWML3TcZVwkCwhk2GU2YQpdQy50WrUgQUgSoRGKTUVmV3BHgF7Z5ZEyoC5SIAJOWWKCobpNToG3ZqTIoArRwQE6SqInDtCABJFUAMUqr8y4cqRnIBRdLKUUq9gMnUIWyGQF37YoxSlVU3WxTzAtW1dOaNSb0UgXMRAJJzA+3Sf4JSlVV3mYU+CZDsmVRzKQKFIwAkhdeJ5U1TqrLqbhNJK0dv/HeDXBNVgEBd+2IWpc5hVf5IG3wDByeK38ypYN4KKLGupVMAYFrCVSBQ176YS6njrMo0KomVZ5uNxnJ3czjc3HFbr9zdHJh+eyXi5fcKot0ebZTjbeg+bbGFhP1tG2dZVqQTINIVSKbrVA9F4GoQAJIqRryAUodYFRlTfvc8HUodRyVOuMN9hH/HV5YHb49WH+4faxExY80Bj8edhJUDsoI/Whq/QiARnVVVBK4dASCpAohllOpxpRyhx5t8yUrvjLTSfb+hM6WlFkk6Pe/gibA/09lznjHIq9up0280QseP3rGYa9i8yONRnNBvj0ipnE78v3IJrOqKwJUjACRV4LCYUodYVVIn66jwpUEEGUQeKW+PDd8EC35pWyIdp1dPv/0hlP1NQMvMEegxmHDrIgQpOBcROufbpkgeKY+ahyAotWkjn4MZGZSakiHAz3ZQSZZHA08jACTTrgV4LKZUhx/FANjOCjc6FqZUJhfBKc6TVnsGxVV9vDUk2zSSOrkvK5wVFRnEZHQjyFaOzKFYkTwb6lhd/32qSHaODR9IvEHo5Z4I8BSFyp5laC5GAEjYUrKyjFIdcnSHhU1RB8eIPDWTrZh3nFyCFm0cPvUJV8OYFMJ6tt35t6Nmx0gd2chKSKMU1fkZQAG611iRHNAURmdqNopTqhNJL3ZEIKRRz7JjLZqqRwBIqkBkAaU6zBgMjimVlyA+IvB7IYMIHnFYSdq7EyURT5fv7ubY/7IA+Qlu6k6c1t3c15NXfxN/uLnzIxjis31wUNyLlRFKXVSkDMiZxRCABAvR7zsjwEt3XNm5Kk0HJFVAMZdSfWZcPTikFUkuQ3pPhLS8zcEQj37GwsdENOFlx6rk3zEldzj0bw2xgSLIPh3n0m9zOYw8zPvyDS4sK0hBp2Kqoceuy2wK5xJo5eiv+q9eXmd1pKUz8XpWDu28HAEgWd41Q49ZlLoZn2YYYE0pgaSmoi+l1gkedZsvZdB1jANIqih3mlKVT3ebSFo5ekrdDXKbyOXMiSvbTbX0CABJ+lQbZJigVOXTDTCeHQJIZvdQx80QmCBRt3mzrBpoBgJAMsM3v8sYpSqf7jw/tHL0lLoz8Cady5kTVxnqu+KUQFIFBoOUOrGmtDkBArRylFIz7J1F85mhvitOWde+GKTUK57BbEOva+lkgylZ4pmsmiy/Bo4jACTx5sKsSqkFTQitHD2l5pkUpdQ8uE9lrWtfDFLqzOWlbhsiUNfSmdoIVbZPzmaVo6q8aCCpYhyDlDr08ShVjKrSImnl6Ck15wSOsGrOsq44d137YoxSlVV3XsZ1LZ2dwdk5nUesO2fXdBIBIJHGYvUJSlVW3XPmaOXoKXVP1Mdy6e8RjqGzVxuQ7JXwrDzTlKqsehbASzoDyZJO6psQAaXUhODODg0ks3vkdJxFqXNYlRcf3jHhmPjuKecQMbf8cJZ01YRZQstwdiAZdtGWXRHgVb1rVk3mIgAkrrnQq7mUOs6qTKO8BFnxOw5RDH8ck4nFnzO1HWqYdyh7mMepZ3ZJYfzQEuYiC5CQQV8zIyCXceZSrjg9kFSBwQJK9cmRxofLTn73PGetS0k9hs78TzGlbGtfZfw5MZb6Y8ywV2gZzg4kwy7asisCs5burhVdYzIgqWLwyyjV40o5Qm/x8SUrvTNSTPfd+Xd+DvW4/xKqf3zAR1f7gaSGd+1xsmNhG5ku+ekDfhwqfXeyh5/N6tTT1W4jm4hI+TY5nqyNz/HYf+RqVzDHsa48EImf0YHEb9DrTAj4qzdTGVeeFkiqwGExpQ6xqlx8rKPClwYRpJiOX5CVzOdKE83dIWb2n5643Gq4yPTsOxpnQ6+W3Y63yLDkYFttXvqcaSe7iGM9mYvxvj+sWc6w/XeBPWMadzuucCD8/1psGiDRf+cnoc2oO0s3Yx3XnRpIqoBhMaUOLTK2s8LjdyxMqXxWYwtzi2xio1HcT9pngsZMSLZ8KgxbmeBCn3ELx5eFod7xbF8jx2d/Lli64UAYHaEAibCpmhMBZ+nmLOSqcwNJFSgso9SRFYZNUQfHyATq0ROTGjIjgsdGxtKzyMtzKNWei8U5misMi8G8JiM5sYUM/Xk6tPNYxP99QVIGEuuiWlYEnKWbtZJrTg4kVYCwgFLHlxe29ue17gUfEfi9QooJLfZ+3WqEpmTcgRt/JrX+mYLp2rNfmAstwtPe+Ns4XfLeU+jC4sQnF/NIwsaXzys6j+AbkAQtatgVAbmMWd+1Ak0mEAASYStXnUupPjOuHhFSjCCjKIUZhuI3fHhRI8d1bWgzz0PtZfd0VEYWjyv7f6U3lF14msj0vJUzG9PtzYFJlrIYyu/Exuc+XC0rXlOAIZAELWrYFQGeKKnsWoEmEwgAibCVq86i1M34tFwcRGXinSRh3UMFkj2SaY5RBCSZXtf6H4UlSyOQZMm+NOk0pV7JeuLzJv0GwVIkN/AHkg1iaYjzEFBKPQ+/LXsDyZZBk8WaoNQr4dNk8C4LDCTLuql3GgSYVdOE16hzEQCSuR2y+o1RqvLpzlNDKwea/+4H+qUIKAKIAO+LnffjunSDlMo/olXZDQFeOrqXFAFFgBHgfbGO43buNUipO9eh6eQfpPJiugpltx9ZF5boam5lgKQKllBKLWiaaOVcy0dQI8UVNAFVlXI96NW1LwYp9cJ+olcxnLqWzpn8o0/qzwQQu18DjHXti0FKHfp4lE3WgQaJIlDX0okOYY4xPF69+Ve/xF9zIqiPh8BlEyuQeKMu83KMUpVVd54zWjkXfuMv9z8y6X/73f/qF/7kk/j1u3/wW7/7B7+1M/K1p5OQ1j6WsH4gCZsKtExQqrLqnnNGK+eSKVVu/jf/6pckmTKr/sKffHKQVc3fH9NnN+45N8XnksAWX+yyAoFkWbdM3tOUqqy629TQyrkiSkUaffb00b/8t/94glLxcx+Ox8Phpvv48ONt8FFe5pFC9PMZ7uxnQfR83H80BH9qgzvJ9MERtrn/6zpr4ORM8OIP8PrPhOgecXTtXZvo7KYzV07v/tH/aAcvhFKqB0iuy1mUOodVeUblk7J+ZTRNkuHRZ5ckCe593Crm2CTjcBAgSTWi3HF5kbRtK4+oz54+ur9v/uW//ceSWD/3pX8a1otcxyyGDmi0/COve3K0vIZnXCQw28XL1Ec40AflmDk7mH/WYHtYCpTVoLWz9JnxD5w7u+3spROXsnZhnqVKeGd1qMQJSKqody6ljrMq0yhPKit+x2FCsQeJOUsvpLyxyGIueKV3RcvtYNStYlcAACAASURBVJ0wVBiQ7XJvhW42UEwb9geSWLdLsMlV8eZf/RIfS5FS7+8bJFa0+5TaTRx+4hedUntMfBpyrgXJ9Z9adri5m2I4inBz7Bj47uZwvDEfjmYpFSPgP8UR61VkwxjHYxciSEgZ+n9kwbPr2/naRHBpnZuos4SXbJfwCiRVDGYBpfrkSOPDiZTfPc9lMz3MOJSQXud7Ug/zKntJXfqgHraixXzv7j9xO4RuYShpGfYHEul+SbpcCUOU2rYP4pSKQBge8X8O+twir1HnHnhpfpoKHgwh5gjdx5J139hkvPmClT5GSKm3FMJN6XekGnx7f90dkZujCUb/+AxbeGTepqN4l/AKJFUMZhmljkyb3C3SzbP3jNbRiv8P9RAwZhxcMrz6wy7s2f0A7z/PNHSjDdBH4l74/Mp+SnSXHlvld95Apn+3LbCVPwPQc2bWNvb+X/t1/+DF9DYbQNjtLusGSyvnYp+lysUQUmrbPmA+PfwP/7l/Sh3eTz3t3NCJz66cbsok6/AzS9fox7YRO83QrzXRgupIWZr5iWgXHFvwia85q9rJ9rPJay9en9b+FGFO5fC2t4TXWuvXgKSKoSymVEmXcoRyOllHhS+NPxMQf4ie/Ccl7GCe1tOqH+pi7bSE6a2Jvif/o0AKdXtkcus2Gx5VMA4OhmPafyRlFnEfULZ2m9PYXaM7xm7XIePfdR36CvsjktkWRu0HCySX+u/8nJXQtr/7B7+FB9JnTx8xmY4dUXGOgu9xGqLFQKe6vpvvHEQzhoiTMKGKK6j/3k9o/yYTrcc+NdLgOZRK4bm0KEd78EZHVqMRSKoofjGlDk0b21nh8TuWIQJib3Zwlqz7j/wcn57uBqlNLnNL2V0+jsNLVlqkjuV5FnmJ+ogbp/Y88V/+dYMFEgxzed+dlSAoFWmUvy86ojLL8Bw6hNjTWbxxEGHBn+RjTVbr2pxLTOdRar8CnWcNTi/KMTEWdMOeZsHYQWGLB6+IWrcKJFUMYxmljswZNkUdHKOkIURIUkyUd0I3EeSWn60JY38H6ESmxe4bB8iaT6nSP0jRv2/BzrJU7ugpfNlvIFsAkGCYi/zuLIaOVfms+gt/8kkk0/m3/AiRT0/utXdGdBsHMI44sYkV6ouGBg+OdBDo/rEOH5CxBkmBQZQ+mm/3r41bPyI6S2BPD1gq7hJegaSKwSyg1PE5w1ZaUOYVHxH4vQJW6k+XjFb/HMAsG2fNeEwkWKzvMRT57ubYP2XrPOS/kAqeDJgFzJH7jH34ngC5tS+4W95opHqdIPxDghUxEONpBtkPllbOxT5LHXpq9Lkv/VP+4oWgygACyLK02sjJ32hkv4BXIKliLHMpdbMJGyI++tFrb2f6ldOxtEdkfhBDSfYf6vFhwHJiT/WmRYalZck2JwhzX0eb5kYL3+dnO84wUW48CDMpK+wnb906I62cS6bUIVbNtFtoauVZILihzlTbQFpcP7zIO6/NtudAzrxmIMlbxszssyj1sidsJlI7uAHJDrkypkD6yljAhaW+eDyBpIqJm6ZU5dPdJpJWzoWfUhFPXVebrKtrgLGufTFBqdcwYZus7E2C1LV0zh/yxR+vzodoJML1oFfXvhijVOXTkQWdoqmupbMVAkgN+n0pAlvhX36cuvbFIKUunWD1Px+BupZO+Vvx/Ar1VHE+hudHAJLzQ+0QYZBSd8itKTwEgMSz62UuBJRScyEv8wKJNBarK6UWNDW0cq7i7amCcB8uRSl1GJv9WoBkv5RnZBqk1PNvYzXCUgRo5SilnrGiN+2qlLopnCuDAcnK/vt2G6TUwn4le19UMmUDkkz5Na2PgFKqj0iOayDJkXxxzjFKVVZdDOd5HYDkvDDaezMElFI3g/KMQEByRoz9uk5QqrLqflPRtrRy9MZ/T9THcimljqGzVxuQ7JXwrDzTlKqsehbASzoDyZJO6psQAaXUhODODg0ks3vkdJxFqXNYlRcfvieDY+L3Z3IOcWZu78NQZvba1A1INo2qwRYjwOtWKoujaIeNEACSjeKlDTOXUsdZlWlUEisXzkZjGWIu+flMJpz7STsca4UylNELhW5uGc6nC7K/4xN3Yd9eGanBRjsCid9dr/dFQDIp6/uWoNksAkBiTQVrCyh1iFWRMeV3z9Oh1CEsRkhnqMtM+8zITKlM5kMdpZ0+2W+iFtkldKVWIAld1LIzAsykqOycXdNJBIBEGovVl1Gqx5VyVB5v8iUrvTPSR/fd+Xd+RCsiZvcpqPjp0eYo11GdPdMx89mPvDT/GJjNfUC3g3tlcllLdzKWZfT/Ecp40Fm0Y1D5IdbmY15NowhDdR5u6H8j20b8rHcn2p09uQOJAEHVPAgopebBPZYVSGKNxdkWU+oQq0rqZB0VvjSjR87qSKZnFjzoWdrpFjMyozHKf2Ea/I+/jsqIoSg4gszkyArRny2DPk7fWpwyiJ45LSo2YJeevDBtn0QOkEeNHl400Qokl/rv/HqIKnlhVq2k3ostE0iqGOFiSnX4UQyR7axwo2NhSmUmCi3ck05/va/Dd93/9RHsZjrJS9alwrvEKPafPtm+7OxE61mwf5FlyFFwcO9/EDih+F9dC4KnpEBi6lHJjQDPZ+5Crj0/kFQBxDJKdcjRHR82RR0cI9IHkYiJEVpk5O623lIqUxj6yDgcymtiH1Y4vrSgLi2C9DoypeOl49PFMiRLlUXi0BgprxNNlA0k5KivmRFwlm7mWq43PZBUAcECSh1fXtjKP9jlpQNEyDihxXZAFuP3gAy/2tt842bIzFrElWU5awy7c2S6hZd0aRsxD7Gm9MFShaXPKyxhmV0yiqaUStMtF4/qQwgQWlf0CiRVjHkupY7z6YKhItdIxmGLs4gON3eCAVk1jEWC50Jhwceu2Nz/672uMtMbfy1LOPeUhm3yX/VReJe9RcVC5YFTmIF/+Uf/KNg9yna9bUlX/UtUmy0wnpILVa4QKCCpYkpnUeoVzqI/efLE6rctvx6IBiTLI9bdQxfYovm7NrhoW9Txh9rTlHpt8xdd3PQYNdq42DgUra6ls3jYwx2CNfbg/r45nU5t+6BtjY5fz54+Go5xRS0BXBc+diCpYpwTlHptk5d3zmjl1PHTeEOsgmXWM6nHqnfPH26YtN5QAVz1DmVW5UAyyzu30xilXtvM5Z6L6/0kKm+lIZPiyVTq9/eNHlSHfjE8++pNVwCQpEuxYeRBSrVv0qi2FwK0cvSU2komlfr9ffPyxZPIBuD3B7vJ6t4GRJP9fZBIryGTiGb7R439b53M+lAKEWDQH9+tHK/f+wk0NIiLsQNJFSMapNQqqr+wImnlXDulIofiU1SpDz5RjZNn3Dq9ZiyrWQ1/7637LRFh7P76rv+BS7/MMRF/QVGDrkqpEyBnbVZKzQq/mxxIXPPlX4UcIU+mUn/8+HEIhyQ5bkVCohuM7qwpTciA2JOc8PfqZDTWWYmcSjFsQKmyC1fVkzAeffuOh/73AjECGo+3slj39/naEC4b/xI1IKlicEqpBU0TrRxo2ua6vpomnAbJpFKPPE516YfIjcgJQ3cM1zd1LUYXtMcqK5I9o8a+ZsxDWXkgsgsbY5RqPhnI1hrTbPdOU0r1ACnqUim1oOkAkoJq2qWUIY5gJr17/lDqsaKQiujAaY6BlpyYHKm5e+W/DEE2JHdJhayzwqEshWJHex2rjm2UxRiEbtWYxr1RGYLLc7uYSyCpYkRKqQVNE62ca3+WKqeEmfTZ00dSlz6ObsnPklOEB7GPdbYEJ22ssxIJhXmUUp1p2PICSLYMmiyWUmoyaJcHBpLlXevuMX7sYiZ9+eIJ64MDtkRqNeOMV+IDIYxRMKX1tkarCU9hxCKwZ0CpgV/nbdNQSeIxr3u2lq6Yqf8+DpfjehEXQFLFaJRSC5omWjl6SvUn5XQ68S+loi49kHv4pp7JDUmNbvKJQMnPuAkPY8Z3jSz/OjYiZWn0MtsALl33xTre/YdY9EktfVpNVseVmVBKqXL2S9OVUguaESApqKZdSpnDEafTid/u786qW1QWP0luETlljDlwpcy/d2wg2TvxqnxKqatgS9MJSNKELzdqNo5QSi13UdjKgMSaCtaUUguaHFo5euNf0KQUWEq2n0CZsKhrXyilZlomsbR1LZ3YCNbbro0mViN1hUDVtS+UUlev7e071rV0Nh8/vW+kr2MIbA57+QHr2hdKqQWtqLqWTkHAJSvlCo+EybBcHxhI1ofYsadS6o5gT6UCkilHbd8JAaXUnYAeTQMko16lNCqlljITbXu9n5da0By4pSilunjkuQKSPOkXZlVKXQhYSncgSZlEYy9AQCl1AVjJXIEkWYYtAyulbonmmbGA5Mw42n0rBJRSt0LynDhAck6Q3foqpe4G9XQiIJl2VY9dEFBK3QXmiSRAMuFXRrNSahnz0FUBJAXVdN2lKKWWMP+0Ler4Exil1BLWTF9DXUunIOCSlaKUmgzaBYGBZEGffK5KqfmwDzIDSdCihjwIKKXmwd3NCiSuudArpdSCJoZWTh03OAUBt3Up0b9e2jqJxpuLAJDM7ZDVTyk1K/xuciBxzXq1NwJKqXsjPpoPSEa9SmlUSi1lJvRX/Quaie5jniWxFlXbtRUDJFUMXCm1oGmilaM3/vknRfKpPlHNOx917Qul1Lyrxcle19JxSr/EC2bVSxxcTWMCkiqKVkotaJpo5egptYhJUUotYhpq++wLpdRClo0pA0gKqum6S9Fb/hLmn7ZFHUcNpdQS1kxfQ11LJwSOj3WqlIxAOHGFW+raF0qpBS2nupaOB5we6DxAir2sbqbq2hdKqQWt/LqWjgSuul0qi79Cva75qmtfKKUWtKHqWjoSuGCLPri/b06nU9s+aFuj49ezp49kL9VzIRDMV65CZuUFklneuZ2UUnPPgMgPJMJWhxps0Z5JPVa9e/6wjvFcepXBfBU9YCApukoqTimVkCjgFUgKqGVZCd4WRSbFk6nU7+8bPaguQzaNtzdfaZJsFhVINouYMpBSakp0F8YGkoX98ruHW1QyqdTv75uXL55EKr49ynfJDzd3bYum423Ee8okotn+EaMwNU2XdCzyHO+7m0PTh0J3yu90npFsrJBz28L5Ojdiyv5AkjLJZrGVUjeD8vxAQHJ+qJ0jeFsUORSfokp98ImqSz5UfNxKrcOvltWs1lrVaoa1e8aTxuHI7SKed+vHK6Rtt2U0X5JGb76S5NguKJBsFzJhJKXUhOAuDQ0kSztm9w+3qDyZSv3x48dhtVE+Q9qho2vHfNKE3IQ9yQnPmTIa66y0rWBXUUrIcrKLdZR+qB8O5lxKR1M+W8tim+Z42zub47etAHNQ/f0xmRObLsfbMR9KzfG5DCJ/WRqPIpwvbipQAZICawtLUkoNMclmAZKmbSr7apoQNcmkUo88TnXph27A0Uo3zh2z9E1di9GZfQKaQk9uZ0USmq0Zm91bf9nFesqiUO8yWXNMM92FcyyysPUq0iUN34QIfBrTitZOZT6XrrZ21pRSGYrNFaXUzSFdHxBI1ofI1HNoizKT3j1/KPVYmUg5dGAzXGHJiemEmrvX463DHOQuiMe2R419GT0nzXu+SVlMX6FbNaZZZx4AUSUn71o6eu5N5MGk2fcVPr5qK5JhOy8H8qH5cpyKuQCSYioaK0QpdQydnduAZOe856cb2aLMpM+ePpL6YFIkA0MDlpyYUn12sM6W4KSNdVb8UJjEsJWlsMHaXBqVBdpaY5oJiHZ3ALKqrr1rllbiU+wX9ZHuNjlnRCJ2BzcyX2Njz9QGJJnyL0urlLoMr6TeQJI0S4rg41uUmfTliyesD5ZhWcFqxhmvPOITdGK9rdFq9rwqtF4Vzx9lVaKzMNs0VFLHVtYc02z9LqWir8+jbuJJH+luk3PJ2KyUyoAkVpRSEwO8JDyQLOlUhO84pbZtezqd+JdSUZd1IxH097Xi/hvZoLN3lCCuexp0LZZvRURLJqHR6+5yKzZKDhQBuirxepBSLWP7b0/ZwXNIfJPLZ9fOccJH1skVOSOTY+giTs6XLbAADUgKqGW6BKXUaYx28wCS3TJulWjOFj2dTvx2f3dW3SK5pJMt4l1JjDnzVQ4UQFJOSSOVKKWOgLN3E5DsnfjsfNm2qFLqqrnLNl+rqgWSVb337qSUujfiI/mAZMSnzKa6tmiZGO5ZVV3zBSR7QrQ6l1Lqaui27wgk24dOH7GuXZoej3IzVDdTQFIupqIypVQBRm4VSHIXsjI/v7+kSskIrJzdfN2AJF8JCzIrpS4AK7UrkKROpPFnIlDdgW7muOpyA5IqylZKLWiaaOXU8W/LCgIuWSlKqcmgXRAYSBb0yeeqlJoP+yAzkAQtasiDgFJqHtzdrEDimgu9UkotaGJo5egptZRJUUotYSbq2hdKqSWsmb6GupZOQcAlK0UpNRm0CwIDyYI++VyVUvNhH2QGkqBFDXkQUErNg7ubFUhcc6FXSqkFTQytHL3xL2VSlFJLmIm69oVSaglrpq+hrqVTEHDJSlFKTQbtgsBAsqBPPlel1HzYB5mBJGhRQx4ElFLz4O5mBRLXXOiVUmpBE0MrR2/8M09K9G+fMtd0xenr2hdKqQUt1bqWTkHAbV2KUurWiJ4VD0jOirJXZ6XUvZCekQdIZviqS1oEPFZNm0yjjyIAJKNepTQqpZYyE23b0srRG//8k6KUmn8OqIK69oVSKs1bAa91LZ0CAEtbArNq2jQafQoBIJlyLKJdKbWIacAigKSgmq64FKXUQiaftkUdd29KqYUsG1NGXUunIOCSlaK/RJUM2gWBgWRBn3yuSqn5sA8yA0nQUqiBz3GqVIpAoQvLLQtIXHOhV0qpBU0MrZxKbnCapiDstJRVCFRxDK9sX3C573YCYPbzu+++u2qCtNNZCPBcnBVll85VbMVdkKg+SflTCSRVYK2n1IKmiVZOBafUYB8+uL9vTqdT2z5oW6Pj17OnjwrCV0uJIRBMZcwpqw1IslYxN7lS6lykdvADkh1ynZki2Ic9k3qsevf84ZmJtHtqBIKpTJ1wcXwgWdwzRwel1ByoD+QEkoH2gszePkQmxZOp1O/vGz2oFjRtsVK8qYy5ZLYBSeY65qVXSp2H0y5eQLJLtrOShPtQMqnU7++bly+eRJLdHuW75Iebu7ZF0/E24j1lEtFs/9B4d3OQWa1rPL4I0DRdiaEfhgzqd7r2OQcihDF9KLxgE3HQe2pslDWcSmop5RVISilotA6l1FF49m0Ekn3Trsnm7UPkUHyKKvXBJ6rxXR+3TtdnWc1qrVWtZow91aCxmSaeBUVFXEXu6XEIDzeUvJouXHqLkAOqN5UDXjnNQJKziNm5lVJnQ5XeEUjSpzo3Q7gP5clU6o8fPw6TRYkGmYAOkR3XSRMezXpCIa/OKKOxzkrbCna1pcj23hoxte55Ees5HPqjLpZEDCaLbYirIzGlH503PZu8NKHwmujfxkTNAaM/6pPteBvzsTC0bTiVsrUEHUhKKGayBqXUSYj2cwCSpm1K/4r9UqpkUqlHHqe6nOESi8McfVPnb3RLJ1YVtgkjziUlp0Q0wzIO2aKU6j6ksHxnNe7ux+yuvUH5PqazG8q98hq7XDKG5z1YCzYopTJAmyhKqZvAuE0QINkmXMooQ/uQmfTu+UOpx2rBnW+PUx6PIElQc/d6vLWUKWhH0gnrrAycUmO8FKvS8RNkZdWYxpFkGVyJNyj0QWP8p4tN0QUWl7IvPe4VzZ17zIcL1FOqhWITTSl1Exi3CQIk24RLGWWIUtu2ZSZ99vSR1AfLsazjcIE1y57SSu7SxjorTGTEVn046SAz+DplMXahWzWmcRAvi3fJbn1kpFVzerZBvbxyODJa1wGH6PQd8LGZR6bSOmXVgCRrFXOTK6XORWoHPyDZIdeZKcb3ITPpyxdPWB/MaBnAasYZr+ihZN9dMIT1tkarifOsNd7dHIhY0ehEt36yVpuGSuoeGFhzTOMAfkx0dtKyLz30HadUERGDdSMSVpeOB3xs0vGptH75NCDJV8KCzEqpC8BK7QokqROdH39yH55OJ/6lVNRl0p5Y6AaYaK6nwc7c8RYShXRzLZaaRMSuZ5ctMA71xtokLaFFBOjuqvF6kFKD+okkeYAmrFvE4ebOMZCrMNLbU4SD+HUuLhDfMus7O33pR1PTOD44wFbfnmIgNlKUUjcCcoswQLJFsLQxJikVnwDw2/3dWXWLkpAtiHe2iHjtMeZMZV6MgCRvGTOzK6XOBGoPNyDZI9l5ObLtQ6XU8yYu7J1tKsNSBixAMtBellkptaD5oJVT48emFASjlrIIAaXURXBNOiulTkK0nwOQ7JfyjEzlb8UzBnctXauYRCCpYlaUUguaJlo5FZxSETV+v0SVShEoaPUPl1LXvlBKHZ7J3VvqWjq7w5MhYRWHuAy47JsSSPZNuzKbUupK4FJ0A5IUwTXmCgSUUleAtnkXINk8coqASqkpUF0ZE0hW9tduWyOglLo1omviAcmazrv3UUrdHfLhhEAy7KItuyKglLor3APJgGSgvSyzUmpB80Erp5q3pwrCLk0pSqlpcF0WFUiWdcvkrZSaCfhYWiCJNaotAwJKqRlAD1ICSdBSokEptaBZoZWjp9RSJkUptYSZqGtfKKWWsGb6GupaOgUBl6wUpdRk0C4IDCQL+uRzVUrNh32QGUiCFjXkQUApNQ/ublYgcc2FXimlFjQxtHL0xj/zpET/FCpzTVecvq59oZRa0FKta+kUBNzWpSilbo3oWfGA5Kwoe3VWSt0L6Rl5gGSGr7qkRcBj1bTJNPooAkAy6lVKo1JqKTPRti2tHL3xzz8pSqn554AqqGtfKKXSvBXwWtfSKQCwtCUwq6ZNo9GnEACSKcci2pVSi5gGLAJICqrpiktRSi1k8mlb1HH3ppRayLIxZdS1dAoCLlkp+ktUyaBdEBhIFvTJ56qUmg/7IDOQBC0FGfjspsqFIVDQInNLARLXXOiVUmpBE0Mrp9wbHD21FbRcti6l2Mktf1/IqVBKlWhk1gtfOsVuuczTdkHpy5ziwveFN/9KqR4gOS8LXzrBfntwf9+cTqe2fdC2RsevZ08f5QRRc5+BQDDFZ8TariuQbBcyYSSl1ITgLg0NJEs77uMf7LeeST1WvXv+cJ96NMvmCARTvHmGNQGBZE3n3fsope4O+XBCIBl2ydni7TdkUjyZSv3+vtGDas55OiO3N8VnRNqyK5BsGTRZLKXUZNAuDwwky7vu0SPcb5JJpX5/37x88SRS0+1Rvkt+uLlrWzQdbyPeUyYRzfaPGrtIfYt1jcZHr640095fHo+HrvKuc2cjjz5qP64+uDRO5IsWETFiyFXB7m5M8VRwJDabwinmpowKkGSsYX5qpdT5WCX3BJLkmVYl8PYbcig+RZX64BPVOCnErdMFWp6wWmtVq/WhmOWmWMkpiC4wXNM0pndnFD8PPLKiPiax1KfHNOaxXaSRLN4Uj3ju2QQkeyZdnUspdTV023cEku1DbxEx3G/yZCr1x48fhwkDkjMuSBR0dO3YTpqQrJjP0K8zymiss9K2gl3p4njszsgupcoufc2CvLD1eNtHMxGOt0ypkb5eXnmJ3jRUe2gMx4uWwwEPxr2nqIqxlSGZ12U8+TOAK2+8yByubcMpFo3ZVCDJVsGSxEqpS9BK7AskTduU+NU0IQCSSaUeeZzq7nWiAJcqOpLom7oWowvqYpUVIkzDPFFjT2tEhd05045DdiErl4SNhoNJuzWcSoWxH3U0r76Rr0Umq3aaP17s0lm5dxDXyRR1ixijkUX1SqkCjJWqUupK4FJ0A5IUwc+PObTfmEnvnj+Ueiwj7mk6qvFdNPEccg01d698RETiIZ6wrER8N0Spnac4/7qn1FiRSKCHm9vuGWTnj+mQlvG0e7i5o1qcGL6Rr2XFZESbP15qdQhaGDGfY6ALejUuVmeNFdkqyh+aYuGSQQWSDLmXp1RKXY5Zsh5AkizDWYFH9hsz6bOnj6Q+mM/yi9jlghydjtbZMoG0sc6KOLoiLzqsZW+6nTTioguE98fIwBjZ6Fhv926PTMedPaO9tBoFOd5KG0cQXChUByfj6xjogl5dB7ay4nWn3CNTTC4ZXoEkQ+7lKZVSl2OWrAeQJMtwVuDx/cZM+vLFE9YH89m9bTXjjFd0aO27C+Kx3tZoNfGIQBi5CNuZTaKHtTEh948i+bqj175EcV/e37hTAJlG6KIia+2DIW9HAvie0tG2WXoVSazRarEulNW8jk+x9NxTB5I9k67OpZS6GrrtOwLJ9qG3iDi5306nE/9SKuoybc8edF5kHkIWoJt8OqlKN+FhzEwrIiLbiJQdx74MQShcmOQgNjKHekViFgxDTaIIW5s0UmlDo3DtJqyo06oyJP1KlOxK9UgbgcBRWKEfXlRcP/TJKZYQ7aYDyW4Zz0mklHoOehv3BZKN424Ubs5+O51O/HZ/d1bdIjeyBHHGFhFzxNh7FJjP48yJgc+Z4okQCZqBJEHs7UMqpW6P6eqIQLI6QtKO2fbb3mSUBsWdRiFPs4t/CmWb4lHIgWTUq5RGpdRSZqL8j6Auc78VNH/1l1LmFANJFQArpRY0TbRy9PNSC5qU6ymlTD4t/6jhrRClVA+QnJdAkrOIqdz0vpG+XhoCUzOfrR1IslWwJLFS6hK0EvsCSeI8Gn4uAsUe3OYO4CL8gKSK0SilFjRNtHLKvfEvCKxdSlFK3QXmiSRAMuFXRrNSahnz0FUBJAXVdN2lKKWWMP+0Leo4aiillrBm+hrqWjoFAZesFKXUZNAuCAwkC/rkc1VKzYd9kBlIghY15EFAKTUP7m5WIHHNhV4ppRY0MbRy6rjBKQi4ZKUopSaDdkFgIFnQJ5+rUmo+7IPMQBK0qCEPAkqpeXB3swKJay70Sim1oImhlaOn1FImRSm1hJmoa18oZJoNegAAIABJREFUpZawZvoa6lo6BQGXrBSl1GTQLggMJAv65HNVSs2HfZAZSIIWNeyKQPTvonatQJMJBIBE2MpVlVILmhtaOXrjn3lSlFIzT4Cbvq59oZTqzl7Wq7qWTlaokif3WDV5Pk0wjACQDLsU1KKUWtBk0MrRU2r+SVFKzT8HVEFd+0IpleatgNe6lk4BgKUtgVk1bRqNPoUAkEw5FtGulFrENGARQFJQTVdcilJqIZNP26KOuzel1EKWjSmjrqVTEHDJStFfokoG7YLAQLKgTz5XpdR82AeZgSRoqdLApzxV8iJQ5eoRRQOJsJWrKqUWNDe0cuq4wRkHTs934/js2Vr7XNS1L5RS91zbE7nqWjojg6l9D48MrdKmqmekrn2hlFrQHqlr6YwAF2zgB/f3zel0atsHbWt0/Hr29NFIEG3aEIFgRjaMnTwUkCTPtEUCpdQtUNwoBpBsFC9bmGAD90zqserd84fZSryyxMGM1DR+IKmiaKXUgqaJVk71z1K9DYxMiidTqd/fN2MH1bubQ3O8LWh+tijl9mjeqjretqxsEXUyhjcjk/5FOQBJUVUNFaOUOoRMBjuQZMi9acpwA0smlfr9ffPyxRM/uSHT5nA8Hg43N4aCiFiRhujt88PNXXsOM4lolIDidSnIKPwcu191d+07mx6Hm1szoMYUjO2SUtkSjTdq7HDqwo66tW0bzshUj4LagaSgmoZLUUodxmb3FiDZPfPGCb0NjByKT1GlPv5EFfmCeI3Izl5jzWsJybKR1VqrWm0o8Thksr/jyfWGiuO38YU3IxtHTxwOSBLn2Sa8Uuo2OG4SBUg2iZYxSLiB5clU6o8fP47U2RGSd0qNkhTyEh1bO7qVpu4c2xMlOeGhTkZjnZW2FexqD5ZDlUbOiTKU6RYSaGgR4bE7loyD4Bg8DjNaL8jhYA7D/XlYhNNTqgNG2gul1LT4LooOJE3b1P3VNOHAJZNKffBxquEVcSiVXIk30SYHk0qXsKOinoO6FqMLemOVFcmeUSOlICoTFcm+3nhlKKdMrjdUOAQ3UW6HPaNG7NKNXPTmiHrjb6FIrSmlpkZ4QXwgWdCnSNfwlIplMpPePX8o9dmDQLqQ7OYQCBIZNXevx1tJqczAkvJYZ2WAK/vwLqnGa5ehjAeXOaJQJHaRHaXR6qyxIlJRPPM6NCPSp1gdSIqtUBamlCrRyKwDSeY6zk4/soGZSZ89fST1ZTktYwkuce7WRTzrbPlG2lhnZYBSHXIWCSKqDGWaucwRhcKwi+wojVZnjRWRiuKZ15EZkW5l6kBSZnleVUqpHiA5L4EkZxFb5B7fwMykL188YX1ZWssgVjMR8Eo+LnDZ0XpbzrOaoExhvD3S00xhpHIjpq7Jt3PiEYViWv6lAQ0ctUUzhxU2jqeUKqFIrSulpkZ4QXwgWdCnSNdxSm3b9nQ68S+loj45DiQNvqknmutpkG7y6aRKfvZZKlks34qI9l4+NAqL+H2uvl6fOmkYvh2DRH93yo0v3z3DkmmkGJKH0Y0jDKuUSlOQ61UpNRfykbxAEmmryjRJqciq/HZ/d1ZNNkKf3pIl2ikwjsf+FJiTds6MzImTxQdIsmRfmlQpdSliCf2BJGGOXUKXtYEvhFLlaZZOrrNns6wZmV02OgLJwn553JVS8+AezQok0daKjFVv4Ipwnl9q1TMCJPPHm9FTKTUj+H5qIPEbKryueg9XiPdYybXPBZCMDbKYNqXUYqbi4v5Rin0nRbWsCBS0xFeVAiSreu/dSSl1b8RH8gHJiI827YlA7ee7PbFKlwtI0qXYMLJS6oZgnhsKSM4NpP03QkApdSMgzwoDJGdF2auzUupeSM/IAyQzfNVlDwSUUvdAeSoHkEw5FtGulFrENGARQFJQTdddilJqCfNP26KOj2ZXSi1hzfQ11LV0CgIuWSlKqcmgXRAYSBb0yeeqlJoP+yAzkAQtasiDgFJqHtzdrEDimgu9UkotaGJo5dRxg1MQcMlKUUpNBu2CwECyoE8+V6XUfNgHmYEkaFFDHgSUUvPg7mYFEtdc6JVSakETQytHT6mlTIpSagkzUde+UEotYc30NdS1dAoCbutSon/rtHUSjTcXASCZ2yGrn1JqVvjd5EDimvVqbwSUUvdGfDQfkIx6ldKolFrKTLQX9zf+BSG7vBSPVZcH0B6bIQAkm0VMGUgpNSW6C2MDycJ+6r49Akqp22O6NiKQrA2waz+l1F3hHk8GJONu2roPAsyq+6TTLEMIAMmQQ1F2pdSCpoNWjr7jX8SkKKUWMQ21PRBTSi1k2ZgygKSgmq67FP0lqhLmn7ZFHUcNpdQS1kxfQ8lLh49sqlw8AgVtia6UkvdFiJVSaohJNkuxS0cPa9nWRI7EpU13sfsiOjlKqVFY8hjLXDqlbbA8c3NlWYua9DL3xdCKUEodQiaDvcylE+yuB/f3zel0atsHbWt0/Hr29FEGyDRlGgSCSU+TZl5UIJnnntlLKTXzBMj0QCKN2fVgd/VM6rHq3fOH2UvVArZCIJj0rQKviQMkazrv3kcpdXfIhxMCybBLhhZvdyGT4slU6vf3zdhB9e7m0BxvM5SvKdcg4E36mhDb9QGS7UImjKSUmhDcpaGBZGnHpP7h7pJMKvX7++bliyd+MYZMm8PxeDjc3Bybhon11lywHG7u2hZNq5hXRLP9o0ZK06W2vn7ZeC0iNE3TFRl1XFe5jD5VSTRtxOhU0mGPZTv2SD/XFE66277rFZDsmnVtMqXUtcgl6AckCWKvD+ntLuRQfIoq9fEnqri3LW3EN3jcOl26ZQ6rtVa1Wkt8aisZjz63orl+IpvsInXhskYdCjVkj+fwJj3utJcVSPZKeFYepdSz4Nu2M5BsG/bMaOHukidTqT9+/DiSqyM075TqkBz1wU1P59aO9KQJj4jYk5zwACajsc5K2w6xKyWmV9mlt4VEhJbD4YA1iNM1FTVa+eHmzkQ43pizuz322tQio1WxmRL0h+U5lVAIfOUAXfV05ra5CYi2DSfdtu2uAcnumdckVEpdg1qiPkDStE1BX00TjlcyqdQHH6eafSuOht4WN3f9wQmy2+qSPowu9j+rrEj2jBr7RwtELZbSuvSySz9kp86uFrQIVTAoDbALNFA5cvHx2D32oA7i8IzxI0GxIlHjnEpsNKt5SGNEW0mXRym1XwDLX5RSl2OWrAeQJMuwJvDQ7mImvXv+UOqzc+AmJ3oze9rZ9rjVqbl7Pd5KSmV3QTO2fb5xrGCnos5RWOIqHYrjldPPFdHXDSsahNqPi2KOMLrsJBF17YxdH9hjVD2lji2K8Tal1HF8dm0Fkl2zTiUbotS2bZlJnz19JPWpkG67JT9n21uzdJdWcpc21lmRR1fLJMGZWCaxOqWIWkSjUIlS+1Mq95QFBT62UURi1bb2JHk+pRKVdqdlv1S98edZW64opS7HLFkPIEmWYU3gEUqVrPryxRNm1WVpmDkcwqMTFh3r+piCXWw/a7SaPa8KbYCRwtg0ApsjYhGNQmWyHq68iyW7oC6IUqjH2x6XziYGKALEVa4kuAMwBWAkc+4NGVVPqTTdy1+VUpdjlqwHkCTLsCbwOKUiq/IvpZ5Op/v7yLNXLzFSAN3G2j1ttznykbjut75rsawlItqb2KhRRPC4BFsco4jQF4CWLodQBUGNVz4YnRtEfR1AIpUpwb6zJNIL1a1ENIi4PULYaDEUkzQ56cI3uQokyTNtkUApdQsUN4oBJBvF2ybMnN11Op347f7urLpN6kiUCO1FvGoyZRtRz7H2J5BAbc6kC/e0KpCkTbNRdKXUjYDcIgyQbBFssxhF7S7nJn6zIWYOZM+PfFTdoaJRKi9q0oFkB1TOT6GUej6Gm0UAks0ibhGoqN21xYA0xjQCRU06kEzXXYCHUmoBk0AlAAkZSnktaoOVAsrl1lHadANJFZArpRY0TbRySvyHEPxWkioXj0BBW6IrpeR9EWKllBpiks1S19LJBtOOiUs7r+049IJSAUlBNQ2XopQ6jM3uLUCye2ZNGEdAKTWOy75WINk37cpsSqkrgUvRDUhSBNeYKxBQSl0B2uZdgGTzyCkCKqWmQHVlTCBZ2V+7bY2AUurWiK6JByRrOu/eRyl1d8iHEwLJsIu27IqAUuqucA8kA5KB9rLMSqkFzQetnBLf8S8Iph1LUUrdEezBVEAy6FFSg1JqQbNBK0cptZRJUUotYSbq2hdKqSWsmb6GupZOQcAlK0UpNRm0CwIDyYI++VyVUvNhH2QGkqBFDXkQUErNg7ubFUhcc6FXSqkFTQytHL3xzzwp0b+PylzTFaeva18opRa0VOtaOgUBt3UpSqlbI3pWPCA5K8penZVS90J6Rh4gmeGrLmkR8Fg1bTKNPooAkIx6ldKolFrKTLRtSytHb/zzT4pSav45oArq2hdKqTRvBbzWtXQKACxtCcyqadNo9CkEgGTKsYh2pdQipgGLAJKCarriUpRSC5l82hZ13L0ppRaybEwZdS2dgoBLVor+ElUyaBcEBpIFffK5KqXmwz7IDCRBS7kGPsqpUh0C5a4qtzIgcc2FXimlFjQxtHLquMFp27L+23tBE1lJKbWcwevaF0qpBS3/ypZO0xSEnZayCoEqWLWyfcHlvtsJgDkivfvuu6smSDudhQDPxVlR9uoc7MYH9/fN6XRq2wdta3T8evb00V4VaZ7FCASTuDjCDh2AZIdc56fQU+r5GG4WAUg2i5gyULAbeyb1WPXu+cOUVWjssxAIJvGsaIk6A0mi+NuGVUrdFs+zogHJWVH26uztRmRSPJlK/f6+ufiD6u3RvDV1vHWgjxodjwIuvEksoKJICUASaSvPpJRa0JzQyqnj7alwN0omlfr9ffPyxZMI0Mg69E754eaubc8gIhHNsltoFBbM3OWNVOeYqJeNLJqx0WtyjdTf4V7XRQRkVXZrTKHTXbjvHCWcxDm9dvYBkp3zrkunlLoOtyS9gCRJ9K2DersRORSfokp98IlqnBzi1una724OTdORjtVaq1pNhEKjf7oUDla11OYRZ+cSLVoYhepworTbXL7meDkXvufya28SlwfYoweQ7JHs7BxKqWdDuF0AINkuZMJI4W6UJ1OpP378OKwjSnJIGHRs7dhLmvA82TMheXVGGY11VtpWsCuXgpHdM6rswo792flwPBJtY5MsjW/8Q6MXky9dz8NBBmen1jm4u11G8cF4eCjmbu5ga/k1OCARM1KuqpRa0NzQyoGmbSr4iv0SlWRSqUcep/I+77iRNjta6SjYMUvf1LUYXdANq6xI9owaab6x0T+iyi7kaRM6raJSq1rNHkeFrQtpr61mGsQVJupREHbHiYYax6cbmRykE4bGFv5cpJaCXoGkoJqGS1FKHcZm9xYg2T3zmoRDu5GZ9O75Q6nHcuA2p/OmoRBn4/eMQO145LIMJ2hIkh3rrBD5dA8GsA7MQ0Qeq41tIoxQZaGssyJKc4ckG/wW7o1p6OcKm01FzgX6SXgMkYoiher2pMENTSK1F/EKJEVUM1WEUuoUQju2A8mOOdenGtmNzKTPnj6S+mAyu/UjlOHznnW2DCNtrLMSUCq2+EfUeHm9ryQuU5EslHVWJPnJMtxKpLtJjp7Ho/kFAjtqx8u58CL39QurUJ2CeaQjk8g+2RUgyV7JnAKUUuegtJMPkOyU77w047uRmfTliyesDya0RGE144xXHvUJnrDe1mg1cV4TRg5rScvW5foZu2fhS1Y4nntAlBRmy6QhYW5p72rAoIa9RXGOl3MxiU+0SDvaSv6kGEhk5cXqSqkFTQ2tnFp/icqD8nQ68S+loi4dkBv47McUYlkFmVRcO2/pc0+6PyZ+MQ1sixn7zNZHlCU5qDMPGEwGt7I+adTIrItF81hliL4crzgHpa6fSNB1EdcOPsIZ82Eob9TjPxcFMDlVIMlZxOzcSqmzoUrvCCTpU22QYc5uPJ1O/HZ/d1bdIK9/btwi5E4xkP4so4Zpe4L0iC/028oyZxK3yrU6DpCsjrBnR6XUPdGeyAUkE35lNGfbjdPEVAZAsSrsmTJKrLsPLdskxsAZsgHJkENRdqXUgqaDVs6F3PgXhKyWMoCAUuoAMOvNSqnrsdu8J5BsHjlRwCo2ZKKxX0DYWqYPSKrAXCm1oGmilVPHKRWB43eJVKkOgYKW/mgpde0LpdTRydy3sa6lsy82ebLVco7Lg85eWYFkr4Rn5VFKPQu+bTsDybZhNdpqBJRSV0O3YUcg2TBmulBKqemwXRwZSBb31A5pEFBKTYPrsqhAsqxbJm+l1EzAx9ICSaxRbRkQUErNAHqQEkiClhINSqkFzQqtnJrenioIvgSlKKUmAHVxSCBZ3DNHB6XUHKgP5ASSgXY1742AUureiMfyAUmssTibUmpBU0IrR0+ppUyKUmoJM1HXvlBKLWHN9DXUtXQKAi5ZKUqpyaBdEBhIFvTJ56qUmg/7IDOQBC1qyIOAUmoe3N2sQOKaC71SSi1oYmjl6I1/5kmJ/h1U5pquOH1d+0IptaClWtfSKQi4rUtRSt0a0bPiAclZUfbqrJS6F9Iz8gDJDF91SYuAx6ppk2n0UQSAZNSrlEal1FJmom1bWjl6459/UpRS888BVVDXvlBKpXkr4LWupVMAYGlLYFZNm0ajTyEAJFOORbQrpRYxDVgEkBRU0xWXopRayOTTtqjj7k0ptZBlY8qoa+kUBFyyUvSXqJJBuyAwkCzok89VKTUf9kFmIAlaCjLw2U2Vy0OgoHUmSgESYStXVUotaG5o5ZR7g6OntoKWS4JSypzf8veFnAqlVIlGZr3wpVPmfss8ZxeXvsBZLnxfeEtAKdUDJOdl4Usn2GwP7u+b0+nUtg/a1uj49ezpo5wgau7zEAhm+bxwW/QGki2CJY+hlJoc4vkJgGR+lz09g83WM6nHqnfPH+5ZlebaFoFglrcNvyYakKzpvHsfpdTdIR9OCCTDLjlbvM2GTIonU6nf3zfXclC9PZp3qI63c2dlqf/cuGv9YvV4s7w29Jb9gGTLoMliKaUmg3Z5YCBZ3nWPHuFmk0wq9fv75uWLJ5GacA/TO+WHm7u2jW3rSM+YSUSztBYz3t0cKOdMBhRRRkhzae0T/hPNhJUditE6EIfRscBEfGIJw1mOdNzXBCT7pl2ZTSl1JXApugFJiuDnx/Q2G3IoPkWV+uAT1dgGJpoY3fnR0pEmDaFYTajCKPKiOshCfaJ5Xu3y2kUlsTFNNHMXMTa2hcqMaDEXb5bDuPtbgGT/1CsyKqWuAC1VFyBJleC8uOFmkydTqT9+/DhMFSUC3NR07uqIVZqQ/LAnOeG5TEZjnZW2FeyKAbtQ6CD5W3bBmkOLsaOVauhJWVKSV7ZosiprsWgyQH+WlibxcyCsUMZDR9nVRJMefLTlesRshbMsGvOoQJIn/cKsSqkLAUvpDiRN25T41TTh6CWTSj3yONXd5UQR7rbudr4kLKMLCmGVFaa7w81d1OjRIeXthyK7oMktKByx6MGuqPSh726ON3fcJM+ywkhxRTTvGUjX4kPRdZN9jEGEjauUzO8tvNlFKZWhWKcopa7DLUkvIEkS/eygQ5uNmfTu+UOpxxLiJqbDnjkuOtsayYKau9fjraRUdpe0wjorkmep+/FID1TlKTUs0ilINLu1dVxHrvQqvIXJqlaLnnpFs/dzABGhuuUwXUaVcDrRGBDC1qlf1N0OzbL02VkHkp3zrkunlLoOtyS9gCRJ9LODjmw2ZtJnTx9JfTCnZQVn51uz7Cmt5C5trLPCDHJwzouScWQCR5dBuEEauxIcSqKi2N1JZFtJi0fjHxddGOkj4hrVa6KonZe9sJrXpWtw6pfxR2ZZuu2pA8meSVfnUkpdDd32HYFk+9BbRBzfbMykL188YX0wrd3vVjPOeOX9XpKgEOttjVYTZGONqGFIa6XKQgsV0ZEOuWHeziR6cDWi2TAe3/h7xEX+wl1Ecyk1DkVXj+xjQevOsJSBoexPtvGMwpsGqqdURmKlopS6ErgU3YAkRfDzY45Tatu2p9OJfykVdZkU9y/deNpf/kGCoJt8OoORnyEl4WHMdP9LpOPYokYnNXfvivPpqa/Y6dFlZMvhYB4geGRJPIxlR4oWMUwBsWjO0Lsq3YF3KU19Yc3S0XPrKjreRjNiFS4gk7Ms53QfHUj2SXdmFqXUMwHcsjuQbBl0u1hzNtvpdOK3+7uz6hbpQwrZIqrGiCIwZ5ajHdMZgSRdig0jK6VuCOa5oYDk3EBp+mfbbEqpaSY0GjXbLEer6YxAMuxSUItSakGTQSun0A/3K3CzFTR5l1JKgbNc+L7wZl4p1QMk52X5S6fA/ZZzwi4ud5nzW/6+kAtBKVWikVmvYungGzD6/SIRyLwBBtJXsS+4dqVUhiK/UtfSyY9X+grKPLWlH3dZGYCkrLIGqlFKHQAmhxlIciTXnBEElFIjoOxuApLdM69JqJS6BrVEfYAkUXwNuxQBpdSliKXwB5IUwTePqZS6OaTrAwLJ+hDac1MElFI3hXNlMCBZ2X/fbkqp++I9mg1IRr20cT8ElFL3w3o4E5AMuxTUopRa0GTQyin091ILQmqvUpRS90J6LA+QjDkV06aUWsxUtC2tHKXUUiZFKbWEmahrXyillrBm+hrqWjoFAZesFKXUZNAuCAwkC/rkc1VKzYd9kBlIghY15EFAKTUP7m5WIHHNhV4ppRY0MbRy9MY/86RE/zIqc01XnL6ufaGUWtBSrWvpFATc1qUopW6N6FnxgOSsKHt1VkrdC+kZeYBkhq+6pEXAY9W0yTT6KAJAMupVSqNSaikz0eo7/gVNhfl/IVJKKu3qagGSKkaulFrQNNHK0WepRUwKU2oR1VxxEXXtC6XUgpZqXUunIODSlKKUmgbXxVGBZHHPHB2UUnOgPpATSAba1bw3AvpLVHsjHssHJLHG4mxKqQVNCa2cWm/8+VinSrEIFLTcZ5dS175QSp09sekd61o6Hh56oPMAKfOyxmmqa18opRa08utaOhK4GjeqrP+q9Oomq659oZRa0G6qa+lI4IJd+uD+vjmdTm37oG2Njl/Pnj6SvVTPgkAwWVmqWJAUSBb0yeeqlJoP+yAzkAQtpRuCXdozqceqd88flj6SK6gvmKzSxwwkpRfa1aeUWtA00cqp7+0pb5cik+LJVOr3940eVJMvuNujeXPseDuUyJusIbdy7EBSTkkjlSiljoCzdxOQ7J347HzhLpVMKvX7++bliyeRhEgE9E754eaubae4IRKFTCKa5ZaY8e7mQDlHWCgS1vTqqqS2Ga+igBndXW87jKlE2G/YP5ysqYiZ24Ekcx3z0iulzsNpFy8g2SXblkm8XYocik9RpT74RDXOAnHrdN1Ik4bvrCZUYbQZhHEkAfojk9q+Ix3cJtFFqK5PfyUzRR2GjVOhvckaDlRKC5CUUtBoHUqpo/Ds2wgk+6bdIFu4S+XJVOqPHz8O80X5DJmBjpDdoUuakNewJznhsVFGY52VtrXsKskHHeTZTnbpa8YOMvXh5g79qIau0e3KVzYfm1jpMtDVbXd2xjwWLmx1EplGH5W+yEN//PajmI8vsDFr0ICkhmJbpdSCpolWDjRtU9lXbJdKJpV65HGqZAV7P20ZyExSRyg9P3QtRicOuhNEKWy2fcSIN/zSAddEaOnZqysi0mqzEc91DI2eRnWH2T9oEKNkT2GLrk+b3GrsiJ27IqNxlFIZqhSKUmoKVFfGBJKV/fN1G9qlzKR3zx9KPVYpbn86g1kG6g+OyB3U3L0ebyWJ8aNXyTKss0LkLE+0NmpP2bH6jM2tkR++urVhDGYzbOxGwTYO5QzTekpHWUuYSFr64kVnodowQ5NlPQrTgKSwuuLlKKXGccliBZIs2c9JOrJLmUmfPX0k9cF0SBKGHhxCsGbZU1rJXdpYZ8WlVBur6z3BqH1FrpeMLIOg/Xg077+HZCd/GISeMiaXKI0ykUP0x1sJG0HCMYwyMlmOXzEXQFJMRWOFKKWOobNzG5DsnPf8dOO7lJn05YsnrA8mtTRgNeOMV3wyxP6CZqy3NVpNUJgwchG2M5tED7ahm0upwuZGxitzAqYOIovjGnrGyHswkYRCKZUnK5OilJoJ+FhaIIk1Fm0bp9S2bU+nE/9SKupyPEgWfPtNDNSTGt3k0+NS8jNuloysl4ksIvYPDuLGqF9fmsN6aBOsJurnIIfuLSEun6rgCtgRh2AdA09vDP3vmXJ/m8gBAAOiV/CkgQuenCz2LEQBkkLqGS9DKXUcn11bgWTXrFskm7NLT6cTv93fnVW3SByhvS3CbhOjpztm1OGo8z2HY8xumTNZs4Pt4QgkeyQ7O4dS6tkQbhcASLYLuVOkbLu0ZEqdX9t8zy3mM9tkrS0eSNYG2LWfUuqucI8nA5JxtwJbq9ulBWK4W0nVTRaQ7AbROYmUUs9Bb+O+QLJx3F3CVbdRd0GluCQ1ThOQFIdmrCCl1BgqmWxAkin/uWnpfSN9LReBc+c4R38gyZF8cU6l1MWQpesAJOlSaORFCNR4pls0wCqcgaSKapVSC5omWjn1fbhfQSBuWopS6qZwrgwGJCv779tNKXVfvEezAcmolzbuh4BS6n5YD2cCkmGXglqUUguaDFo5ekotZVKUUkuYibr2hVJqCWumr6GupVMQcMlKUUpNBu2CwECyoE8+V6XUfNgHmYEkaFFDHgSUUvPg7mYFEtdc6JVSakETQytHb/xLmRSl1BJmoq59oZRawprpa6hr6RQEXLJSlFKTQbsgMJAs6JPPVSk1H/ZBZiAJWtSQBwGl1Dy4u1mBxDUXeqWUWtDE0MrRG//MkxL946fMNV1x+rr2hVJqQUu1rqVTEHBbl6KUujWiZ8UDkrOi7NVZKXUvpGfkAZIZvuqSFgGPVdMm0+ijCADJqFcpjUqppcxE27a0cvTGP/+kKKXhNdxxAAAgAElEQVTmnwOqoK59oZRK81bAa11LpwDA0pbArJo2jUafQgBIphyLaFdKLWIasAggKaimKy5FKbWQyadtUcfdm1JqIcvGlFHX0ikIuGSl6C9RJYN2QWAgWdAnn6tSaj7sg8xAErRsY+BjlyqKQCIEtlmpbhQgcc2FXimlFjQxtHKS3ODogaugmb7cUlIss6T7YvOpUErdHNL1AdMtnRQLff04tedFI7D5Yku3L1LMg1JqClRXxky3dIJV/uD+vjmdTm37oG2Njl/Pnj5aWbp2UwQIgWCxUcPaVyBZG2DXfkqpu8I9ngxIxt1WtAarvGdSj1Xvnj9cEVy7KAISgWCxycY1OpCs6bx7H6XU3SEfTggkwy4rW7xVjkyKJ1Op3983elBdCfE1dLs9mje1jrfjY/UW27jznFYgmeOc3UcpNfsU2AKAxJo20sJVLplU6vf3zcsXTyJpcTvR+8SHm7u2nbfDIrGoaxfN2aF3N4emabrofT+R1/GMhjVGDEGFjjGArF+k4a6yjMF0mzfIqvrBLCvEG8pEZydddDB2TqZ9TYBwsUXDzjcCyfwuGT2VUjOC76cGEr/h7GtvlSOH4lNUqQ8+UY3vpbh1uli7R63msCyzgG232mh8LGnyIIUxIvXPTDNaw5mNkaqWRZQBcDxjeEjvqTzzfL3FNhV0uh1Ipl0L8FBKLWASqAQgIcNmr+EqlydTqT9+/DjMGiUa3F90pOtOkNKEtNhvafLqjDKa1E1ejECUKluljhXOsdixBLVJA59l/Zh8bbyPt3jpjIZrPpjztThiy/hmQNG+PGTqe9PdW+OVyYhROnRlgB4hbD24qUUXPrQ7/pSLbzRsOpmD7xY4ICs0aBHJIh0uNtu2SgOSVb337qSUujfiI/mApGmbjb+aJswrmVTqkcepuJdo5xHjiR1Ge1duXaPjFu2srLJCncSNPoakBGOedIdPvmZ8bkFixF2g3rNz6vSIu8xo+vfXyFnywYNwFDVzRNEsyuhV0Sj6mmTHmztvEByRFTlM0d22W63Lx5dd2jkgdN2CIo+3XJpoC0enN/7Qy7udAJjfM3/33XcjUKkpMQL9THRTsG2qoYMDM+nd84dSj2XHrUm0auiFN6txx21Gzd3r8ZYoyTx5ZXe5IaVuomBIoknZKvVYeba3KQ293Sr82rggEc7P0sexZCoC04lUwMCqdKPRyKL6vuwvSnBtdEWvnSNfsELIBdNiG2RJPRQR70iRFidKJ0Px6HgIQ4uNHZYqQLK0YxZ/PaVmgT2eFEjizWdYR1Y5M+mzp4+kPpgN95PZSbTDOldrlj2lldylTeqmH/rQNpWtUpcZpO75UEKH2IU/t1ubF8HrKVu7zl2hIoxQaSzIXvTMAEfGfR3/vgrXRlf02jnxBSuULSRJrpkVO1qjiRD0k8gr0rpIX9RpdDLmyGKTbvN1IJnfJaOnUmpG8P3UQOI3nH09vsqZSV++eML6YE67r6xmnPs9Zg90xij2sfW2Rqv16dCJKFV0Dzyd2FysU4TN6Jg9Z6dgP417LaoTDTaNJR/O0Q+BHop2Iwv69uNde+PfjcBWYTUXI7T7b1VJ777+eJHixj8cnbXoO/5Aojf+cllk0Wkqtv8b/3FKbdv2dDrxL6WiLhHoNyPdOXuM15m7bY1cId1ci93OIiJRmjDZiMzUxkSefWmCmWSxXkoq1jWjVdj62H5M/5qLxLeEujBo6wKwKiJ77/KYW/7u0SwVxiHpQYLoS0zcBRd2evrM+Qgn4ygDUkwHMjlBxLoEOXcWRXIWUmQlVIqdgsnFZl3naUAyzz2zl55SM0+ATA8k0riJPmeVn04nfru/O6tukRk3H7HHFhE1RukIzFlsi8YAJIt65XJWSs2FfCQvkETazjNtvsrnlqOUOhepy/HbfLEBSRUYKaUWNE20cjLc+BeEgpZSOQJKqf1G1mep2VdyPxMJfokqxZ8JZodLCygQgc35tLr/dqGn1IKWJZAkqoneltBXRSAVAimWLm2L7e/eUlSrlJoC1ZUx61o6KwdZVbcUZ66qACiiWCApopqpIpRSpxDasR1IdsypqcYQUEodQ2evNiDZK+FZeZRSz4Jv285Asm1YjbYaAaXU1dBt2BFINoyZLpRSajpsF0cGksU9tUMaBJRS0+C6LCqQLOuWyVspNRPwsbRAEmtUWwYElFIzgB6kBJKgpUSDUmpBs0Irp453NgsCLlkpSqnJoF0QGEgW9MnnqpSaD/sgM5AELWrIg4BSah7c3axA4poLvVJKLWhiaOXoKbWUSVFKLWEm6toXSqklrJm+hrqWTkHAJStFKTUZtAsCA8mCPvlclVLzYR9kBpKgRQ27IhD906JdK9BkAgEgEbZyVaXUguaGVo7e+GeeFKXUzBPgpq9rXyilurOX9aqupZMVquTJPVZNnk8TDCMAJMMuBbUopRY0GbRy9JSaf1KUUvPPAVVQ175QSqV5K+C1rqVTAGBpS2BWTZtGo08hACRTjkW0K6UWMQ1YBJAUVNMVl6KUWsjk07ao4+5NKbWQZWPKqGvpFARcslL0l6iSQbsgMJAs6JPPVSk1H/ZBZiAJWuoz8BFPlRIQqG8BiYqBRNjKVZVSC5obWjl13OCMAKeHuxFwsjRVPSN17Qul1CwrPJ60rqUTH0PbVr17hwZ1AfZ656WufaGUWtBmqWvpDAEXbN0H9/fN6XRq2wdta3T8evb00VAEtadAIJiXFEmSxASSJNG3DqqUujWiZ8QDkjNi5O8abN2eST1WvXv+MH+t11RBMC/VDB5IqqhYKbWgaaKVU/ezVG/rIpPiyVTq9/fNJR9Ub4/mXanjbctK7oXmzUvuchbkr2tfKKUumNrUrnUtnSE0wq0rmVTq9/fNyxdPInGQhuid8sPNXXsOM4lox1uR7e7m0DRNF91ao0bbzJoISnU2h5tbDslMGiocI4nC+fzo4bz4HqVeA0mpBTp1KaU6cOS9AJK8ZZyZ3du6yKH4FFXqg09U45wQt06XainSakTQHRdaSsUUnnEigwzquHK9oeL4bX7B+fzI3rz4zQVfA0nBNdrSlFItFtk1IMleyTkFhFtXnkyl/vjx4zBRlKQE2+HttMOK/UkTe4oz413bymhSN3kxqKXUrpao0Y0ja47HlPf7THGsiP6yZC4EHXkceLKOeIqArLp9nUN5OC+ikKJVICm6SipOKZWQKOAVSJq2qfiraUIsJZNKPfI41WUFIhomjS52RzB9U9didEFvrLLShrSIISlBX3PUGPalEcr4xsZljijU1zqLfucaZX9O1ClKqS4eqa6UUlMhuyIukKzoW06Xoa3LTHr3/KHUY5UjIdFBzRy2mKKMOxIZNXevx1tJqewuKU/qJgqGnEepsSJtJTYGlzmiUCx2scUcb6WRdVakJ4+Rh9IdSh1fSmVeh+ZF+pSpA0mZ5XlVKaV6gOS8BJKcRZyde2TrMpM+e/pI6oM5LQs6TGHNsqe0kru0Sd30Qx9Lh12sqFFmcfV4zHk3/lSjyKuU6sKLV0ASayzOppRa0JTQyrmoX6Ly8GUmffniCeuej720rGM104pX5neUhAh6s97WaLW+DzrNo9Sgcx/Dt3PiEYVLZh8a0MBRWzRLVdQfi8RpemXkR53vWtg1kBRWV7wcpdQ4LlmsQJIl+1ZJJ7fu6XTiX0pFXaZGduCbemY8JC+6yfdv/o2b8DBuzLciItmEyUaMGvvSfOqkin07xhg5pboDkyXTSKXNjkNaZ3vScLtqJ+eFxlTcK5AUV1msIKXUGCqZbECSKf82aeds3dPpxG/3d2fVLVL79LZFzJwxcDwOLZ5Tzpx5OSd+ur5Aki7FhpGVUjcE89xQQHJuoKz9s23dC6FUeVim8+gWE5ptXs4uHkjOjrRHAKXUPVCemQNIZvqX6Vbv1i0Tz62qqndegGQrKJLGUUpNCu+y4ECyrFt53vXu3vKw3KaiqmcESLbBInEUpdTEAC8JDyRLOhXqy2/DqFICAoWuknllAck898xeSqmZJ0CmBxJpVD0jAlUf7jLitm1qINk2bKJoSqmJgF0TFkjWdNY+CRBQSk0A6uKQQLK4Z44OSqk5UB/ICSQD7WreGwGl1L0Rj+UDklhjcTal1IKmhFZO3X89VRCgZ5eilHo2hBsEAJINYqUPoZSaHuPZGYBkdg91TIuAUmpafOdFB5J57pm9lFIzT4BMDyTSqHpGBJRSM4LPqYGELSUrSqkFzQ6tHL3xL2VSlFJLmIm69oVSaglrpq+hrqVTEHDJSlFKTQbtgsBAsqBPPlel1HzYB5mBJGhRQx4ElFLz4O5mBRLXXOiVUmpBE0MrR2/8M09K9O+dMtd0xenr2hdKqQUt1bqWTkHAbV2KUurWiJ4VD0jOirJXZ6XUvZCekQdIZviqS1oEPFZNm0yjjyIAJKNepTQqpZYyE23b0srRG//8k6KUmn8OqIK69oVSKs1bAa91LZ0CAEtbArNq2jQafQoBIJlyLKJdKbWIacAigKSgmq64FKXUQiaftkUdd29KqYUsG1NGXUunIOCSlaK/RJUM2gWBgWRBn3yuSqn5sA8yA0nQUquBD3qq5EKg1qUj6gYSYStXVUotaG5o5dRxgzMJnB7xJiHaweECZqGufaGUusOqnpuirqUzPqoL2MnjA6yotfa5qGtfKKUWtDXqWjrjwAXb+MH9fXM6ndr2QdsaHb+ePX00Hkdbz0cgmIvzQ+4aAUh2zbo2mVLqWuQS9AOSBLH3Dhls455JPVa9e/5w78quL18wF5VBACRV1K2UWtA00cq5hGep3jZGJsWTqdTv7xs9qPpL8PZo3ss63vr2tdfeXKwNk60fkGSrYElipdQlaCX2BZLEefYIH25jyaRSv79vXr54EqkJmYXeKT/c3LXtGWQjojlkdXdzaJqmi97VIPykOVJfS/VwZ+x7OB5NyJ4UOxt5OMGJNAMjGpwq4+lnWsO5mNmxEDcgKaSe8TKUUsfx2bUVSHbNmiaZt42RQ/EpqtQHn6jGaSVunR6B5U2rESF27EecZ4w9l0nPwQxOQXSBPXtO7YxdeGy2mbqgMSPFGcy6sMGbi4W987sDSf5SZlSglDoDpL1cgGSvhAnzhNtYnkyl/vjx47COKJ8h1dCxtWM+aUKyYj5Dv84oo0nd5I1xGtYTMpvfl7t3tWDr8bbtlePRnEO7KIebu0jftvf0WFaexbGXGIot2TGGOAhMw7kQjRWoQFJBrW2rlFrQNNHKgaZtqv9qmhBZyaRSjzxOlRxhb8Bdluv4pucjYi7JUsxirLQhi2FIn9XITzwRiPQ1I+SSMIkhV9JuDadSYewnYYkabUjRzKocSx+qM/k4iDRKqQKM5KpSanKI5ycAkvldivUc2sbMpHfPH0o9NhCkEXkqZWIx7kgu1Ny98hERCYbcJQ1J3URBH49SObRnj1XZ+R5ubrtnsu5x1XDq0bzXdLi5o1qcEFEjU6rTShdcGj8BlpYeja4MzjQ0F+xQuAIkhdeJ5SmlFjRNtHIu8B1/iTIz6bOnj6QufRwdOcOwG/FK12zN0ltayV3apG76oY+kTrQYcnKZSWaRehfxcDBvSWEHTGF0CrXuxp/K75LJCwqLNfojkrV1ulJqAElCg1JqQnCXhgaSpR0L9B/fxsykL188YX1wFJZNrGace2ZxiU8QjPW2Rqv16dCJKRXb+QTo1hR0xmbu01eC191FX2IX3suEfWNGtNFzWORpttmKOA22Df8AGJ8LG7BUDUhKLdCpSynVgSPvBZDkLWOT7JPb+HQ68S+loi7z9izR38faJ5rMXv2JUFz3NOhaLM+IiMTBwtQlMnavu8ut2Mj0ywV7drzELJiDurgZ+zoCIxq6VlkOBpGWKC5uyabGybnggZSpAEmZ5XlVKaV6gOS8BJKcRWyUe842Pp1O/HZ/d1bdIrdHb1uErD3GnLkoeYxAUnKRXJtSKkORXwGS/KWcXUG2bayUGsxdtrkIKllnAJJ13XfupZS6M+Bj6YBkzKmSttq3cSUwzyqz9rkAklmjze2klJp7BkR+IBG2itXad3LF0IvSL2AWgEQMq1xVKbWguaGVcwm/RIWw0ttL+poNgYLW99pS6toXSqlr5zlBv7qWTgIAigt5AUe84jBdXhCQLO+aoYdSagbQh1ICyZCD2ndGQCl1Z8Cj6YAk2lqaUSm1oBmhlXM5N/4FgbuqFKXUVbBt3AlINo6bJpxSahpcV0UFklW9tdP2CCilbo/p8ohAsrxrhh5KqRlAH0oJJEMOat8ZAaXUnQGPpgOSaGtpRqXUgmaEVo7e+JcyKUqpJcxEXftCKbWENdPXUNfSKQi4ZKUopSaDdkFgIFnQJ5+rUmo+7IPMQBK0qCEPAkqpeXB3swKJay70Sim1oImhlaM3/qVMilJqCTNR175QSi1hzfQ11LV0CgJu61Kif+q0dRKNNxcBIJnbIaufUmpW+N3kQOKa9WpvBJRS90Z8NB+QjHqV0qiUWspMtG1LK0dv/PNPiseq+Qu64grq2hdKqQUt1bqWTkHAJShFKTUBqCtDAsnK/vt2U0rdF+/RbEAy6qWNOyHArLpTPk0zgACQDLSXZVZKLWg+aOXojX8Rk6KUWsQ01PZATCm1kGVjygCSgmq67lL0l6hKmH/aFnUcNZRSS1gzfQ11LZ2CgBsthQ+bOyujRWnjAgSAZEGffK5KqfmwDzIDSdCihvUIZDlpZkm6HqOyewJJ2WX21SmlFjRNtHLquMEpCLjRUrKwW5akozBU3AgkVYxBKbWgaaKVo5S65aRkYbcsSbdEraRYde0LpdSC1k5dS6cg4EZLycJuWZKOwlBxI5BUMQal1IKmiVaOnlK3nJRU7HZ7NO93HW+jtaZKGk126UYgqWKgSqkFTROtHKXULSdlLbuNUmbbtqPta5NuOfCLiVXXvlBKLWjh1bV0CgJutJS17DZKmUqpo5hv2wgk24ZNFE0pNRGwa8ICyZrO2mcAgQilIlvi76kebu7ubg7id1YPN3dMmGTubu+9Xnh5OPR9sRvVEElKTfq6FAEgWdoxi79SahbY40mBJN6s1lUI+OzWU2FHnO3dzREVDI3kKkmVnpWGvYQFVXI1ofykqyrXTogAkFQBiFJqQdNEK0efpW45KR67hfTXtu3wObXnyUgvYRJqX7mXdMvxXF8sIKli6EqpBU0TrRyl1C0nxWO3kP6Co2nklBr2km9Pha1e0i3Hc32x6toXSqkFrdC6lk5BwI2W4rMb8l//6NPc+N90vw3VGQJ25V+SCnrdCR4Val+Kn3S0Qm0cRwBIxt0KaVVKLWQiTBlAUlBN9ZcSYTekQH57qj9wNk2DbzYx3fK7VsNvT4kWfZaaaLHQtqjj7k0pNdEyWBO2rqWzZoQ5+kQoNX0ZWZKmH1aeDECSJ/3CrEqpCwFL6Q4kKZNcXews7JYl6aVOLW0LPaVe6gwnG1ddSycZDBsHzsJuWZJuDFwx4YCkmIrGCtFT6hg6O7cByc55LztdFnbLkvRS55G2hZ5SL3WGk42rrqWTDIaNA9NfQO39uvEwrjgckFSBgZ5SC5omWjl1/DQuCLhkpehhMxm0CwIDyYI++VyVUvNhH2QGkqBFDXkQUErNg7ubFUhcc6FXSqkFTQytHD2lljIpSqklzERd+0IptYQ109dQ19IpCLhkpSilJoN2QWAgWdAnn6tSaj7sg8xAErSoIQ8CSql5cHezAolrLvRKKbWgiaGVozf+pUyKUmoJM1HXvlBKLWHN9DXUtXQKAi5ZKUqpyaBdEBhIFvTJ56qUmg/7IDOQBC1qyIOAUmoe3N2sQOKaC71SSi1oYmjl6I1/KZOilFrCTNS1L5RSS1gzfQ11LZ2CgNu6lOgfWm2dROPNRQBI5nbI6qeUmhV+NzmQuGa92hsBpdS9ER/NBySjXqU0KqWWMhP6EdQFzUT3//gksRZV27UVAyRVDFwptaBpopWjz1LzT4rkU32imnc+6toXSql5V4uTva6l45R+iRfMqpc4uJrGBCRVFK2UWtA00crRU2oRk6KUWsQ01PY/2ZRSC1k2pgwgKaim6y5Fb/lLmP//v71ryZHdVrK5JE9fzryZXEMPvQNn78ATbyEHBgzU3OOHNlA7qFHsQA2JOvxKSn34CVadwAWKIuPHE8Fzqcy6No5FH1cNUqqGnplz2Nk69vbEARH4NghsnMOd52LDQ80lUmpNtN/EEsiGHu9NG+BwqV8ENhpbIF3sjpSqqEzonNUXnI22U7QNpkIETiGw1t4COeW1thEptTbiG/EEsqYT9dzHx8cw/DIMv3x93cyfv/78dc2W80RAOQJRe9tsBWJnNA9IqYqqg845cEuNWPXz7/8o2g9TIQJHECClHkGLujsQEMia7mLPGVY9cFH9fN5vj9daDM57CLwe49c/BMuDpOBwsb27+00Y3lILtshR1wJZM1zruYhV//3n92UPI5ne7o/H/f58jmQxcUVKG5Pa7Xa7Pz9nP0bHm4j9h07Cp1i36fOx1I5pV9jYlYROlLXCjrwQa+0tEE9X75CUqqg26JwDL/7DMETv/l9ft+1PVM3Jcjev9JQajfv9PnPq53McBxwboxY6CZ9i3abPx1I7pl1hY1cSOlHWCjvyQpBSPTA4zIGAQNacrfWcf0v97bff1syH6VDtvaVON9mReT+f98dzvN+euKUaCjCE7Dsw8+aXKifinhWne7E5+3O0RNPswv0+pr1Lp5rDMIST093cmnqXdC+TyAiX+RVQQ//jrX5mrufnuPR4RY9YDwImOiaYnXaxTTj39+G4YtQCh+G+5y3A3fMxvZ6kZU33EvoxSMdafnivRXw1h6E/awuH7a21t0CgqPonb6mKyoPOOXZLNRvwWXX7ljodQe9Qmi73JgJSeLxe4wnEccQnATFqoRP3ZEYeaY5xJmfzgZoUvLN6N1Q08+mippeLGy5qetHHqI/n50yx2O2G1aTiNhJveHpeNJ9zmq71Djk8eh7dMDJBrHnafvxiyR7pj4rOizdcnLTuporGZZ1Wo6JYC2TkWsPOeANPfT2BKIRnPpBSfTQ4zoCAQNZ8rfWc0beseux7f6/757juaNhz5qaWcwuduCc3cgfe+LJ3xXEwc4RdiZ+d8uMVHGv4t5a+Jhb9lIO5t1aBtu9mGi+az+lhS9Fj4NA+zI58pkyCmQlrgvVgAg/4OSq5sYkyUto0soPpr6/FvfiThgrTmeiabO6pLqiXgG87lync8Vp7CwSbVv2Tt1RF5UHnnLmlmm1YVn1zUfU37be/mTe9P18nVqd8H97BHaedSzdykwvuZ19GO6bYIBF7gs0s/C/6xKKfaTD31irQ9t1M40XzgPGjbH1kfJiWHSXxfBMsBhniAT9HJTdeiOKm3Aie55/G3lCgYcBwxjecVsbCuKBeAr5mFMQ8klIXYeHkeQQEsuZired8fcuqq9/7+9rBmcPCQu8vTEHb/Fw8RN558ofzmQyvKLPC42XOo8+Y9sZnQnm5uKiLPs3kTMlLL/5LVp77gBrC/U5PS+bblOp7NNYjCn5IL8zCtLOBnjdjh76hnVyK4ikavQhqBJlt/YoZ0+lzIXxI7ry50Y662yBr7S0Qq6l5wFuqouqgc87fUs1mPj4+3n7v77Y9nyW8Md+fn/6BmPUWppyHeeQ7mmlsmUHs3c3FfE1ff80H2gTzP06F4tI7qj3ns9msO2eQJOVpTZbec0gNNuYazUzbTs3NDABIicy3sGy/+OVf5GmM529nKV2E9YOMG1kh7jBCaGQbwQc0UIkh9n8tJFCM3zsALbKdG4iUOgPBH7kQEMiaw7WeS/U/Pj62vvpPDTqaCXmgo8RbpGrAsn/t1E/hQAJr7S2Q+tmfiMhb6gnQSpkIZC3AWs+t6ReYj65J5r4R3TYKhPVdNqBUBbv2EXg/9hOuW505tzMJrLW3QN7vW4EGKVVBEZCCQDAR/1zruViPz0SgQwTW2lsgXeyJlKqoTOic1c9Sh+n/3KkoY6ZCBDIhsMan/Df+mQD+kW4Esr17fLjPn0Tg+yCw0fM4FltXjQ3zyku8pVYGfCucQLaUuFYRgY2rU8UsfnoogXQBBClVUZnQOX38bawIuGKpkFKLQXvAsUAO2LRTJaW2wz6JLJBkhRNtECCltsE9jCqQcFrpEylVUWHQObylaikKKVVDJfo6F6RUDT0z59BX6ygCrlgqpNRi0B5wLJADNu1USantsE8iCyRZ4UQbBEipbXAPowoknFb6REpVVBh0Dl/8tRSFlKqhEn2dC1Kqhp6Zc+irdRQBVywVUmoxaA84FsgBm3aqpNR22CeRBZKscKINAqTUNriHUQUSTit9IqUqKgw6hy/+jYuy+G+SGuf0g8P3dS5IqYpata/WUQRc7lRIqbkRveRPIJe81DImpdZCekccgezQpUpZBCJWLRuM3jcREMimlpZFUqqWSnT3X9xRBFyBVEipBUA96VIgJ+3rmpFS6+K9GU0gm1pcrISAZdVK8RhmBQGBrKzrmialKqoHOodfT6koCilVRRmGoa9zQUpV0jZjGn21jiLgiqXCX6IqBu0BxwI5YNNOlZTaDvskskCSlQ4m7J2OA/0IdNBPXooC8eb0DkmpimqDzunyxZ8XOkWdtJlKd5Xq61yQUje7r+5iX63jY9PdKfWT/4HjvurV17kgpSo6UH21jg/cjiP6y9d/b74Jxw0R2FGvhtnFoQUSL6h8JqUqKgs6p7MX/33nk5SqqNP6+l/t9nUuSKmKGr2v1rHA7aDUX76+buOftxfVz+f99nhZ15UHr8f4zVK7+ON2a+Wwo2qV0V8NJ5BVDU0LpFRF1UDn9HRL3Xcyd1DqSKa3++Nxvz+fI7M9XjO7hN+f35+fIem4p8mDp31/fq4V1xh5urfbLfG8Zpxpvn0O+2qXabsX3Ajkgo96pqTUeli/jSSQt5p6FHYcy5FPh9vtf2/vL6qGFaNropl0BOlIdITBPfl6M71GnrMkcuwAABRZSURBVGLYfIvQV6xZ7rlhDjtqV27fBzwL5IBNO1VSajvsk8gCSVaUTuw7k/sodaKW8JY673qbdJYp1WPaDeyWPd/vd3N/NSxulcZII0ebCU/FaswEP9lNebm/B2Yrb2Jzd2VySKHYV8HUruqMQKpGPRuMlHoWuQJ2Aingu4jLHQdyfuV3t9TtT1RHdoqvlh5jTbswJBq+tTuq83kw9hSDsOzZMaLHoDPHPV6Owh1tGz+PF9gWI59A41jIJZ43/svkgJju544KOuVWI4G0SuBQXFLqIbjKKgukbJhM3vedxoOUupTbMumALh3FGT1LtVBYcjnPbXhO3M7u3Lz/ocM0e3++xr8QHg/7seyOFJLbqxfADeetFclhXx03UCy+JJDikXIEIKXmQDGTD4Fk8lfWzY6jOPPp/HW/+dJ/51f/Xu4bxOfTmiMncOtbRtvwHNMZLpxuPog9TTs2HT/A2PmrA81z2FFHrxgthgJpEfxwTFLqYcjKGQikXIhcnvedQ0epwYv/9rt/kuIG6QS05usZ5huvi4k7b8K3GKc9vnTDSMkt+OrzeApoDKZfIdiIhaXIve/UhYqU3IKv/j4HxIx/7qtmbFXtWSDVIl4JREq9gl5mW4Fk9lvA3Y5D6Ph04ZZ6hFUjPglYxKfBUM/QTkxsIRShhe/LCxIr4QPT6RMGy9lGy3wObELbJRMzcTOnEs8v0mWsdDKHcPfuaUc1nXL9kUDqhz4RkZR6ArRSJgIpFSCT3z0n8K8/f337J1M6dJMBgT01zRDmlAuBnLKubURKrY34RjyBbOhoWNJ8/BJ8cFu1X1uNg+gGmRj9vAnNNRVIF2UhpSoqEzpH9b+e0nz2FNWyw1TUVraLc2ELTkq1ULQfdNE6ag9e+/p1noHaynZxLmzxSakWivYD/a2j9tS1L963yEBnffWfC7/4pFQfjcZj/a0TfCDJh++IQOMzsBRe/7nwsyal+mg0HvfVOo3BqhJe562tytYVBRGIopzWUyGlrmNTfUUg1SMz4DICpNRlXOrOCqRu2JPRSKkngSthJpASzunzBAKk1BOgZTcRSHbPJRySUkugetKnQE7a0yw3AqTU3Iie8SeQM8bVbUip1SFfDyiQdRWuVEWAlFoV7pVgAllZ1zVNSlVUD3SO6l/1V4RX+VRIqeUxfh9BIO9VFWiQUhUUASkIBBP82RgBUmrjAkzhBaIhmbc5kFLfQlRPQSD1QjLSJgKk1E14Ki0KpFK8a2FIqdfwy2otkKxe6ewwAou/wn/YCw0yISCQTP7KuiGllsX3kHeBHLKicnYESKnZIb3iUCBXnFSzJaVWg/p9IIG8V6VGYQQiVi0cje63EBDIlpKaNVKqmlIMAzqH3/i3LwoptX0NkEFf54KUirop+NlX6ygArGwKllXLhqH3dwgI5J2iinVSqooymCQEoiinH5wKKVVJ8XEs+nh7I6UqaZsxjb5aRxFwxVLhL1EVg/aAY4EcsGmnSkpth30SWSDJCifOIGCvmQ0HZ/KmTYiAQMJppU+kVEWFQef08YKjCLiVVJrfMZsnsAJMZ9MC6SJvUqqiMqFzSKl5itKc0ZonkAfH1l76Ohek1Nb94sXvq3W8xJUOmzNa8wSUFuZgWgI5aNdGnZTaBvfFqAJZXOXkUQSaM1rzBI4iplNfIDrTi7IipUaAtHwUSMskvlHslNE+n3fzVdX9+Xl4o6/HaPt4DXbwzkWawDsLri8gIJCFNX1TpFRFNUHn8LPUPEVJGG3iwolNDbceI1bLpHbwLs0kgXcGXF9CQCBLi+rmSKmKSoLOIaXmKUrMaIZHH6+T3i2T2sE7R3EC7/S5voiAQBZXtU2SUhVVBJ1DSs1TlJDRDBHivf8ZvsXf78EnAvYDgkl9vsxaJp0Hz+lTBNx0l+69YQJ5NvUDvfR1Lkipilq0r9ZRBNxKKjGj+awX8eNEjHbO8+fZ2OV0MAxGL7oBxwl4fjncj4BA9ps01CSlNgQ/Di2QeIHPpxCIGc2jR/cVk+XHwc0NoEhzp73dQsZ1Jna0yKhDnMCpXdBIIF1AQUpVVCZ0Dl/88xQlZrTdlJoorlEqLqeP8WMEfATgko8TcCscHUBAIAds2qmSUtthn0QWSLLCiTMIxIyWMGX0G1H2zmkGE0V6NtGyeck36+NtNmVU3lLPVC21EUi6pHCGlKqoKOgc3lLzFOU0peIzgJEop++tVm+pg1WNPkaddhAnkGdbP86LQLrYOSlVUZnQOaTUPEWpwmjzNXWJUXlLzVPHvs4FKTVP1bN46at1smy5qJMalOp9MJDupUYCadRvNyOQLnZGSlVUJnQOb6l5itKc0ZonkAfH1l76Ohek1Nb94sXvq3W8xJUOmzNa8wSUFuZgWgI5aNdGnZTaBvfFqAJZXOXkUQTwW6Utfx7NmfopAgJJlxTOkFIVFQWdwxd/LUXhNVNDJfo6F6RUDT0z59BX6ygCrlgqpNRi0B5wLJADNu1USantsE8iCyRZ4UQbBEipbXAPowoknFb6REpVVBh0Dl/8tRSFlKqhEn2dC1Kqhp6Zc+irdRQBVywVUmoxaA84FsgBm3aqpNR22CeRBZKscKINAqTUNriHUQUSTit9IqUqKgw6hy/+WopCStVQib7OBSlVQ8/MOfTVOoqAK5YKKbUYtAccC+SATTtVUmo77JPIAklWONEGAVJqG9zDqAIJp5U+kVIVFQadwxf/xkVZ/OdWjXP6weH7OhekVEWt2lfrKAIudyqk1NyIXvInkEteahmTUmshvSOOQHboUqUsAhGrlg1G75sICGRTS8siKVVLJYZhQOfwxb99UUip7WuADPo6F6RU1E3Bz75aRwFgZVOwrFo2DL2/Q0Ag7xRVrJNSVZTBJCEQRTn94FRIqUqKj2PRx9sbKVVJ24xp9NU6ioArlgp/iaoYtAccC+SATTtVUmo77JPIAklW9E7YqxwHPSKgt7G8zATizekdklIV1Qad08cLzjDw/wCqqHnOpdLFNbyvc0FKPdeKRaw6a53brQgKdFoXAf2s2tm5sOn+MYnIeEX6448/6paV0UYEbC26gCM5ir98fd0+Pj6G4ZdhGMfmz19//trFdn5skkkd1SEhEHWZLSXEW+oSKo3mBNIo/rGwyVGcmTRi1c+//3PML7XrIpDUsW74HdEEskO3vQoptX0NbAYCsTOaB9FRNExqbqb++OvrxotqR3VUmKpAFOaWpkRKTTFpNiOQZhkcCRxR6jAMPpP646+v27///B76fj3SL8jvz89Q6dzT5/N+u90OOjP5PF5nQva9l7SOZzAoaSOQkkGy+SalZoPyuiOBXHdVwUN0FA2Hmk9R/fH2J6qn6K/E5q5Q6pxPp3uJ6lgC3Is+BXLRTx1zUmodnHdFEcgu7dZK6VH0b6b++LfffltLdoGG/DufuWpapXHp8Zof7+NddJTHy5oYfUuPZnCHpu9ttp0vs9bB7HAYBn8qvPHadKJNLcynTqzSuNR+L138JpxAIsB1PpJSFdUFnSO34dbBn6VfovKZ1B+vfZxqGWYuw/Q8M9jER+N4VjLMCBq6jS/pZmUazhw4zhoie7zmweTOznn19oOH64tpwNI3w9z4M55fdDIradkLKdWvYJYxKTULjHmcCCSPu8Je0luqCWiZ9PPv//jjxXQiGjKPuEHiyjjP4oNOz8YbOiJ1I48nvSGIeA5jCNxfjxSQxuIGvEk/Gcuw+veyVkdvZ42HAmmcx77wpNR9OFXREkiVaFeDbBxFy6R//fmrP05DLtLQfEu12utK/oojRTuyA+/mmpisUmqchs1nZeB7tpQaO1lX8ldc4nZkB7n3slHHlY3WnhZI7cCn4pFST8FWxkggZdxn9rp9FC2T/vvP73acZuDzyLhqiMO8yVvtSMl79IbubupGSzRk5iamW7ZeTQP5+GaYG3/G8z3shS/+fgWzjEmpWWDM40QgedwV9rJNqeZ3quwvpX58fHx9LfwD1piGLDPhhXnkvkjJe/SGjkjdaIlSLW3fbuZ7q/keaVy5l3zvOfqVLD+oj/HCfOokUvIevaHbgRuV2Qsp1a9gljEpNQuMeZwIJI+7wl7eUqphVft1/3RXLZwT3R9HYE8dj3vNaSGQnE6L+SKlFoP2uGOBHDdtYKH/KDYApcOQ+usokC7QJaUqKhM6p4//uJ/+o6iotIpT0V/Hzs6FTZf/JarmbW9r0TyTnQnoP407N/Jj1bqooEC6KBNvqYrKhM7p45ZqgMPXSPzZJQKKun89lb7OBSl1vZLVV/pqnerwNAjYxSWuAS51QwqkbtiT0UipJ4ErYSaQEs7p8wQCpNQToGU3EUh2zyUcklJLoHrSp0BO2tMsNwKk1NyInvEnkDPG1W1IqdUhXw8okHUVrlRFgJRaFe6VYAJZWdc1TUpVVA90Tk9fTymCr0AqpNQCoB52KZDDli0MSKktUF+JKZCVdU7XRoCUWhvxpXgCWVpUN0dKVVQSdA5vqVqKQkrVUIm+zgUpVUPPzDn01TqKgCuWCim1GLQHHAvkgE07VVJqO+yTyAJJVjjRBgFSahvcw6gCCaeVPpFSFRUGncMX/8ZFWfyHUI1z+sHh+zoXpFRFrdpX6ygCLncqpNTciF7yJ5BLXmoZk1JrIb0jjkB26FKlLAIRq5YNRu+bCAhkU0vLIilVSyWGYUDn8MW/fVFIqe1rgAz6OhekVNRNwc++WkcBYGVTsKxaNgy9v0NAIO8UVayTUlWUwSQhEEU5/eBUSKlKio9j0cfbGylVSduMafTVOoqAK5YKf4mqGLQHHAvkgE07VVJqO+yTyAJJVr7DhL30cVAUge/QK+EeBBJOK30ipSoqDDqnjxeco8AV5RE6twgcrYt+/b7OBSlVUUf11TpHgbNnnoOiCByti379vs4FKVVRR/XVOkeBK8ojdG4ROFoX/fp9nQtSqqKOsq1z+5//+4Z/7KHnoCgC36557LlQdFbXUyGlrmNTfUUg35BPOz3ntxtr0RwBHIs+vmMgpVYnzvWAtnWaNzETmBEgpSr4u9Cei/Wjo2iFlKqoGH21jiLgiqXC30stBu0BxwI5YNNOlZTaDvskskCSFU60QYCU2gb3MKpAwmmlT6RURYVB5/TxmZEi4IqlQkotBu0BxwI5YNNOlZTaDvskskCSFU60QYCU2gb3MKpAwmmlT6RURYVB5/CWqqUopFQNlejrXJBSNfTMnENfraMIuGKpkFKLQXvAsUAO2LRTJaW2wz6JLJBkhRNtECCltsE9jCqQcFrpEylVUWHQOXzxb1yUxX/c1DinHxy+r3NBSlXUqn21jiLgcqdCSs2N6CV/ArnkpZYxKbUW0jviCGSHLlXKIhCxatlg9L6JgEA2tbQsklK1VIL/VX9FlRgGUqqecghET0obmZBSN8CpvSSQ2oEZbwkBy6pLi5yrh4BA6oW8EImUegG83KYCye2Y/s4gQEo9g1oBG4EU8J3fJSk1P6anPQrktAca5kWAv0SVF89z3gRyzryyFSm1MuBb4QSypcS1KgjYK6oZVInJIMsICGR5WdksKVVRQdA5/L3UlkVZ5NDFyZZZ/qTYfZ0LUqqi3uyrdRQBly+V7Tf97dV8WdBTgIBAglmtD6RURZVB5/CW2qYoEWPad38/m0jHX+K4EAICKeQ/r1tSal48L3kTyCUvND6LgKVLS6b+wHi1OmeD0O4wAgI5bNnCgJTaAvWVmAJZWed0QQR8rvSZ1I5tbF/TTnJQDgGBlAuR0TMpNSOYV10J5Koj2h9HwBKl5dB0YLxazeNBaHEGAYGcMa5uQ0qtDvl6QIGsq3ClFAKWKFMmtTMmttUslQr9hggIJJxW+kRKVVQYdA6/nmpQFEuUlkDTgUnLajbI8keGFEgXuyelKioTOoeU2qAoPlGmZBqtNsjvB4fs61yQUhW1al+towi4TKlY3tygVKuTKSbdvEdAIO9VFWiQUhUUASkIBBP8WRWBiC4tsfpJRDr+EseFEBBIIf953ZJS8+J5yZtALnmh8QUEthlze/VCWJpuISCQLSU1a6RUNaUYBnQOP0ttWRRzOY0yWJyMdPhYCAGBFPKf1y0pNS+el7wJ5JIXGudAwL71k0xzwHnJh0AueallTEqthfSOOALZoUsVIvBTEBBIFxsmpSoqEzqHL/6KisJUmiPQ17kgpTZvGJdAX63j8uaICJREQCAlg2TzTUrNBuV1RwK57ooeiMC3QUAgXeyIlKqoTOgcvvgrKgpTaY5AX+eClNq8YVwCfbWOy5sjIlASAYGUDJLNNyk1G5TXHQnkuit6IALfBgGBdLEjUqqiMqFz+OKvqChMpTkCfZ0LUmrzhnEJ9NU6Lm+OiEBJBARSMkg236TUbFBedySQ667ogQh8GwQE0sWOSKmKyoTO4Yu/oqIwleYI9HUuSKnNG8Yl0FfruLw5IgIlERBIySDZfJNSs0F53ZFArruiByLwbRAQSBc7IqUqKhM6hy/+iorCVJoj0Ne5IKU2bxiXQF+t4/LmiAiUREAgJYNk801KzQbldUcCue6KHojAt0FAIF3siJSqqEzoHL74KyoKU2mOQF/ngpTavGFcAn21jsubIyJQEgGBlAySzTcpNRuU1x0J5LoreiAC3wYBgXSxI1KqojKhc/jir6goTKU5An2dC1Jq84ZxCfTVOi5vjohASQQEUjJINt+k1GxQXnckkOuu6IEIfBsEBNLFjkipisqEzuGLv6KiMJXmCPR1LkipzRvGJdBX67i8OSICJREQSMkg2XyTUrNBed2RQK67ogci8G0QEEgXOyKlKioTOocv/oqKwlSaI9DXuSClNm8Yl0BfrePy5ogIlERAICWDZPNNSs0G5XVHArnuih6IwLdBQCBd7IiUqqhM6By++CsqClNpjkBf54KU2rxhXAJ9tY7LmyMiUBIBgZQMks03KTUblNcdCeS6K3ogAt8GAYF0sSNSqqIyoXP44q+oKEylOQJ9nYv/B1CkcyvLjFyDAAAAAElFTkSuQmCC;" vertex="1" parent="1">
          <mxGeometry x="650" y="60" width="454" height="815" as="geometry" />
        </mxCell>
        <mxCell id="QoFwCXkcrfL1e2SWgKoZ-3" value="" style="shape=image;verticalLabelPosition=bottom;labelBackgroundColor=default;verticalAlign=top;aspect=fixed;imageAspect=0;image=data:image/png,iVBORw0KGgoAAAANSUhEUgAAAqMAAAPPCAIAAAB/vFWqAAAgAElEQVR4Aexd4XkqPa/86kpB1EM1aSZN3A7e+0iypJFsw5JDAoThx1lblkej8a61cMjyv//jiwpQASpABagAFfi7CvzvP76oABWgAlSAClCBv6sAK/3fXVtmRgWoABWgAlTgv/9Y6XkWUAEqQAWoABX4ywqw0v/l1WVuVIAKUAEqQAW+V+m/zh//k9fp818UdJR/BvoXEn2ukfq3xDqm9z9PI9Vo+Mh//90WVwF0CT7OXwESsNGIoUc3JD2kemO+t9GP9KPxnwmMyypjp8/BQ6XMf4wpnJ+T1FtCu3VMsJQh6EVjwLoz8t1GvDjgSP/7n8svFsQdOvgZmCL4hA1+49y6Q9fMVVGAjfMpJg9+Uf86o0VYka0TPPC88gH1eVrmvsFZhbyrDeLiwlkMG5zt92Lwk/hxzkQjWEPOY1nEgmnKHO2Dq50/sY6Bho0Wq3XR89fawSEaR0JD3pCxWVEoP9GPYG58FqAbz4tmSa8wu+j904N3SmpJU7ElVUkZVse656M6wOxA1HjRA48lkd83CjXI2OvKz6z7UgcxYjjR6FJ/vje4qtp2HTfrseSZUXS4cMyxI602/+t8krvC23VYx5KcUkHr5Qp/nT8+zudSMSPbPR6ux8x0zBMcD3QF02b0jGt8YV7jyuXpAdD3Mg56/kh7QXTcwE4J3BwfNa2TVeEuUHX5dk+xRXtJLRVvIX/1vL0xl71utwBtdLgIsYvcxEuMo+/pNyd/XaKEvaW1PoNvQXgV31idaAjzz5NdSEd1qEuBKxCw0XgaZX6VUQSLxv49fSg0yy+zWw0I70Vju44z8pgd9KLRYXF1bUO8QghOjk3YnlV36/1OyfuS7mmcuv99nmpd10L/VUqmxL0k5xy3M+2qSX+rnNNcrDwM2eXXaYGI6Lvhgy4/2Z4Ful+0IzLeL5ojRdRoyMgmz65+d+t9D9KPF8/b7nytX4hfc96OB0o0tq4xsDlHY3xqHKn0oiHcciGGUBvXiTbzmolJugFq73+nT3PK2zfBOrZEEMkIyLQAMnx5kxGmeE/gYzCiMf2jwtg7jZyaw2axYCQzFOPp09ExMCp0vC1ILe5qcnEbxA5MW0GZ9qZDqnMxL1SiTpnklIihjoy6P2Ag8QtxYYaGcaR1UmurwedY0XF5GvYZOfdiqwN/E0ZjaOIgkuq5y74OdhrOudPpfr3v89rRYMbdjRT6L9h7PIYcg22l1+BW24CjNFcEFcwI0Pyiu8EZ44t8IZMAuXrHgJ7R1pztyohVNDo54gM7u4NNRGXCeDmG+/ontv1qyai+1QCIg7miMNTwYcRxfLuNCFeXJbjWxpTmGJaYSKP79X5FjZ7BbM5b3K8wFtoHCZTAhcuUQwXXUuKPDHwsvYPcDY3FOQqUCnlDvVbpdfaek7DOUXXWIGDXxD7OX8bDin1OWW6x64QFKDOAHjR1SRx9ZG5d6YwBaK4iIZyMK4wHho42HVMmDXhptpfPXoULW48bA7URSzyoyOEQfoVpwgP/XV6jbk+xBg+Dxw4mJHZfl0EEh8W0jQuOCCPm9pq4Qc4yFccBVb16P65MwDjU7EC6YJ+xKzcVLkMKVptgMmEmAqFW9ESlSozbdSjTvTNgxn28RI4T07e0QStZKUlZss5eQLtsfkLkEo9ZgSIjCe7E5mPPuHrMcSGT4loCb7LACV/nj0gUFnLA2JB2oOnagN0hF0R1aLaLZaHxho+ASLidlB2/UIOONh1FJg1AZZOruFv/keaWiQyEnIvzpdN02dpxwKzO250+W0ob3ZAJ6DA2uCHLBdDGuHWvyonhYe6lSi9kVmeMTLexadj4l/9x9sCemh+DhDuEYdeQmb7WMCl3GCc2TjHxjwmwk6h9d15PWw5GlQARuQ5UFrsULtkD+JKTxv84a+GwFCqNy3PLaGUsMCtA8FoT7PHdKwElau0pD3d0UhUo4xa/6uRTjxz7zAKL6xpgMgNffu6Fw7rRgA3FTzftHQCK2EtfHXXIcS02R3EZHkJIX9qXAfRtdPP8XmfnVof5PH2cTvULAD4krkDDZzodJLHVvzkVyAW2xyhH8cNXxez5G5UQF5AwLzAfa+b53GBiYGd3/AVRHZrsk8ER8Bhh1SixVynLYINrNHO4DlR8jHy5DUwksL5+6bwtxIC/UNqoA2xjNsysF4DixMnXZI3pBxs1Ck7aAF+o9EoMSiWi6RUcpHHEZsGQB3ZR/BiT3CEM24ZMNWTI0wLileyrku4TYk6az+/Gp3Uz8wqfjGRCe4EcE5Uw9EAxUBsGn7QPTqsgeK+WXA10l1e1B16P725+NEfpJWe17SbahNQz95JaOEyIZD/ddgZFbVQ+0waGUcbEPiPxSui+uD0vyEQQ+nCiYmsfW7xkNNItncBQK1JzGh258+n9QKwNh5N86nkjAXKpN3ATvYUunekgAPgRu3JrvQ3O8FoQ3MBexmlBpSsT4DVEaTARf2d34HB0wzh2e8MB7zUfcZCRXDOYMp+w23A1bmooE9oLz8sazDTDcQeq8PN11Hk1XO863Hze7tZLZqZyVaWFbukaSa8X3hl97xh5TNM3Qlyo9AqhvGt2EzQYxN3+7zrmeGAXxY8xyx3CsG8YvK5y4E94Md29wzA3xKW8w7l+ZgfdCr9Xfo66tgTwetitjXJl4U4HjjIxRET/iph5bSZ02t6v7rWn4dzRY+/iag2IqwY3AZ956NgYtO68c9jl/Y1wPa/WT0EP0Z6dBK+fs7YVleWUBNHN47bEW3elw0zBrpISLuTSuLFc1lioKFkUgCbT2F4XM5GxtBculfFlpzluFoFbcKrv2EcyQ5c/dBr+mU2lmXYHXhDVoW6fZxqC+K34yOhujow1/NbN4co/87Xoh/8VGFxTB2oUW3eiuYvncDnuvC/p496d3MTikpQeyMH+6Tjn4XB9gYb9WqUXN5kK54jOVFu/xjKGtMZZ5UYXxY9OLE+VsFxojP9fwVNBALEfs48o6+xi0nzKiEvgQ2IVfq88QF9sLqjYeQPhFaBxCG4X0efBnW7bvHRC7hWOuNMHaKqLnxA4D8+gXdx/V9YiCn6wB3KDj1iQTt+SnfbV4wSEgee4azzxa3TEUc2RRJvaB2s/ZEQ6CljxZFbVoYWxbsDFqOHK/ysdAJQo19wEcMGk8C+doFIbG5zhtMh3zk19L+PUmK3S41IUGIi+szswuLpJj5NdgJq44ih+Lrm0o9MHC/oD9sNKLhZD0nL+JRnjO8nQ0hjdgIthx72oj3v3KDhp+Kj8i/NWb6dWdse+6Tjn4dM7xWE/UunFtQMLXL0M1RIroemqgwd2Qf0In4j4O4CY7aQXRw1TI0c9HDgOI5FWyhpEc+4gMuxAel4t/RO+C7SgvjGZVANeDxE3SGUcBYEpbWQTY2MGnEy3ylbzKhOSJiiaxiCvQiZOwYB8t3H7BAyxSWxj3vBUbxmrYlZCG8g0d5pw/sAJdJC8Mq105j03Y0crZVZT5RSxlzpU3zwfArs0WqB4X1j/hl6nmLINPrg46lr/xWUhQDlbYbPraHgUly5l+UR2BAkUkAfOz2nDCn8MBm3IGP8GEcxlDz1mF0IWuPqnXRiUMecJRuQzGEPSV/EnX4+ZMs/nByhztQlUI1+/0bXV8qRarlWGRZyZl8RSNAha9IFsXXsAhtHgBEhAX6wpEEB8p7nOw7Txf+s6ficK51CBX1MgLsQRUa6suKR+jQUDUYE7KbDb8Hf2O4UlzHsrcPQ9/XurxOwfp0Cr7LIf3u/O+HFpMfK7KrCr6Dv7u+rEvO+qACv9XeUk2A8oAJ+PyedSd/sA7Aeo/jnIpr1/Lvh0q/AqPMcn66tzmJX+z109z5QQK/0zrQa5UAEqQAWoABW4twKs9PdWlHhUgApQASpABZ5JAVb6Z1oNcqECVIAKUAEqcG8FWOnvrSjxqAAVoAJUgAo8kwKs9M+zGuNbRfwTsudZEjL5wwron3HwK55/eIWZWirwC5XeL6jxvd342mm11/oGX6UN//o4CPib6gpU/9oaxupzBPJbxPBsg9RlahlQkmkOMlxTaA7S1awEIhrgJLYOD+zrUOpTgqYZoACkf3Ud/IF9mxARDtkrT8gPmxC3+1uQiBmzzI7ejQ4OxaxlYxEiCbXIECRGwKZnUQwso4kRZhSaGbaetTFlggakaayGB8841y14G5lwbDzNe3/gD3nt/Jt9nHHd2s7RHA5CaaplemdXXWwQWLpakkMza1pii4Y780gFXlSBX6r0cSnBtSPXnl+9eh26E1570nanlBin2j7qc9MHK6tav87nTxjGKGDeNbc7hU2ojDYgkeUiKxmrSSAktnX/GZoEYvvrHQxQkGGgYGKnTIBUdnZwOSIqwgCd0LE8n0qt5lV+IbHli5oAnVVTM/3IU8/284WefaOP8wcTWEVoNg14/lLrrq33Anief50/1jrkSRJ8Wrx1FyJf5q+ORZ+NP5rLOuIAktnZ0acKUWCL2+iIQ71qbKDaDaafP463edqYwF6N7xg8UoEnV+CnKj1cPvUCl55dnNKKzS072TLp6kVrtuojvcXlXp2mdVjhTk6HDVeCNdoL7ymJZki6IO24mwkVky7sURUoZyeiTINenZCYO3t61H0a7Nsm8BQfLXD4U+fGTFcXGCpcpZN5bWPpgPmhN7Zxcxf8hbIX7iyXkStN0LnmU3srHbZ8lmGbEeEbo+o566OLuri+yjzBd7F2+Ds7AiFPbKMPtHeaoF1/KqOe4YCgK+7Mhz1mR8MGDhAqyOxQgadR4CcqvVwQcdn3jVEunrnSyxS73NrFZVdouxJbQZEp8040A1XRj1+2Stk+Ae1hNFX/cLSzrPGu9KYkGr9Ip9gHtU4LC1bZqANF2OhkIy2gQV/sM2JfyFU+BX7lMNlK4KC6xCmJt/f0ywlTsLyfgepeYAVnfCS8h5SRlT6LeHOBAVgNttA/lQbnds6vY+2sGikoSy86dYqLAfokm+pae7iOO/ydPZEKz+vuW01kapzODu+5ed+PJVc3bo6CMSNvnGmmAs+jwL0rvV6r9SIrVyzsCOo6VcnirTotrlBxyiAFKP7rbjGtyH5tvDhLZ5qABmAk5vba7KsYYt5vBMeTtBS1F45qO33KYcKf5zojRxyxnSwiWLAxAfx39qGNTgB3zG7XRp5YUiRUhxLfLc3JexUxpQoR4S2dppd69nAJmDBpu9DCHDUGcpVBeWFiccNjigwd9nwuxLYhiQpqGgmLi3aIC/oYieGdZ2QNijkqzMr/qm6Vp3KQn8azFyRg16Kai3VvF7Y7AWvUmteiZ+qV9Vp40UQFnkuBe1b6zTVgZr/089KMKywaIs18Pc6Wdi8v8+crbzGtSH9tvDgvmBXWjdE095JBiLStfrhLCHt9nOPXQHMDNCnn7G1aKFIcJJgvgfppRym4GbnuBnZ2hYzIiLRoN55QaEqJ85kSE6G3efmEdhR/zxEq2U7PHi7RjLef0JVUekErJ8A6jgq60B8TS9J7PhBp2bwwU4ZclAylV6FLVSDRPwYsPVyaGCr+5rfXrfI0b2ehvTnExmw3G829wgdFbViwNqG6YE/dnRoOsE0FnlSBO1Z6u1rKZqxJi311DYl9XC2w8YLVJJsM44PbvNDWAeTCTp9Z/ksX/uw934PUqMBSgNtrlX6NAfPrgPeCrsFnZjEwPHU8h62gJIEMVCdKD2dNcd0AYRI1BwuqcnEtmreOYcRkJmgFR+G7RfwTs8xexYVzrFQy800iHkaOac0Eu6A4soqL4yUvD2QOGa5kkjqkQ0McoC4zaKKOFW6aGyx2+rQZ4e92MWyEEhfwrwvm8/048SyECpBPafhoxrjDDkyK5xS4jC47MmVzd770p5EKPFqBO1Z6TUWvgbpBiil35EwYrzDw6Rdk7wsATt3uvDKxMsnYdQsq9m2nEZk5XAi2BY0BUCBs0Mjg4gh61nk62HjMHuogZvBsXQ+tgIvV29llhwVUh+lHnV791BTlyholcEpgaDIhHaRXAWtMmT2/Ps5fGrfiWE9mLBFr4BrmWi+TaISjq3waUyW05XMx5pVZGk3gxW9+TfmHvwXV7uQEhNBf2ik0OElz5ikWcN+cWBvz4jxseBF/hxAOraFKAbE2zC4VeEYF7l3pJUe9FPLy313gYg8v6EgzLnHBcqfP8+JvldpXs1BjBQqk/9pfJe0ufEQo7T4BqEkzeZZZRztCdrd9KHwOQuCilXZcrIxbkGFuQS2dmLtBtA9H50ir/TqwsrFEFWNFFEqZtGFjf5dXBtq3yu4Omig1D6KdpBDnTwm8jzGPVJFLLzoCvtFhx2cOlBbB9XzS6i1FrNFsqOjj3nZPney2s2NC9ZDejsuKp/g7ORn3dsDvz7eV+yqEQG1yhSjZFIwVj/Rgiwo8pQI/UeklUbh8dhc4XshtE5Gh8cKtIc1otbrj/vVKzBnTBbq78KdlQgyL4ltOjHycvyDhCeGIQbBKVraNWcA2gBnnkO5CIIN/vBgsdSz9/Z5sTMkBBEor8inVo+Cj/yZthM/YC/3GChV8nWD6V/uBwMCnRQOoigMDucGLsboB8qKZCfdZORKKNmYCN3SQ5pLPIuQwyUw/WdNrETUHrVVYbPzRnOu4Pau2n72NGTPPApXDqAGuwyE7nD+ec8nVjcujZNyXcOlIIxV4NgV+qtI/W55Pz+fW8vH0CZEgFXgJBY5X+pdIhySpwEoBVvqVKo+w8Q3DI1RnzHdXgNfdu58B75E/K/3zrPP4ODQ/p3weamRCBf6cAv5xPz+Q/3NLy4QmBVjpJ0looAJUgApQASrwhxRgpf9Di8lUqAAVoAJUgApMCrDST5LQQAWoABWgAlTgDynASv+HFpOpUAEqQAWoABWYFGClnyShgQpQASpABajAH1LgCSu9fyW2PI2jPTWkPxBkfG1dpsQ3aXc45fEjMmN82b36+zfgq3Vwsh8qyVB6QggHn/VcZ4iqI7pEI+Qsat2bfYSLxl11gaWJNO4aIGhHoz67ZpwNP7HskNu9VwVOA8irCydDP6Nqj8Q+FaACP67Ak1b62GNgL5LNz3c93QjdCTclaQ8n8XGXqcbFQCq8xTcXjCKWQsG6zi4xn6MVVEEd5f/x8eGcMft7sV7GvRd44PSFiYF/blzkf5ewa9UFOk/deArvP+fjABfzMic+TsbF4pEK/AUFnqXSw84i+1AW4tiVrDSNJ99Dp2+WsQPvcHRuBohVLECloy6BGxPE4oVyHg23xzcimWiMO5WP8/kE90WezL0YR7ho3AsZcX5O+qAdDYh7l7Ar4JUN4t6hGRGi0UCb/S6pthDsUgEq8IsKPEOll40kSmZ/PLZsOlb4cfuRKVaX0Gq6+U2DjGRBT5wjlT7xYy1W2527zSRiWjaMj0zRVymrYc33cp+n/50+zX76VPagUfoXmAx2vTU4f45SX1NI/JDwh/lohrlc9hFzJLfgExnKGE4UpOz72WDuiRPQgXNjo4fV6Tv8tDtXzTc+/odToi5EIwU4mWJ5Przj28T0vyXfqqAgKc4tEI03u1SACjxUgUdXet3w6hZS9hnZYsawuvreGFOKt0opU2QbLCOAowOOI8exZ67xY3UcNgzS0Dmn0/FfavVkGp/YttMuLfE2WlbsLWtkkv62G2NekVmh7B3BFbxR6r1rSd2Djwc6esS0rLbkwiz4BGyd19ZdVPFzBR2/r5vHRTSzoQXw9SRxDj57HEF1H0EUt9nx6/yx1GEBohMQCflU1LmH83JUolw+o9KXLSpABZ5LgUdW+s3eYWYvWblFxoYWDZFy3pbcssOptwC5HAEbjRxbBtJhixI7cJlSO+KZflCBilvYMQ0RIViFR8RPjQrU5Q7inT4Tvs2KaD/Np5Zoj9bY6Hq3dLvrTufIRDEj/SnCQUMPi/cU8Z8jXwImoeJ2o6IvWEy4dYb3IJsNPnhUPg6xOdZ5xWkTqfiwQwWowPMp8MBKr9vG4l2C2LMipmRiH5s8bEZgNdcw7HCuVvpVOVndUli8gztzLWQ1hDCFlyXpuJ4PHsFZmjmhDaxkdEEdT4nhRwajNCVUwguez8Nj+mprrJJHOnwUSKMMC+ylMmM0eBfKwySKWAJJzO2VibWBS7p5mFXYBpNEM3jaBEjs1aK3rs3kIRNFA4FXjoQxTcEqxhxwcZRp2/QH5nZ8gUcTFaACT6DAAyu9Zq97R92BdnuN2N0TfPqOG33wqUJvBjb4Pjdw3TCOO3tzs10998ioQG1rD7vjOq1+nPBvNDie1ZvTOdSVwK4zVMqf5iP0hZNIFCKIccMn0nVibnAQ6wcU5Oue/3RchU3ZNtBCAgvpilTNN4GqPfJKB78nspNsBV18lx2ZlSdpcZH4u7HiyA4VoALPpsCjK73ooVtIbpK7zaZsXdCRZuxAsB3ucKKetLUAyNWbLUFe7YE7e0PPMmYDuVMDZZTCcZ2WH5X+kskU8aIh8KxAfHz4fdSD+IQs+j1EUHrDJ5JzodwgiQ19tOm3LWB313859rDH1qXPwuScjbEOBfyv7NBV2p6XT9Mj4H8n3zwrCyqel3WAPSpABV5BgWeo9KITbDGyQ8U2BxqKvd4PRNf2Rv2UMmfucGxLjo80Y8e8gD8YLmnB3gpkF83KpyU86MifvY2sHNdp+VGQpZ2vFGURdWtCvHq3Bei/yGcQ1RpWhV7zaSKIHC5ETtC7BjffRzcX1NfH+3LMwEjHUhrrlWRKwjqaYwgUVjDCuoy1G/ChgaLDDJAHGdc2nJQ4sEoVx9mmAlTgyRV4lkr/5DKRHhX48wrIfUHeKP/5dJkgFXgjBVjp32ixmSoV2CvAd+57bThCBV5cAVb6F19A0qcCVIAKUAEqcFEBVvqL8nCQClABKkAFqMCLK8BK/+ILSPpUgApQASpABS4qwEp/UR4OUgEqQAWoABV4cQVY6V98AUmfClABKkAFqMBFBVjpL8rDQSpABagAFaACL67AE1b6+riP/Avfao/niegCwMNJ4i+Cq3/itOebxANXqr/jV2s8/uQzH8TmZ4Bw8Flue46jqiO6RGP7lJdfI2y6xmJ9O+49cEKWaHybzmoinEL/nu8qQNCOhnlFNxrzbBn6GVZzLFqoABV4kAJPWulj74E9SjZMr6S6eboTblbSHk7i4y5TjYuB1H2Lby4YRSyFgnWdXWI+RyuogjrKP1SQgRTrN1grp8MhcW0qu9tw6lzvLfXxwbsd+wl0N+A8FXF98RRtdoi8eSoeeLBJBajA6yvwLJUedhzZd6ME5S6mrailufVny1YjNtQdTq1xuYQFqHTUJ3BjBu6f82i4Pb4RyURjlIGUuar7eMqNARJvQ3foBno07gA6QfzcKRK0o2HBoxuNRqrZf45hi8suFaACv6vAM1R62WD8jfhUgmQzssKP25JMsaqPVpPObxpkJEtZ4hyp9Ikfy7HaBt1tJhHTsmF8ZIq+4qZFPMKa76w/T//Tp7brm21lDxqlf4HJYNdbRif9PBe17PDTnkR1ghGsmY0IPieYgm+uj30q4hkLkI2Bs6HnuQJDiONvZod7DBkdZwNipgYHWho0MPtP7QW60wdEGcOJxscd/Ky1fuKEau54x2NlIMAa9ydD3pE9oagAFTiswKMrvW6cdWsp+49sPWNYXX23jynFW9P2HbWMAI5WeseR49h+1/ihpMOGQRo653TyX6UpY71j+IN44xMVIO3SktRtGv6APDJJf7xb8OwCtnOZbqjwvx82+Pu3/Up1jjUEtYylE4umdDCMGIa74WgnIefZmdESx6cCjuEv9E+oQ60aD3pf5w8Pq4tR01VTjE8LAJUeIBFHzO2FcIe4FyeMkwMm078hJxpbVIAKPIMCj6z0mz3FzL6n5XYpdu1FQwSctyu37HC0pCx2soCNRlkghy1Gr08LuOZnnukHO3vxDLvHczZ+lIxTlH35LaiLjuAlHaj0W3yZgaEd1Jl634/qHyEmr25ohAoNGYOkPYIeG06DyROkDhT4gne1g0AteM6d8bsrwuh5PBKsM8Vrl3lG+06rxikIEvSHopY47FABKvA7Cjyw0ut2Eu+oM926A1b7vBlOO2EYdjhXKz1uuxm+b9Q+srP7eBwrH9xnZQRelqTjej54BGdp5oQ2EGU2SGSj0rFbJgFqZBJfpubgWInpvWkG2OnsHp6g9xuhMixjGdFn2LE4zrd+ARsNnYb6V7zrvUSqKGKHVyPceDZ5AqmBpP4yv70ure+VNDKHhePg8A/wC1CaqAAVeJgCD6z0mrPuKXVL3O1BYndP8OkbaPTBp8q7Gdjg+9zAdcM47uzNbf+eXgA8L7jJcFyn1Y8T/o2GpkKw8DgX4cTJPxHYTmgROqAn6PbqXlFrz2fYseG07g+8p8+ljPIsTEJBpVWG3OKSab/mG/6XUtV5d/mnBi+QkkchWkbZoQJU4AUVeHSlF8l0a8lat9uEyhYIHWnGzgTb7Q6nvZmKRQNI+Cw7hgV59SZnZ4+J3qh8YmcvFQKkcFyn5Ud7X71i4oGOHZGOtONuQzvX8J2dxCqzIThGALM3EcJhImwflH6eIg6hx5VrrBTMq3RS/wJ2tOPflwzCtdJL2M638wSdten+YD/K5ma/XfYr3jeDcwIVoALPpsAzVHrRBLaeuiOnYGLPzV73Q+9qxz7ZzK13h2OVCT4HHSgX8AfDqB9Jyjb4DIojrV35tIQHnY/z2f8X3guD0/KjoEo7X65Ci3elWzFqBnXM8bUMeFg3WpQywYfEWHHVufgqnE2o9mkiRF/5C5AHtntHYxo2FS1RQf8rQq2HjU7i1VWBdWyLhTwzY/2bg0rV6KP7msh3rJvk/ZT7DiTnUAEq8MQKPEulf2KJSO13FNjcGPxO8HeKQqHfabWZKxUQBVjpeR48iQIsQL+zEHzn/js6MwoVeCIFWOmfaDHemwor/XuvP7OnAlTgxxRgpf8xaQlMBagAFaACVOAJFGClf4JFIAUqQAWoABWgAj+mACv9j0lLYCpABVRK//sAACAASURBVKgAFaACT6AAK/0TLAIpUAEqQAWoABX4MQVY6X9MWgJTASpABagAFXgCBZ6w0st3sOEVDyep9nzMiKgIj1XZ+MMzXCpQPHClmh2/Wgevj/MnPpjP1lE4+KwnWFmgoOqILtHoD9+JvL5g2j2aIN9VbcA3FvFbHCLNaHwLZjfpbjx3AYJ2NNxTDbpYVc3H2INeNJxnHmXo31YzsdiiAlTgmwo8aaWPvQH2ENlgfX/TzdadcDOR9nASH3fBGtcelhbCbfHNA6OIpVCwrrMLyCdpBFVQJ6j1vGLglgZql/MEOpfg63z+zLF9698JXcx3H/jGkX/nuQu44S8B4dwOZR9lz0sAGLScNk/ja17sUgEq8LMKPEulhx1B9rmo0LmbaCtqaZaWbJlSsQHvcBQoA4S+Bah01CVwYwLub/NouD2+EclEAzjdhfkKeGWDuNvmvxOKyNHYBvuHgX/nuQsetKMhnnCJjE+x7Gp4lB3ubgtPyKrZf04xiMkmFaACswLPUOllA/A3K+PNchZi2Sys8OO2IVNsn0Orpec7n4yscI5U+sQPyVbblLvNJGJaNoyPTJk/fg1rvgf231DRt8Uy1zMWxPSPe58MdFtLoFKmMXeBbxTCUz0+zl9mHjlhajKwI4eTAtFpLwit/cV6+gwtdsEcd31UaOQg4QMqdVhrhBMHnVQwUO6yXkWWIYiEf5R9LWexVkVkSPUEXYo7O1SACvyUAo+u9Lpl1Uu/7A+yNYzhsbu1Olm8VSXf+soI4NjHBFCbxna9xg/hHTYM0tA5p5P/Kk0Z6x3DH8k0PlEx0i4tSd2mnT7laJORSfpHxZsz60xKH9FsAC2A79nKR/DFPHSoq1grEEY0zcYH+aUzhxdLccGOtv30kE5jgEEvtDHdUji/zh+LdQmkOs94hr+k73TQEYSTZnvl9IgSjQAcEshB/B9lD2LbBuadTrZqlzJNX7aoABW4jwKPrPSba97Mvgf6dmk7qfbEIczzduKWHc7V9/QFP2R22DBYw6Ic2bjEM/1ig254Yfd4zsaPubXrzDA3nMNdjxMTgsEC36Kdp48BFiwm3BFAXFOGUlrNo03c+8tIQrVpkc71BkbYolRVBLS7IgwU4HutlxLQL4Laue/hHmW/quusWEzRlYtLOMxsUAEq8EMKPLDS6+UOW7Vn6FuY9/0o9rE7wCYCVnMMww7naqXHbdqDzxu7j/QN3+3TsfKBFOxdq9/a+JtUx/V88Ji+2jJVZEJ7YUWd+AyDx/FxidNeuCfbcAd2cg6yeNvvQ6t4Ba45tC6sngQtMz3ErccEwlUZnyakFijD8UpvgiVK/C+MJNZel7Ix9+TgujzKfkXk1HThODS5lO5iFk1UgAp8V4EHVnqlrNd8bl9i2+0RYndP8PEdzxWIPvj4mB03Axt8nxu4bhjHnb259byypgiA5wU3GY7rtPpxwv+mweP4dI/j/XKUQf0tdWAsDqtJNa+A6fF6v79X7uPZNzIB/A8NR8pFmW5VypCGSiIW2UGsF/4rab5DVXDgxiaiPcp+OYegN7uJbpDI7EALFaAC91bg0ZVe8tFLP2vdbpMQe3hBR5qxcwjWcNrh7G4lAHJVuvrG7iuxs/t4HCufqASavucFUjiu0/Kj0o98A/3bDY8TABJojZ+u0nLOOnEy+H+wJ5L/lZ24hnUxT0z4bm/rXwUN/t9q+PcfITBSUw4l4flDHtBNmy4Q2L9FLSYBoYL5KHsQmxt5dtexlY7Vgz0qQAV+QIFnqPSSFmwNsovBhhtJiz03W93rvKsd+yQ0Z+5wrFTC56YD5QL+YLikJZtXBg22c6PyaQkPOh/ns3+Ty3Gdlh8FWNr5chXmkEcsHgd9V/h1kzYPzFvHjVQSQqC02r3dJd82tsTe3bFhIsfbFgITQpVhXdA81sAzy2z1cw8332+9MkA95R5l38kLJze6iMZFYRxkmwpQgZ9T4Fkq/c9lSGQqQAV+UwG572BB/03FGYsKXFOAlf6aQhynAlTgBgX4zv0GsehKBX5HAVb639GZUagAFaACVIAKPEYBVvrH6M6oVIAKUAEqQAV+RwFW+t/RmVGoABWgAlSACjxGAVb6x+jOqFSAClABKkAFfkcBVvrf0ZlRqAAVoAJUgAo8RgFW+sfozqhUgApQASpABX5HgSes9PAYEHkySfxlbrXnY0lEKHi0ysY/caZHnwyoNX61xqNS9KdGIpSulXCorH5nCa9HUXWEbDRkTsusJnMdNDwE5znzXjymF5K+yhl8vy2OqhSyRyPEu0fjbjx3ZIJ2NNQT4up14YI+yp6nd+VZ0pKhf1vNAscOFXgNBZ600se1CNesbCBlM3EnvHilPZzE311yExi7fwzkMm3xzQWjiEX3s4TB2Yn5HK2gCupYAsG/jNzG+pkz11Xyk6acBJL/efx07uV8+8Jf9l6NrvVfef6L7d957qJv+Is5TiCY+yh7XpL7s3nz9D5gzyYV+IsKPEulhyuwbhSxy9RNW8y2g2fL1ic2vB2OAi12qAJUOgocuHEa4H4yj4bb4xuRTDSEk3RSBliAGwkX0Bvn/rg7kIPmTWH/fWkjcjRuInDQ+d957gIF7Wiop/TyBMrJj7LnDlF5VmZx3zf/ckE6skUF/pgCz1DpZYvyN+JTBZKL1vYTvHxlyrrQ5yP064aTOK3ExYKu8WN4tZE6DZwaE3rD+Giy8mEn7DjL/33w31zR/8BQ9jAlUMDW413rGx/z6gkkftvLjYj9J8bIAOfacKSG3pmzWE+f9g67CoH+UUOG+0gn70jMHkwjqDiGtUYtPqDPMq6PC1aQMePafxD12Ltgjrs+KjSGE7iAcmz8Xy3H6TwHnTGcuokhcQLaYY4fa4Cc9yh7Mti0ZmKqwz9IsAlEMxV4NgUeXenl4suNTNUp16NciuNKVFerMWHr70wFwHe8HY5WeseR49hX1/ixYA4bBmnonNPJf5WmjPWO4Y9kIC8Bia097dKS1G3a6VOONhmZpD/s3pFcwHYuwT1cYbtb8/H6MGEGMWUKOMAzfCCweeaITnd06EjTzbq6I4S6+MkBOsQJ4LHMH9hUNSCUL2j5VL9P3PobocFIOqBFDXmxV+NBb7suBgeeahAGK92KPjJp0JRme+X0FeMaID0eZU8G61YXyLyEbewB64m0UoGXV+CRlX5zjZnZ95zcLcWuvWiI+vPl65YdztX39AU/Vthhw2ANi3J5S0zP9KvvsRI07B7P2fhRMk5RNBnoJtDVlgAGH4m2hIFozqghG7H5K4rFHYNJu0YWGughEWJ6HUg+G7uYM5PsBd6CfsiAcd2vTaxhgadmMOflMMePGKEFT5DUwW3dFWHwDqnOTIEc5/BRpuLLVXyU/QrxmndxVsZ50pQxdqjAX1DggZV+bAi+P4SaYp+M4/3zuBrhohXvco2GYYcz1ZQROSbithissvKkSVt9g23D2a18IAUrEblnWjqO67TwmL7aygltYCVjEKp8HF6GpQ2vIW/1DxjwbuE8g7p2c003KPBWQ4SLhppTt429mqWX8oxMkvuistf5s8OW5+68KtEOdZJCZisTxQ6vls2emMwNpAYieCkQoEuzLWgjnzTrwKPslUXr7Uip29DkcroNkF0q8EoKPLDSq0x6jdUta3dNit09wadvcNEHn7oim4ENvs8NXDeM487e3HqBi51XbyE8L9iRHddp9eOEf6uhyuDwyiB0Bj5aZ5JnRvOZQriMiyFesIvWwA7k+U796p66bexOx3CgN/Ezj23cicg1/0rIp3/n6EiZ7LjjSH3LkMboiThI0LbJoMh3qMGcGiAHHmVPBnNrx2noeuWeZsajhQq8lgKPrvSilmxRUCN2F6XYY6eDjjTjSoXtfIeze+8FkFaWI5guad9IfZ13dh+PY+WTOzVQRikc12n50d7ZQeGMADc2Ch8gAU3kM95SVlEkZBAzZuGQGTZiJXCOSdzdOg67zIxTpcJkNOCvkHHS2OxQzv/KbhfXmcl4TPLT1Q0QbHdeOc5NR/8+psdplV45h9KG3HlqujZ/0q0kdBMxcK4LkAOPsieDqZVnRx1a6Vg92KMCf0KBZ6j0IiRcipc2itzcdPPyrnbs7WNujTscK0jxZrNUDgdclLW+kfry7+w+HsfKpyU86Hycz/6/8I4r04SWHwVP2vlK0hHrSKOCpG6IDnwUsswZcZGY3RqUujzzlAkQDrjqxmsTMKmMevpM3SpM2kGej/MX2mEkbxgk/DJuRvUUgtPSX3Vb5wUpHm1aiAIHhHBdwDyIOs8cQd3udf5s85WwhfjI+afte2nrSRB+ovGKaDiwQQX+igLPUun/ip7MwxWQfd1LjthkW8W++/FIBX5Wgd0dxs9GJToVeCYFWOmfaTX+EpdW2WW75Ruov7TAr5IL37m/ykqR5w8qwEr/g+K+ObRssfDi56Rvfj4wfSpABR6lACv9o5RnXCpABagAFaACv6EAK/1vqMwYVIAKUAEqQAUepQAr/aOUZ1wqQAWoABWgAr+hACv9b6jMGFSAClABKkAFHqUAK/2jlGdcKkAFqAAVoAK/ocATVnr9e6z8znZ8Zbva659mw9e8N/7wF14VKP7Ku5odv1oHrY/z/IMuT/wH46qO6BINP7VWuvnYxaPI4hJddFwNBo1orLy+bYMli5Ph22CriUE7GiuvajNSlU9Mj0adIz0ZqrNmH1qoABWgAhcVeNJKH3sb7IFYXHTfdCfcDKU9KpD4uEupcWUg1dnimwtGEUuhYN1vl74k8SOtoArqtCJSR66zQLGuezePDZ/m9a/dvmD/ipfzb+Vv4p6nmn0AZ/N0t+TCFhWgAlTgqgLPUulhR5P9Lyo0FFSxRy3NTrYs2djgdzi7p3gWoNJR4MANTW0D/9qMhtvjG5FMNMrj6o3gnN8l4oh0yW85FpOjsXT7R+NtCd0SLGhH49JsfYR9u7Ey/5gejYbT7D+XUYvLLhWgAn9LgWeo9LKBZQ1vhVg2Oyv8uO3JFKv6aLWl8ZsGGVndMbQAsZ6IlPgxvNpm3Q2nxoTeMD4yRV9x0yJ+Yc2Pav03TvRnX2SuZ1z9C0wPeaE/U3bdXB/nhBHc1jNIO3hbwpEbjFzg1Yc081zG9lTdjAtLPSBkDCcOOjkKhBIHjJ3KP/Y7n+twlbH4K8+fo3idEj2oABV4RQUeXel1I69bV9nfZGsbw+o6yqTb7FNz3M/zfzZ3OFrJHEeOY/oaPxZ1uVHrnNPJf5UmnFcNwx/JQF7CJzJIu7QkTZt2+pSjTUYm6R8VFVIL2JmPwNXhgLWII1iG1QA+BczFDnxcZyONE2Y2lyzBS52gt9YtoMBTbcLA6etZMpZix1/mt1dOjyjHG53P1ZnrCZJGnLNXMehABagAFfjvv0dW+s2eZWbfY307hv8JF4cwz9uhW3Y4/p61L3/ARqN4OGwxjv+uhwrShqErsFkq4h00eEgz7B7P2fgxPXRmmBvOta7Dp19YBDKZurkGgl4w7nzWOBnwaEtwXDhnM82tLGS4uyIM6HwnPSdCk6HzmRyaYc4oHFTZuATCzAYVoAJUYKnAAyu9bldQUpxf3ZHdCpUet2kt22XPk+lq2OFcrfQFP+LvNuqdPSZ6o/LBfVxG4GXpOK7ng0dwlmZOaANeH50CHB0uTGmQ1jyzWqt3CzvWo86IQLc3EghV87usCD7COr4L6P1EEUsgibm9vqOnRpGQ8eoSdj7Oa32sbJvP4NwjNC92qQAVoAKmwAMrvRLQPatu0bs9TuzuCT59A40++NTV3gxs8H1u4LphHHf25mZ1KffmqDT63tPzggrkuE6rHyf8Gw2O79Oyv9bH45t/9rLlSH5c4/joLUdHStHGe/aFboGbCZnJQawXUHv+gXSfRudzEbWSLa6Cs7gTKz7sUAEqQAVAgUdXeqGiW1fu2btNrmzJ0JFm7HyCNaB2OAfe05cPEIZau416ZweRrVn5RKUplR6kcFzP1I9KP/Kdohw3CGDgSDRfgko0AMFFabp/wQnv8e3+vLXBkdvb/v1EwAM+/RRSfBkHd9RNKV/lfzvLizM6n0vOeXZULxXe16kOsUcFqAAV2CnwDJVeuMHWtik0ulPnJqebtXdt59bPTXNv3+HYlh8fskaFE38HHJ8MZ9fuRxI89Ty8gVc+LeFB5+N89m/3Oa7T8qNElna+kGXyOtICHEhNrNBNoHD/OH8B/x2fLU4iHm9pjau0go4sYejWxBGZXKCccPo8wP84uYueGdWXzPlspxVy6eWnRFrYogJUgAocUOBZKv0BqnShAm+hwF3vkN5CMSZJBajAZQVY6S/rw1Eq8MsK8J37LwvOcFTg7yvASv/315gZUgEqQAWowDsrwEr/zqvP3KkAFaACVODvK8BK//fXmBlSASpABajAOyvASv/Oq8/cqQAVoAJU4O8rwEr/99eYGVIBKkAFqMA7K8BK/86rz9ypABWgAlTg7yvwhJW+PWkknuFS7fXpI/ZcFX0ySfi3R6jkhAqUD1aR1YYxmwAGf/BJnbE6R8qkCFys/kCXbtQg8RN2GdLthaINI9HIXnAjcpm0tl5PapUobVSAClABKvD0CjxppY+CpSXceli7tD66E/4BsrShlA39capVPZ9bFgiCadE/f8IwRgHz3CzccFgGlnHVaYd/1K45fnx48pCyEsrIX+fT+ctvavZ8kDnbVIAKUAEq8LoKPEulh+d/1oKoZUrrEdQuq9ZW1Ip5PEW/16/qI73uMSqf18nFgu4qbncV9BX8hTsMhdjhH7VbjufTSCFT3gDseepT5BcC9UzZpwJUgApQgVdQ4BkqvZQieCMuJSjrTBakrF32EPp1oS+P0PcVwKm7ilt9fGYeNwUzHbzV0nHzLq6P7/CP2gf/z1HqI53d/OWvwiAZWBI380gFqAAVoAKvp8CjK70UpFZSxBSVXuoUvEuN/7eON9/FW/VflLYoe+qgMQPJ34AvppXlvDYOzhEg0rgQ1+ft8I/aPcdR6r3rRw+Dxw1Pc7HBmgFOZpsKUAEqQAVeQ4FHVvpNLYn6k19CUy3FrgU+GmKeC+Fs0e/Zxb2B9uYKtphWlvDaeHF2ZpJChBLe0Vm6r0Z3cbs9VNEfeI2Uw2xSNU2XPJOaTPYbrbSyRQWoABWgAq+kwAMrvZYRKIQum9hXJa/WLC/cYDWAyTD9F/w6gFROB3UqeOyVFcf2bYnl2azj+twd/lF75v11/jh9ehcJaCj4RoSH3n49TycHf3BnkwpQASpABV5GgQdWetVIa0ktsGK6UunxbXmvhL0vYQQyg2wCyMR0mlZwhTs5zQZA3cQdc3b4R+2Qo5T6s6csdtRzXen1s5GavQTGiXNutFABKkAFqMALKPDoSi8SaUnJKrMriFDKSu0upUywHOrzrH9NVpwl3qUAUNu+zt/7K7uy6shnF9cmiOfqBueoHeX5On98fMTNjSCEKKK2CwRMkee8JODIJhWgAlSACryYAs9Q6UUyqD+7goilzMp1lCwZGi8slmlGq1Z6d5cjFL6cUcyD4bIS9wVHiD14i7v8woEhT5W+BXCiYs5ManVvKatbg8mpq+8+9CTZpwJUgApQgZdR4Fkq/csIRqJUgApQASpABV5KAVb6l1oukqUCVIAKUAEqcKMCrPQ3Cjbc9dNx/C8Ab5f/J/geNmdRASpABagAFbifAqz099OSSFSAClABKkAFnk8BVvrnWxMyogJUgApQASpwPwVY6e+nJZGoABWgAlSACjyfAqz0z7cmZEQFqAAVoAJU4H4KsNLfT0siUQEqQAWoABV4PgX+QKVvj4CJL783+3jCzGT1Z9jot+ljsj24L7vj2TP4fJmGBL7bZS5TAqtY68N2xhOC4JE4bvHv+geKBQWsMSIW5AbPKLoHTwjolFTpnb3zj3xtQjCVLuQGcGurP0BomxMHqAAVoALvqsAfqfRRIKReQym44dlz9ndzDmS9RJLny57P5UGyUnzcfboxWJxPWqxiAjgUILBLcxPXiVXMerMynubb0a9W+ooJfDoSDN2gs88SsqiGoMszfOcnGCuh9P06n9Rny9Mj8EgFqAAVoAKiwKtWeqhXtQDBgK1wryi+7t0uP/Z6Oo2CIj/yjnVdC+4XPrPX3ptmqbpad/YONQHnp8ddXK+H+lHD6AhM2BOlo08CpauHrCU4xjtSDGij6+mjR+1G/3yastkAiH+Wf492kUpxYocKUAEq8C4KvGKll60fahoWICsXX7h6m0Kh78KzUGvJPH3ab7v/J4X+C0qihyjwbrRg0tsUnsGm0U6OFSjteTMxxfWKLphTaUSExHArpOWmevwGTwE4qHPE6v4jR5Uef36w+xUATz6Mo7HNoTuyTwWoABX4+wq8WqXXgup1zpZHTfF/xHXseAUSlNOn1Cup94KSJXGMYf3pP4knpWUK3U+fYAp3GAMo+OMvxe7jhnvG3FXECBpzrhKNKQd5ap67+EftEtRk15y868eupfQ3PM3VBmsGKxDaqAAVoAJ/XYFXqvSbvVvMsaHPFfdgpXGUz9PH6aT/EeyW8XbfzgQxjuoqzXxlyb12yggheQXnCNRmor3FLcXQpu3yRBTxzBuYFq53D/O8HH/Hq9sjQ/tcxbt+HPdsqlzVeuKZichkX660skUFqAAVeC8FXqjS67YNBdIXSuxRNfE/rs2hVxSf1uxRAKPhuHLM2pLTfNwBbzrKZGe9AboUd/AJrqMOJs0k09FxTnrtWgd4jqkpTMU6as90v84fp0/vIgEFXvOf3NRXraFz5cUeFaACVOBdFHihSq9Lont3LWhiumOlj5UfuKNa2Pvw8a+Gq3Fj2sGGFMCRxxroYlxXAKcCInJAF7GvKyXOKG1A7UjFT3BhGXLsqF3QU5DT2btiR+ANf+A5YosFJyYltqgAFaACb6XAq1V6WRzdwr3Wta+crTf8vBHIxRVPsM8FxErPp1ecmOkTLxe+cF83kOcSyKLjdwsxbmSPbtKGnL77V3aF8FWe4e30wjAaR+0tk4+PKPyC4DcBuzsV5DmfIp0T+1SAClCBd1LgFSu9rA8UZitw/p47i3e1Y7HQBW4VCADH+lvpwb+1GwNjpoxntDG2PzQ6Uavhi2UjBx2a+fi7ZuPl9wAKG2AYZBjFhDQXwIU0QlTR2kgWX53f9AzMyd5hBo6YI4/V3Zyv8Kj6DSan2q0gphxc2KACVIAKvKMCr1rp33GtmDMVoAJUgApQgdsVYKW/XTPOoAJUgApQASrwOgqw0t93reSz6uXryT5NfhWe910dolEBKkAF3lEBVvp3XHXmTAWoABWgAu+jACv9+6w1M6UCVIAKUIF3VICV/h1XnTlTASpABajA+yjASv8+a81MqQAVoAJU4B0VYKV/x1VnzlSAClABKvA+CrxhpW+PXIkvxVc7PollPJbPvlO/8Yen01SgeLxbNTt+tY6v7X+c5dF8ACknpHxd3mc91wmqX+QXXaIx+JXkfou7BI1FSqEat9ZNv3VLQK8mEJjRWIN90wpqLvL7JihOC9rR8FE16MmJIoRbNNw/jzL0M2wzBltUgApcUeBNK33sPbBH4Waum6o74WYl7bHZiY+7lBpXBlL/Lb65YBSxFArWxV02cR/fCqqgzpTAr9HcyC/csuhY77iguHjbTNY6bN2/OdBPlG/CLKZt+MOqhofOjh54NNhrT2Rs7uxSASrwIwq8S6WHHUf2p6jQUFDFHlt/drJlCxAb7Q6n/MotLFoBKh11CtyYgvvnPBpuj29EMtGY71R+j6WQyPWNuPJjuKfTGPk8fZwXzzkO56mBmU2DbginaPjIPY8/dyoE7WgIb7h02idL4RaNlmez/xzzFpddKkAFqgLvUOllg8ka3gqxbEa2/eO2JFOs6qPVpPOdT0ayoiROCxB6I1Lix/BqG3Q3nBoTesP4yJTpY1b7yMHsTll/Bt687TdiPWPBDRTQrce71leMuHWq3jv8tDdpT5/BqUCq7DVj0yEGhnuoI/lLof/ydfS7koHi+ihh4IPyBJdirCle6Sk/jCWhIjWIiz7BCY2WmYeDrO6zjkIlwg1Vo+9R18fKTHw0r8hyPYtWKkAF7q7AX6/0ujXVraXsP7C/jl3MNvyYUrxVft/6ygjg2McEo27IYeyLa/xYUYcNgzR0jrwVDT5luHQMfzg2PrE1p11aAmvT8gfhbTv2CekP1S1yc6/CIzuRcfUTTLcAviTrZg3mOQ8Y60rHBzSFmOJxh7vZA1+sdrtw+tRCLyEUSP0dBTvIU+wY1v0D36MfPyJ8EX2nw4Cu8+wccTqKc4WnzG+vnD7Td5nGufg5hJwdJ0snag6qcKz/NIkGKkAFfkCBv1zpN3uKmX2v820R/idcHMI8b1du2eHolrjYOwM2GmU9HbYYR60/tDEKbIaNDbrhhd3jORs/RgW0iWFuOMe7Ekhezi0YKMQOH7zEJWbrPYBBeQaNirh7rKx8bv08fZxOp/NXVEgfcBRHFXucBbqmowfMxr1YujnIoSNG9qjTxBpNhrsrwmS+2JJZNZ0pzN6gBPQLopZmDbef186j4igYIG4ZY4cKUIH7K/CHK71uJ1AiXLzdViX2eTMHqwGEYYdztdL3Tdhw+wbudHd2H49j5YMVQkbgZUk6rueDR3CWZk5oA1lQg8WmoRTUvZFJfL+riRhjMS7puSIgAdLuOvgxC9Dwcx2cuE/3o9mlZ3yk1V5O1CGOHjNEsNOpLUSD3xG2qIHUQFJnmd9eKddM3dyTQw8/z4gctrCD23Z8g0kzFaAC31TgD1d6VUT3lNymxCam1R4jdvcEn76zRR98qvibgQ2+zw1cN4zjzt7cel6x4+t7QM8LbjIc12n144T/bwYJpyw8zgQXHjqS/HcLtgMSe66v4/gxww4/18EHvF/hs5ctn/H946CQdx8CtdVhxHGCHtZBrB953oun4ICeNZpzmI4X3IQ/AE5TaaACVODuCvz1Si+C6daStW63CYk9vKAjzdiZPidr0wAAIABJREFUYBve4RyqTIA/1rRv4L7UO7uPx7HyiR2/VA6QwnGdiR+VfuQb6P/YkGhDXAm0wgeXumQ1sSSiQLFiYa/uroMfw03zlNmqid8aAInWvMo/kW9o+fciPX6r9MqtpSg2cMf1UkWu6XwDO3MFITQABt+AzWonlPPbTKWZClCB+yvwDpVeVIOtp1aClFTsuanqnuZd7dgnnrnN7XBs64XPRwfKBfzBsGzgTqxv7G6fjpVPS3jQgb8tc1yn5UfBlXa+XIUp4kVDxQBlt/gwA3j2DytKUJhSKnGukuvgx5wuc0dqosV4YbKBXr+pfx99BhELnXyrOqhDsHGqzh6WS75tGOb78YTQhWmKWVuFRA75KZcWtqgAFfgVBd6l0v+KmAxCBaiA3ngcuiGgVlSACvySAqz0vyQ0w1CB91CA79zfY52Z5UspwEr/UstFslSAClABKkAFblSAlf5GwehOBagAFaACVOClFGClf6nlIlkqQAWoABWgAjcqwEp/o2B0pwJUgApQASrwUgqw0r/UcpEsFaACVIAKUIEbFWClv1EwulMBKkAFqAAVeCkF3rDSw2NA5Bkk8Ze/1Y5PUBmP2bMnlmz8EwceZGIzBtQav1rHQ1E+zvqTIhFKTyn566XK6lnONH36i5CNxuKhw/f+4yuM5Q9CrIIdlEdWYNZ1sy5fF0BhyreIXIC+5xDQjN80CHwYdE3AVK4XWO62FoH2bw0I/DN6Bu1oOGE16MXoKtjIY+xBLxrOM48y9DMqZQy2XliBN630cU3AtSMbi1/Xusm4E15E0h5O4uMuF2vcOD22+DaOUcRSKFjX2T3b+RZUQZ3p+Sk9v39NQvByc7PetwTCdVmQupn3zRMWQX/ShPnGyklA7eQp/XXWn/yrCynJhcoxu1jvzf3n9Nzwh2zCQ5J6lD23AmDQVN48lbB5sfu+CrxLpYcrQa7eqNB5FWmrbGLWEfcwj+tdp+9w6taYp1YBKh31mTc0vK7n0QR+eCuSicbvvKc/nU5jJeUX58/4HNgbNEHSi2k3K3/zhEXQnzSVfKGz4y0ueb3AhZRXDKDcn/mO179HCtrREEzMEMv7o+xwl194Qv7N/nOKQUw2X0uBd6j0cuJDsZbLIncu6VkXLxeZsi70uRPscI5U+sSP02V1ebobUosJvWF8ZMr8sWNYy7tgfUq6vjGWuZ6x4KY/3uT0iBf7VR6DDNkTPwlt4w4kn5ProvwFUwr9F+7E7gvv+pUs2OMcEHjPsuuAd3aQrbmZzpGTj0uMbsy4HinvhXwMRkD/hDIZ3DsoW1hkBEDhDe7i6i4yPtrS7LQV2+JmGJ/r+R47KkHEh9B4vs0cOjHkozOBkPjaC4zHCLpXCaesTZdH2Z3XhWNVRBxVh29LcCEUh15Vgb9e6fVSrad8uS7kkhjD46puG0Xx1lX2S76MAI5Wet9w5Dj2tzV+nDgOGwZp6Bx561pTKD7eMfzh2PjEFpt2aQmsTTt9ytEmI5P0x+rj2QWsc4Cj4OF4omYkcG81FeK6nkbOJw/48VtwMhaV/uv8EYE7zpAHAzuixZkckveYJP6RWemYwzQBDZ1P3F8FC130FX8N5ScC4tjKxJTIbRPXcMYSRroQPwCsUfw9fvM50kU6VosG5d16DdA6z66JTDZWvUCqJCM3md9eOX0mHoCat10X4v8o+8ywW7pANm7LdinTjsP+X1bgL1f6zbm+27nErptDNGTh58vILTscrRiLKyxgo1FOLIctxlHro7C0wdIV2AwbG1PxgQ3L4zkbP+aWpjPD3HCudisdFFJGFhWjMoa46h+ZDd4O/3n6OJ30P5TdUpkBquJEaQs3MS+/AmkerpP79zB9fDpjgMG4dxsclE/Py8P4MWfXwGmfAo6p4FHiWr5fdmqFHGG1ldLSaIMlrmQbc5zjwSMCTao5RmUt1u6KMHA+3+u8VQL6hdia/qPsLsz2OCsWriLVt5crUNj4Cwr84Uqvp3m++4rVqjtFmLVAj00MLh7xLltbGHY4Vys9bk8Zvm9oPrKz+3gcKx9Iwd6s5tsaS8dxPR88pi/s+DKhvaJMBYlsVDptw5ZBe4W2aYogY6wjaYzILxrp1qAihN83SYA0pvcyHdfJM+v9DDs8mkPCH8pLQNqUpQyR9qXTLSJaw4AEfUAmiMVEAWKsJgizXZHDx0QKcJ0rdnjl0uho07PlG0gNRPAMSOa3F+bZ2Zt7cvDwj7J3fq2fmrYB6Q5NLqW7mEXTX1TgD1d6XS491/OyFdvu2hC7e4KPX+m++tEHHx+z42Zgg+9zA9cN47izN7eeV+yA+p7I84KbDMd1Wv044d9ocLwxrXXBOj6IWDuIn4xMm1Xm57zcTRJb5OtuehRfx/TAdV64u05uuNbv70Ed3ufn0QmnRVuVR+ZZ3as98w2wbVwcAExpuiQCEgHAZyzGIlqEvdhwqMAegS6uVxfcQSxSQIn528SAteCADhHtUXagtmgGvXlMdINEZgda3kmBv17pZS31lM9NYHdxiD28oCPNuGJgG97hrCuTFawV/jjd+obmZ+HO7uNxrHxiByyVHqRwXM/Uj/ZGYKqsEeZwIwBlhkSL5AHCWfgbkFXcmtiYnPk5msfDUNI+EteoCcLkDQwtkmI6TwyWzOJ0EZOiur+T9YGFHSE11tCtygD5L2nv44p7LAV2MNiu0iM5zOVoe3yvAgVCyErBQMWGMmm6ZtCmJwP2o2zWfkCoYD7KvmapVjgLitdKx+LAzrsp8A6VXtYULgm5enHn8CUXe+yAtj97Vy94+wQwZ+5wbCp8Xgg7tQOOfTi7VgsT3Ent7ekxWpVPS3jQgb9F8w3U0/ajoEk7X8hyinrRoBuOAQEIWFthXccV66QM5Af5axRAgXxNycgq+Yh79IwbRnOdMFHIIGY20SRQjAEjMC/zquoj/+pe8y8BImyjNOzi21yiW3CGV7WhNCjJ0fYsMLLs+cZyacNpJiP96ws33++8zQD1xHuUfSduPQnCa3XKxiAb76nAu1T691xdZk0FqMBfVUDuO/71xuuvasO8ugKs9F0R9qkAFaACT68A37k//RI9E0FW+mdaDXKhAlSAClABKnBvBVjp760o8agAFaACVIAKPJMCrPTPtBrkQgWoABWgAlTg3gqw0t9bUeJRASpABagAFXgmBVjpn2k1yIUKUAEqQAWowL0VYKW/t6LEowJUgApQASrwTAq8YaWHx1/I8zjiL1KrPR/HIcsFj0rZ+CcOPgkEH/ixxq/W8aSQ5Q+uCIfK6llOJFVHdImGMGuZhW7G2kab8baEIEDigHGICc+qWePDlMRZuz7SCjTnlGDQzxEwlfMclqms191yg8A/o2fQjoZzVwNedGPgMfagFw3nmUcZ+hmVMgZbVOC/N630cW3BNSgbVNkl3QkvRmkPJ/F3l1LjykCeY1t8c8EoYhH3xNeus0vM52gFVVDHEljqo6R1DuT3/Uy6cANpY97HuXnCHupHRrbnT5Py66w/7adnTNE/Tp/1et2b9M/pueEvAeHajJPrUfa8hIFBU3nzlLvmxS4V+FcF3qXSwxUl+0TsgHk11loqTrZrZMu0jg1sh1O32FygAlQ66hO4MQP3h3k03B7fiGSiIZyks9L53nw30mzM++g3T9hD/cjIJO6oajveVX+4APJML5D3Jr3j9e9xgnY0BBMztM8tTKBH2e0KUA6FJ+Tf7D+nGMRk8z0VeIdKLxeQ3+xfqEB42cmUdaHPHUX8l5WsDsR5tcaP4dVl7jRwakzoDQurycrnl6MOmFdY82MC/60R/Q8MmYtT0r/A9JAX+8bHXTSCyWXB9DPW1E/LT7KzD0ki+CU+MgY4HnBlhsjzlNWEZdyRmI8FyQv/y6PPZ9eM67qMrKcRx8Y1kbAeS8ZHW5qL9OudFs51gY4dVTLEh9Dj/wGMPfoodCc2ZBth5/o7iXCMoHuVcMradHmU3XldOFZFxFHI+sJemMghKnCrAn+90usl7/ujiVOuL7m0xvDYHdqGU7wVwLeOMgI4ZfcWtLEHrvFjwRw2DNLQOafTyTmWwdYxfNj/Pe2v80dsw8lTWgJr006fcrQZyCT9bRcydfzfgG1UtCuA4QA47othzKZUdEpxR8cyYLNw2LHHphnhxZ7ovbPBQWCMq0B+2kgnT6AICP7mvlgXUzSmBPdN3BF2cX76QgeCNoq/c6wuh3pIx2rRoLw+rwKzzqt3Hnm/3FYKdJNme81aRTQR03TQvO18Fv9H2ZPZrtUFMj9btkuZ7vBopwJ7Bf5ypd9cM7sdUOy6V0RDZJsvR7fscLSkLK7UgI1GWRaHLcZRn7JitlHsCmyGjQ0OXSwf2xA9nrPxY26NOjPMDed6V2bma65GTgCRLNq5vE2tmcx8VjiLhZOJKc9iYTvONq4mFlB92kgnZ9fAaV+cWjoXPMYtSVaw+fwEPYSJvtK/sJyXAKXftzGBTbZQUAOnuyIM+u/yDaBjDYX5lHOupv8o+1XWNe/iLlL9w71ZwWKHCogCf7jS6+US76hzueuOU+1jM4SLULzLFhmGHc7VSo/bXIbvG6OP7Ow+HsfKB1Kwd7O96Dqu54PH9IXKIRPaKwpJkIBG5QMDo+kE6ojMKotmhhK4rMeFgnmxsk/0Gp993GmmZ9CmDJrVPdel2h2jL5YkbkDiPyATxNxxHWKs4sPsCHW0kUgBrlPFDq+6LNO6JIpMDqQGkvneeL6Ze3Lw5XyU/Yq4VY3mPDTBZW0e7FKB2xT4w5VehdBrJi9/se2uMbG7J/j4juG6Rh98fMyOm4ENvs8NXDeM487e3HpesZPqjut5wQ7ruE6rHyf8Ww0bGQLGCYQh1kZGgrHzQrfSXuEs3tN3t97vlWkfd5NYYZ2VrJ1vuS6bABuzra+rAhSkibc0EQB8ymcDRbxjHYcKbJm2y9chu8AOYuMBJWZPy6d+5yg4oENEe5T9cg5Bb3YT3SCR2YEWKnC7An+90osieunkZrK7yMQeXtCRZlx5sL3tcNrWHmsCkHXbNo++Mfq8nd3H41j5xE5admSQwnGdlh/nd4kR4bZG5TPPdQI5khZp+VoITuifztHKWWGSxmQWQ+BggDGtT9jG3SSGkBprJFDdc11MaM8yue/iij28sYPB4FauxEVyGep4y7+/CW8zEbJSMFixgTueV5qiJ6MddDzOqnoCoYL5KHtlV3pwFnR7nvhlhB0q8E8KvEOlF4Hg0io7IIgn9thJ6zasG4d9Tplb0g7Hps6fal7AHwzLxujM+obp9ulY+bSEB52P89m/uOS4TsuPgivtfKUoU8xLhsonPSu4hNEAwif1NycXu04ZfKoxcDyQ5+d9OWoMSyyTuoBTh3yKWJ0ZooM36KxipjusSxfa8Tf6C3xziS6EDhWrLRkg5eNtk66gQICeb548uC45Qf8WIdjf53yrcu6Y/qp9J289CcJrdcrGIBtU4F8UeJdK/y8acS4VoAJU4F4KyA1PueG4FzBxqMBWAVb6rTQcoAJUgArcWwG+c7+3osQ7oAAr/QGR6EIFqAAVoAJU4GUVYKV/2aUjcSpABagAFaACBxRgpT8gEl2oABWgAlSACrysAqz0L7t0JE4FqAAVoAJU4IACrPQHRKILFaACVIAKUIGXVYCV/mWXjsSpABWgAlSAChxQ4A0rfT6/Q5/vEX/ZWu35WA9RER65svGHv5CtQPE4mGp2/GodTxz5OOtPdUQoXUjh4LMOrOwvuqg6QjYaGdzy+wHeLVbrJoGrLWE489usy5c91qauzNUQNzlI5Jvwgep2XkkytIrGTQSvOR/hcw3j4njQjoa6Q9z6dL7l5etX9ea8dQISYquqO/FIBZ5dgTet9HHtwl6Bm6FuGu6EF7u0R1kQH3cpNa4M5AmwxTcXjCKWQsG6cz1K9Ee2giqoM/h8nT/w+WnXWKJGV3wlVm7C1vuWQFdi9nVpz7y7wvIbw8Inzqsb5k9EcW5JUjoaQqZ8SzOE3rUv8tlNOmS/zh9jo5414es4cl3/mECHcqUTFbiLAu9S6eGKxSsfC6rY46rOTrZM8NhEdji7UlCASkeBAzfWFbeleTTcHt+IZKLhnLTQfx3fLycAB5qP8iT202nUxM/TLfcTFexKzEl58f9OJa5R973v4k9EMURJMjrRQNd7tS/y+acgQTsaHW47IKTmi3zn3uw/l1Hnzz4VuLMC71Dp5QLNy7sVYrmYbePGyzo3BLSa9n7TICO54ydOCxALhkiJH8OrbcTdcGpM6A3jI1P0FfuZ+IW1vAvWp4/rG2NlDxqlf4HpIa/1jVL7QMKNNhnVHMzjELGNntmH5IaiP7wi6X2cvxxpk6+Gy7xSCEHySBbIezEll3l82HL6DErpbJRC6xxA/dGK9spniT9uS4c8hZPn3I2YbySpaR39R/NEWIGMJAAffZbCDXlGYFwt1CGgjxJc+UmoNVBhv5qKtspYRjTfNTJOZJsKPJsCf73S60ZVL81y/cKVr65eZWJK8dbVkymyrZURwNEBx5Hj2APX+HFCOGwYpKFz5K1r8CnDpWP4w7HxiW047dISWJtmpcUmI5P0jwoGqQVsIRIdgTYXaXkKaRXHuuOjn8OIzTUcgqT64zfWBDuQvs4fQQz461wn4eBDYzVroMkB1dBZ6uaMOn7cU0ImiND9p3BRzi0F8F/rkIlgGLWiAejkjGMthLFaN9Td6Txg67x2veRqFUg9yYYmMr+9Yll3zGPOQleZI+OboRmyJ2AetvxXmcxwtFCBByrwlyv95po0s+8hed3HZhgNWZf5cnfLDkcrymInCNholHV32GL0fX8B1/wu7KTFM+qhx3M2fsQ9GOtgQTnUEUQnHuiXeYKbh0AUsQ3ebv48fZxOp/P2m3KR75Ay1xsDLL8CaQ6uk7u35e34nrDzVMIQFDKU5qLueGYR3mZXc+gQtDKgmSDQvy1jSXhSw+ODDsPUXWsC6Z8tmVhpO/qtR0GJc88nq3Gy+uh0rLzKsCLBopZBdqjAEyrwhyu9XdjzlS322I9hScQ+rl64yMFqvmHY4ZSd8Sp+OPSN0Qd2dh+PY+UDKSghv7OJN52O6/ngEZylaarIhPZayVj45G7o4W6u9DnRkEeakV80Mn9pwStJgBJpTO9lOj1+W94I3xNzHRI+KK1iV1syCfzOI9MdkZpDHZdehnBuB48JFWx0ptjh1fAbn51uDUTwDEjmt1fKcpV5j643QjdIkDkvQg3ON9BZgNBEBX5RgT9c6VVFvSbrFrS7hsXunuDTt4zog09dsM3ABt/nBq4bxnFnb2690OSeLACeF7zDdFyn1Y8T/o0Gwesv3RplIPfI5Cn4TgJiOU83jX6d53MFd5Ovz9ejkhskPGadF+49/q5i9QVwAIf3/vLY+Sz06Tx6/+fe02dmRfSqVxnSHDtByXGR1yF9lqJdNFY+qm9eBBdn6mAlW/wlL0ikjLFDBZ5Ugb9e6UV2vTTzMt9dxGXLgY4048qG7W2H00pBLDxArkpa3xh93s7u43GsfHKnA8ooheM6LT8q/cg30G9tBFxMxIADX5zwNqSXaZ0r84JPJJP5eQCPGC7z0rurxWmV3hYFborM22nHXImzqFhZD8PTGppkTmijowtRdvjiEoExyRlCLeCiU6fM1kzW1vF9iIg/tPWrSgN4Z8MHdNCm8wH7OvY3rJD7Zlkvg85nl/mv8ryMxFEq8BQKvEOlF6Hh0q07aa6C2HOz0v3Hu9qxN6i5Ze9wrFTC29mBcgF/MMR9NHjJ5pJBwzw3Kp+W8KADf4vmuE7LjwIs7Xy5CnPICxaI714eEeD12/8VXzdTCx4DC9uMHwkAe8h33PF5WoGtbKJnkVDvYO1pCHw6AI864O5yBEZwZwNZ4e1OhQH8kkEwbuCSn49F2PaXCUjtaHsWBgOjzhHVpZ75/K+te53i9I9SG34FJBfI7m6DizZgdBmkiJ4e06mQQ2xRgedW4F0q/XOvAtlRASrwLArILcO1e4Fn4UoeVOCYAqz0x3SiFxWgAm+hAN+5v8Uyv1uSrPTvtuLMlwpQASpABd5LAVb691pvZksFqAAVoALvpgAr/butOPOlAlSAClCB91KAlf691pvZUgEqQAWowLspwEr/bivOfKkAFaACVOC9FGClf6/1ZrZUgApQASrwbgq8YaUvT9iAp9JUe318BzzkJP7StvrDX+C2AX9wSDU7frWOB3wsf3BFOPis5zpNVR3RJRrOb6Wbj/3YESSNxZJgSzsY8+kql2WGKQX/xxL6LnAsRzS+i7Sc9+M6BO1oOA816HrhUoVbNNw/jzL03KuWXNmiAndT4E0rfVzrsCfIxuX7hm5i7oSbg7SHk/i4S6lxZSBXaotvLhhFLIWCdZ1dYj5HK6iCOuNxqS5QHfkV2l1QD7qxb8w+az7ePGGG+GHLZl3uHPXndNjwl4BwDeZFuPHHfDdPv0MXtqnAH1TgXSo9XOGyH3gBwoIq9qil2cmWLX9sbDscrdEZIE6aAlQ66hK4MQF2NL2TWGCG70MbkUw0xp1KyNnq/q+wnQW1sBv7xrynevOEPdQPjcRyROMnAv2cDkE7GsIfLuVxWvlpFm7RaPk2+88xb3HZpQKPVuAdKr1c0FnDWyGWi98KP24DMsX2D7TaYvlOIyNZfBOnBYgVRqTEj+HVtuNuODUm9IbxkSnTx5r2kYPZnbL/Zon+bIqyB40CBWw93uX+TNl000jOQSA8R4VbxrXEIgff133yyBcxA2sy7m85JHR3N1mqbortsfuEe/C3dAMJ0y3/A4FLE95oDKZHGkfXZdJI1wV1GMs1gvrVYt1/51nDjQXC8BeSrczEUflUhS/M5xAVeFkF/nql162gXsrlepdLfQyPXcP29ZhSvHWZZYpsLWUEcHRglB89jH1ojR9njsOGQRo653Q6Occy2DqGP4g3PrEVpl1aAmvTTp9ytMnIJP2j0kJqAduoDOZ12GH9aHOgB00N5mtgDAe5pCniRASZ6/6DDMIhv419MmtYD1A6E/PZgHxu5G/ui3W0FXBGmRIyx7jpcaiFMFYDR6gbdRb+SRIqPQYAntJsr5w+Mw/AsSQ13OyfFoyfVpP7UsT0ZYsKvKoCf7nSb65hM/vekuVB7NqLhizqvD24ZYdTbwHyxAjYaOTYMpAOW5QjG5F4pl9siCWI5mMpYxpiCVZ1ZpgbzrWuw6dfWJBoGIGZToG40szMYEZi99kysnHc2bs7slzC9Qlb3W7kXwMDag840gePxX+aoEZX2hh4E+uIzgiD/nfiqTCfckrYeVzDXUixxi+OgtFvFIsDO1TgxRX4w5VeL18oEb5Su61B7LZ5SDEYrSyAOF0HdzhXKz1uf456c2HKid6qfCAFJeR3NvEfGb6Xe9p4BGdpmhYyob3yxsJJxNHhVoZkCizF2F5jDdI9wKzRpviSDS9PsE06Wun79IlFc2hkJJXv8a+BUqFqj6z2ccPlaCMjZFSZ20Jc0TlRZG4gNZDU57bzSpcvpL1wQ9eSrqwWg/q/WM3OLhX4Kwr84UqvS6T7S92adte82N0TfNqGnoUCfOrZsBnY4PvcHuea3cfjWMPGDquEPS/YeT2e0+rHwP1mw/F9OvadapK0cpI0fZYc3RttY4vPCQhljhgQp27s3XytnyeCgbt+GCpHFvdEEmDFv6abeW0CbMwzjQMWD51Bv6Gzg1i8gLoXT8HJT3h2J0dPtpIqo7IOAFjG2KECf0SBv17pZZn0Us49dXfRl60IOtKMnQC25x3ObvMByFVdE+RFPegFZX/eVT6xw5ZKD1J4PKflR3sHt2KyD70cEcDICHRTZ/8+IMQp/ogoA+DnQwgJefnwVjhPPBytMZkV0+NKJ08hndEn3It/TTfX0RamkfB33M6zJXVzd7EumLpq0ihc0EElcd22+txKEggdxQQVS7RVPsWBHSrwNxR4h0ovKwWXet1JcxnFnpuY7iHe1Y59tJxb6g7HdmT4IHqgXMAfDFf1bFuwkvhoVT4t4UHn43z2/5jwDdpp+VHQpJ0vV2GKeNUAOKmbzdI9ticM/vnht7Lp0xtLyKuRlzQsgQqe9pGF64FJGUlVIkW4gFOHfIpYb+Sf7rCOfWEc/37r5bfFlS5kdURnpHP6LPwBKZYF9T7aBpxU6sLkQiL9Vkueo2xRgT+kwLtU+j+0ZEyFClCBGxTY3WndAEFXKvDiCrDSv/gCkj4VoAKXFOA790vqcOxNFGClf5OFZppUgApQASrwpgqw0r/pwjNtKkAFqAAVeBMFWOnfZKGZJhWgAlSACrypAqz0b7rwTJsKUAEqQAXeRAFW+jdZaKZJBagAFaACb6oAK/2bLjzTpgJUgApQgTdR4M9V+vybGni8hjz7JB6x0ezjwSqT1R+tok9Picn6IJvE8qeE5ENM3KKPWylxL5xRJXhgFWt/0ogNhm9/qgo8A0jjAtaYI5ZMqzxbaMsUUPx5NFPgK3oWCBdJKU0jRtTMwVS6kDVMWluB5zYtDlABKkAF/rQCf63Sw9OwpAhEgZB6DaVgPAwshmGN81bBjFrpA8h6ifR1/sDnhsmUKW5MhijQ1GK1YlKAYMIIsorrxCqmko4IX+fzZ6dZnyLYYo1uxQSfSzztWcQRG2Z1nX2o2wX94+MDMxttJZTifp1P5y+/8VhF9Ag8UgEqQAXeS4FXrfRQ0WHBtCrodj+VsmlCrygO0+3yJPDTaRSUz1Otr1rov/BZu63S27NZL9UdrVdLBxlZDmgMKXclqSl5KIheJz3JSZ7r7+m/xfOGOyqn1vW3tM6nKZvuOAD2PI8/WNi58EgFqAAV+AsKvGKlly2+vUG3pZBNPksj9qxcyDu+eG0KRS8HhqI//CHV8OP8BeXVQxR4N1ok6QGpCJ+Ng+nkhLyZmOJ6RRfMqTQiQmK4FdJyUz1+g6cAHNQ5YnX/kaNKP25QNLPuVwA8+TCOxjaH7sg+FaACVODvKPBqlV4Lp9eztgxt71dX/5/gees4WkCFAAAgAElEQVRv3oHV7IJy+pR6Jb/WIZGzJI4xrD/9zbKgbehGxPxNlrxNkcGaANwv7OMu0m35RNSOvrl7Cn8kdJCnzt3FP2oXnia76uhdPyI/b0dqlacN2+BqxKfzSAWoABX4Wwq8UqW/skdnBbYlEvfY0OeKe7DSOMrn6eN00v8Idkv5D3kxjoouzXxdLfNxPgkheQXnCBQuc2ItbimG5r3Ls6N3+VrQ7B7meTn+jle3R4b2uYp3/Tg+NVDlqtYTz0xBJvtypZUtKkAFqMDfVOCFKr1uz1AI64LIaNRIHaoW6ZVK0CuKwzV7FMBoOG5FzGk+7oA3HWWy57EBuhR3ZBhcRx0siQ8+HR3nXKd8gOcASWEq6lF7pvt1/jh9ehcJKPCa/+SmvmoNnSsv9qgAFaACf02BF6r0Kr3u0YvCJfZa6MtbbvsovMw7WGnmAjJCjWph78PHv8pgQeWGs0ZoDZ5roItxPUOcCojIA13EPieK3lMbUDtS9T2oc0zq/oKegpzO3hU7LvmGP/AcIcSCEyMyG1SAClCBv6nAq1V6WQXdqr2m2bKstvlSgNYbfrs3UCzxBPuMbKXn0ytOnBc+scSN0YMN5LkEsuj43UKMG6qgm7Qhp+/+lV3J4CrP8HZ6YRiNo/aWycdHFH5B8JuA3Z0K8lyfOp0X+1SAClCBv6bAK1Z6WYNagGtvrJEVOH/PncW72rFY6MRWgWZoKz3nUxaZEXDMlPGMNsb2h0YnavX8jTwdmvnonc/pUz/DyNkKG10MMoyd5gK4kEaIKlobabo0PQNzsneYgSPmyKPf5dU56lZNMNVuEW9YmaDKBhWgAlTgpRV41UqPosvezg0cFWGbClABKkAFqIAr8Acq/fTm0HPjkQpQASpABagAFfgDlf4lFlFuR5avJ/sw4lV4vsSikyQVoAJU4CkUYKV/imUgCSpABagAFaACP6QAK/0PCUtYKkAFqAAVoAJPoQAr/VMsA0lQASpABagAFfghBVjpf0hYwlIBKkAFqAAVeAoFWOmfYhlIggpQASpABajADynw+pW+Pikln7GyefKM6HjpITEGFzDard+Pl6+nx/h6WQqn8C1Wf/hMN+oX9D/OXzv7nBY8YaY8CQ8fOIO/ixd8GhTY11nRSgWoABWgAq+owN+o9FGK9Y/EvCfF0ttlbS5U+q/zx8e5PP9OS27CSPdyTWwTMvKWj7oI9QyTs47aldjHh3MDnkoosb/O+pN8VvxXETM2W1SAClABKvD6Crxqpc9i3epnq3DLSpaT+wJqocefoBcHfBO/q7sJpHV1GbYxzSna2iEftVvi59Mo9anDBmDP0x+v2wiySwWoABWgAi+pwCtWeild+b66108ZtWrXR2KBtpXeZ8jR3xzLLMfs9kDERqUHI44OJmjKtNUNwlH74PY5Sn1Q3c3XpEqWjcxuDNzYpAJUgApQgedX4NUqvRSwWoJ6/YwSh/83rf/7HXV0V+kTKkFsCaX/v9Np/lWb5Qqrt4SMiOoW5vGwvDq6q8hH7U55lHrv+nFFNAhVJpByy2AFQhsVoAJUgAo8twKvVOmtMPWqJFa0ZWnrI7ESm0qP/okyZomhl+4AXDakRJdyj/jzjKMV3Wd2/2D8eRI9vOvH8cmEMsKPK+wDi8LTI4xv7FXvHGSLClABKkAFXkKBF6r0UrMWxVbMWOmlAn7r03uoiaMsIuw3//NaSQ+czrSeIL1y++hRe9L/On+cPr2LBBRyfZszuamvWm+7v3HaPFIBKkAFqMCTKPBClV4V09pT3mWKBUpyFnp9Wwsjqfiy2I2qpm96/R+cvau4CbtsHeGjE3f4R+3Cfwgjpf7sXc0LElkmn19FyCQkMCqbI2xRASpABajACynwapVepNUSFNUeK71WteVIWZJVsYNCOXxbiW3dArjvyCwnhEznGTv8o3ZMQP6E4CMKvyAECVHPCQEJ5DlJDH5sUgEqQAWowKsp8IqVXjTOeqXV3d+El/egdaQWu5ggDal8CRhLWGts7YXT1GhRoaq2kVZwd/iTvcMMHDFnMJkF3TpH3aoJfO1WCj4FmFKkgQpQASpABV5IgVet9C8kMalSASpABagAFXigAqz0DxSfoakAFaACVIAK/LgCrPTfk1g/HS//BTA6/NT7e4JyFhWgAlSACvyQAqz0PyQsYakAFaACVIAKPIUCrPRPsQwkQQWoABWgAlTghxRgpf8hYQlLBagAFaACVOApFGClf4plIAkqQAWoABWgAj+kACv9DwlLWCpABagAFaACT6HAG1b69siY+LJ8tedDaGSd4Kv2G394Zk8FigfYVLPjV+v4Av/H+VN/PO8TzxHh4LPQ/vi2qiO6RCM5WX4r3pD5ajghvtP6UfDvEBpzhFdkG3JF4x+Q56mgQZy0s9c/WIJ2NBxMDXoyR7J+FW3OE5z5M2w9Ao9U4A0VeNNKH3sJ7FG4Cesm6U7ig+2xeYmPm0uNKwN5Tm3xzQWjiKVQsC7umon7+FZQlRwqSXku7/m8eAAvqpEZrK05fqwFi6pCnssd0zGMH/IqCV7Q7Y7h+4l1P+gNfzgLwkODRg88GpvFoyqbB7tUgArcrsC7VHrYQWS/iQoNBVXsUaayky1TNzbOHc7ul3UKUOkocODGIuJ+OI+G2+MbkUw0nJMW+t2jhkNs977P/cxEIuEf3yrkohONnyD4c6dO0I6G8IdLbbyP94UOt2i0fJv955i3uOxSgb+uwDtUetkwsoa3QiybixV+3GZkiu1PaLWTwXcyGVndMbQAcQYhUuLH8GpbczecGhN6w/jIlOlj09X/PujP2Ju3/catZyy4gQK69XgH+i7Rgr+r6Cji0l9eITZ8BrpzHd6LWB7DbutGFF+6nQ47u4J5TPy1P6MTI0m+6FlOxSB2vaH6OGdxl0ARI6Lmp08BKWM4ccg2xus6JE5AB87BRgmnrGv4CzCVmTgqn29TuRCKQ1TgvRT465Vet5q6VZT9RLaSMTx2JSsEMaV467nhW1kZAZxSTwRtbLNr/DjdHDYM0tA5p9Pi0+/iph3DH8Qbn9jp0y4tSd2m5Q/a2/bqE9Ifqn9UZPeayQQjc5EgwCwArJEw4JeYwsFdgI/rbLgxE70TI7QcH+Rr1goq/isddnZdFKeD9VYhMUs/h5BR0CzUDnUQpiyS/Eix//+EOHncgVrn2TkV/pKA+6Mj4EizvXL6zDwAh8RyuOSfCBg/rSbrMYScxRYVoAKowF+u9Js9wsy+d/k2B58ci0OY5+3HLTscrUCLnSlgo4ELoTVjMysLXZnROgKbALHhNq+wYxqSbbAKD50Z5oZzoIuEJpgaxdEmN3tfF6sBq2TNzNjz8aND+hHZiM39/Oih/bizO944Zh41QNgdz/xrr2Fd6WIAZzdNibgx0l0RRmUY6taZ3yaqMPqFUsOt4YLV3Kjxy7hg5CVZhtihAlTggAJ/uNLr9rAokrutR+zzpgdWkzMMO5yrlR6311yiviH7yM7u43GsfHDflBF4WZKO6/ngEZylmRPaQN5YBItsOKBZPJyPIz+3lTruxkY++Wx0lkBjGR1Cj52A4Ap/tztdP+7s/ulASjGiOaBFjfyq2dELtaOdhAp0nSp2eLXsPRGPkihiCaQGkjrL/Pa6tO7mnhx6eKfRjpXVYjA/HGuD7FIBKnBVgT9c6TV33b9y2xHbbk8Ru3uCT9+pog8+VebNwAbf5wauG8ZxZ29uPa/YwbWUeV6wszuu0+rHCf9Gg+D1F1SI5Ie4TgJsC9MYlRFA9DmSWObr1qjobvD8/ehx/Liz7/Rs51Xk53gWt/acy9GjzB53J5lhzTfiBqYn4gYHsX74/xszB++ftDRV0q21KqkyKPxX61yc2KECVOCSAn+90kvuulXkzrjbVMpWBx1pxk4D2+oOZ7e5AeTqzWvfkH3VdnYfj2PlEzt4qUwgheM6LT8q/cg30G9tBFxM9IBmSH7hIA1xyqXSIUFa8pGBRaW3BHLk62x/Zae5u3/GcVpO2I87e6GomINvpZP5ZSg7E3t+Jf9rHf+eoOfRJEM+DuWJeF94DnW06XzA7q7fO0LCRzFTrRpylU/1YI8KUIEDCrxDpRcZYCuR3Qc2yhBJ7FlkdI/yrnbsDWrO3OGMSpPvZ6ESOOB465Ndq3EJHqy0Oqzs6TFalU9LeLCBv233AiDThIcfBU3a+UKWU9SdAeK7i0fU/mLc/HRzt+AReM1HrBtlcEKgjHu+hu2sZArqsLMXdUBPFS3pYH7B5uP8hXYX5pajyZNx6mp1PrmI0nIlgs//Tp+FTw6g+y30zBdwCtMdUiGRTr4EaWGLClCBbynwLpX+W+JwEhWgAj+ugNwXHLoh+HEmDEAF/qoCrPR/dWWZFxV4CQX4zv0llokkX1sBVvrXXj+ypwJUgApQASpwWQFW+sv6cJQKUAEqQAWowGsrwEr/2utH9lSAClABKkAFLivASn9ZH45SASpABagAFXhtBVjpX3v9yJ4KUAEqQAWowGUFWOkv68NRKkAFqAAVoAKvrcAbVnp4rIc8HyT+krfa/Skjtrz2vBJ9DsnGP3Hac2figSVr/GrVCDJDfyIkQikJ4VBZPcupp+oI2WgkM8tvxRsyXw0nxK0tAFY9C7oNVmUPBJBpgRNpRuMAwnEX4H8zz0NRgnY0fJoaJtHCLRrun0cZ+hm2GYMtKkAFvqnAm1b62JNg78LNXDdbd8JNTNpjxxcfdyk1rgzkumzxzQWjiKVQsG6UmgR9ilZQBXUGsa/zBz63LemiGtesOX6oJdCxMH2Gct0Pd3fvF7qKIRHmfN3/Dsd+QtwBckBs+EM24aEzogcejc3mKXfNi10qQAUeo8C7VHrYiWTfykIQu5iW1qilYrZOtmyFYgPe4bTHosa6FqDSUZfAjQm4r86j4fb4RiQTDeekhf5LKmIoO4YWpnF70z0d6/BRWOQCH5520bFkFp1oXJz7zcGfW/KgHQ2hWFcET75wi0ZLqdl/jnmLyy4VoALHFHiHSi8bD1Qa2ZayEEjPurhd5T6HVpPUd8QdzpFKn/ixTKvt0d1mEjEtG8ZHpkwfv9pHDmb31P23UvQ/MGQuahQooFtGOtxyiRb8XUXHMgaD+zhkzV/yGeg+Ft4e1aH9CCFcBBkyd0epCYdVGEUABzxy1KAYTiADCfDRR4FlDI01rapf4gT0EXLoU8INqTA8+rZ2ZSaDyufbVBo8u1SACvyrAn+90uuWVbecsi/JljSGx+5mVSamFG9V27fEMgI4WjqwZI39co0fC+iwYZCGzjmd5rfExcs6hj+INz6xZaddWpK6TTt9ytEmI5P0x7sFzy5gF3SihnoewMznj2PCJAlA3PBxnQ0XZkozIQHImgjn3OIkgHw1YccB+AnwiqHGg97X+cPhNdYQyOHAU001Laj06CjtI0J7kDwGoMT5n50PQS/dFi2Mn8MKc2kd0pUtKkAFfliBv1zpN3uNmb3Y5PYqdu1FQ7SftzG37HDGm8Rp4QI2GsXFYYtx1PpDG6bA5tYcG3fDC7vHczZ+lIxTFE0Gug3tYhcJBbrPqFHcOrlNnyqDhzQzY8/HJfMFBheLko7WF5iFbhDoH/9bAQP04J54U13M3RVh8LP2qmSlHfDXGwqjXwS15a7hLsyv8YujYODJVAbZoQJU4NcU+MOVXreZaZ/3T2tnhWGPhM0LrDYlDNLICgF4m4GYiNt0Tusbu4/s7D4exxoWUvA3v177bCd3XKeFR/ccx5zQBpbpOyEHtL6H81Hk5zZbm3ZfITDtNTxkZMVgZx9hOpPqHryqWXqNWLK+1kqoQNcpYodXw7+BJ4BI04Bkfnut1HLy5p4cenj3a8fMrQ1IdyR4KexiFk1UgArcW4E/XOlVKt1rcvsS225vErt7gk/f8aIPPnVVNgMbfJ8buG4Yx529ufW8sqYIgOcFNxmO67T6ccK/0SB4/QVbfvJDXCcBtoVpjMoIIMacnX04eOLuX92DV41bez716NFDBLhM3KxLYH6LZ8y+uSEcQU6nfAXngpvwB8ArQBymAlTgBxX465VepNMtJ2vdbnMSe3hBR5qxY8H2vMPZ3UoA5OrNa9/YfdF3dh+PY+WTRQUooxSO67T8aG/EVhU0Ih1pBFw4e0AzJL9wkAaSHQOCFPqjswyseO7sY27lcegOSabg7RKyONb27z8CX0xVA8TJZ5ArniNflcRP1q0+x5ilFxA6irlZRTzPEp8tKkAFHqXAO1R60Ra2pF0hEHtutrrXeVc79gY1t+odjn9mGW9oB8oF/MFwWbf6hr89UyqflvAgA3/b7rhOy4+CL+18uQrbyKsBiO/DHlH7i3HzE6/xisBrPmLN5fAovXSHvYJICMOvMMgrZnycv9AekDc0LK1CN+CFyTm+HQHmpkOOnD4LnxzItG7gFq6AU5iGQ2sUEjlWFjrNbFEBKvAoBd6l0j9KX8alAn9VAbkvOHRD8FcFYF5U4GUUYKV/maUiUSrwTArwnfszrQa5UIGLCrDSX5SHg1SAClABKkAFXlwBVvoXX0DSpwJUgApQASpwUQFW+ovycJAKUAEqQAWowIsrwEr/4gtI+lSAClABKkAFLirASn9RHg5SASpABagAFXhxBVjpX3wBSZ8KUAEqQAWowEUF3rDSw+NB5Dkj8RfB1R5PbVH54HEuG//Eac+d8Qe0NLPj16jxqBT9qZEIFRx81sU1/fVBVUfIRiMoQHrPyV2YBu1oBP97NECDuqL3AL/G34L3uJqonmx1Vdb2kCUaM3MZ6lFmL1qoABV4iAJvWuljT4K9S/ZE3/d0f3Qn3MSkPZzEx12yWOwfrL/Ft4XHKGIpFKzr7B5yplwIGlRBHXGXbkr0dT5/XgC5OITaXXT81uCO/7fAtpP6Am8dbx7Y8bflOPcaDKsUMyXmzp6nIng0kpun5TUvdqkAFXiMAu9S6WEnkt0tKnTuYtqKWipO1smWrZDsdjp9h6NAGSDWtQCVjroEbkzAfXUeDbfHNyKZaAin0vlHkvfEmqkEejRmn3+3/NwSBu1oCFt91P4o4Hg6wqVQyvvODitZ8EGRZv+5TCEmm1SAChxX4B0qvWw8/kZ8esstm1RWbq/0MmVd6HUH1SGZmTto4hyp9IkfS7XaHt2t7aQxpzSMj0yZP5YNa77H9t9c0bfdyh40Sn9XpIQ60rnIOfFTwsZ/DBizkVNJzfydCtSpMeAxMAO3+er67ONH5ZPLXt4JW2eQRB+Fl9ho3PIf9ddwkP1xlujZ4pauZmO0dnaE2rRrJuIkYHA6bebRTAWowC8p8NcrvW5ldbcs+5JsSWN47Hptgy3euii+JZYRwNFKP7Z7PYztfY0f6+ywYZCGzjmd4tdPymDrGP5IpvGJCpN2aUnqNu30KUebjEzS33ZvzKsWrsZG3SNsGfw6f8QA4BsRLPDhtfx8QPzTo1X6KDSZVmEEcQu3Ax2Ux2raYLHJyyHrPFvbJX90BJ7SbK+c7kEWR4SzImzLrHrbugtOCNjsC8RmagHGqMLAArVJ7FIBKvCLCvzlSr/Za8zse+aojPhpsziEed7G3LLDufqevuDHWjtsGKxhUY5s6eKZfrFxN7ywezxn48fc8nVmmBvO1a7jX3EMPl22HMC1AbRtvjKQSgSPAri8dwDwS00MHOh9wv+zd63preQq8K4rC/J6vJpsJouZ+wECCiTZ7TxOnHblx7SEoChK3cL25Dg1m6x2V4SBRvtd+gehlleJ6S98ZsOPTr+wB85uMFcanroT8SiFmQMqQAX+sQIn7vR6zMCR78rWE9at8H8j8didO4KE6+G1w+ktyzNEYMH31akR+EI7qN08XysfPH9lBX7s6HVcp4VXcJZhBrSFfGEx0xH8zSG/5NNlc36K7OQwjdiSANRbFzykJc263OH4NRNAVv8EJiVq1ZeChveC/5anxLefDL9BvuU1mOTmyzv7DWRZSi0WjqOWQzQX4TRRASrwTQqcuNOrQnrW5LEmtt3ZJHb3BB8/CV3wmIOPr9l1s7DB99jAdcO47uzNrdeVPUgAvC54keG4TqtfJ/xHDTVvRld78qyyOR2Lq7O0ZQ9JnM0GryCS1GMjpwpJVdmVzoHsgrvBQWweUN/JU6FbXsGHV0jBYmd3uutrhM/LkhcSzQ60UAEq8K8UOHunFx31yMletzucxB5eMJFhnFiCNZx2OJtOo+YV/tjqdiDHDbCzh4MPKp/oHFq+5wUpHNcr9avyjHod/DNXQUzl/vN/ZSeJF3yqbM7O82LQsCm8tXrL5KAyy5cAjvB9dQmi/z4j5EGKMo4iB4Ne0o4/2IP7VwY9L94QJRcUUOw3kuddVp1W9VcPzqgAFfiHCrxCpxc54UiSUwwO6BBb7N4s7B1yTPXgs09OM3KHYy0FPmcdoDfwB8MlremgDsJtUPm0ggedt+vVf7vPcZ2WXwVVxvmTorSM96cIFDBgBD4taeo8smjzMFKOlECX91bvFK4oGSBADnO/jIWH0SlpAH1fFybOgML/m/RPdN/KKBiWdhUU+6J+NYHo6OK3Fto4pgJU4BcVeJVO/4sSM/UxBaT9HOovx+Do9dMKcMN+WmHiU4HvUoCd/ruUJM4XFWDj+KKA/zic79z/seBMRwU+rwA7/ee1Y+S3KsBO/61yEowKUAEq4Aqw07sSvFIBKkAFqAAVOKMC7PRn3FXWRAWoABWgAlTAFWCndyV4pQJUgApQASpwRgXY6c+4q6yJClABKkAFqIArwE7vSvBKBagAFaACVOCMCrxgp5ff8Yaf+Cfc1R7fMqK7Dl/bsvGHfwpegeIbWqrZ8at18Hq76p8aiVTBwaOe61ZUdYRsDIIflBfcwVYrlChbnO2BGAPxPOIXAV8ZSLIoIMqMwVegp9ib+kzenzAE7RgkyFp/ddSbM0TQkLU9YGOQ+D6SpX+2e56UVyrwqgq8aKePMwbOIjzM9bxzJzyUZDwOO/Fxl9LjykLeWFt8c8EsYikUbFpP2UT+7VFQBXWEk0xTIv82XGfbCza7YmWQOy+u4hn6L9a/1STJQv5dvd+aUdX7mfp2/G37rr0Hw65GpJS6s+etCx5Nm8236zUvTqkAFfgeBV6l08PJIqdVnqB5dsmoHOY2KeZxvmn4DkcPukwQ+1SAykRd5FSsUXhOzquB+/uDKCYGwqlMFiS/WpLgV8EWSb7LVIqJSQy+Kw3ifFUfxKrjoB0DWdev8scbfATBo1Pa+84OO1/wgUOz/1ylkJNDKvDKCrxCp5eDJHt4a8Ry6FjDwONHQtaNXk9EXRL/7DSJ0xLE3bXGj+XVcec0MDQC+sD4aLHyOWu8aBG/sOarCf8bLfq2W9lDSPoXmJ7y1vwuZ8mR+vmnGPb/L9De6ooYsxtziYKYNBbzUgdrTJf30AgrTh26ordKxzWlAtTwnfCGzwjv+li9jj33WVMO2bvvY9eWt0yHsFLPzn4gWa1EAgQMbr8DGHShAlTgAQXO3un1aKqnXzln5IgZy+MUawdm8VZh/YgrK4Cjnd5Q7L/jnF/jx145bBhkoDGXi/9VmrLWJ4Y/iml8otWkXUZSuoVd3uVqwcgk/aMTQmkB27ks3hpOLpgGF7vdCI5GrhNLe9PuzMBfxHRz6bcDyIqXCWjoAWBGrkfGtR6Y7fgMUPBUi1BwOtobB83ScyUI6MNeyTDDbxBveeMlhcpk94ng7Ow3kDeFmVnhjzG8n4IeVIAKFAXO3Ok3Z4eZ/Qz043L3mWM796CF7XDuvqeXwEzr2zEn0pVNER4FV/HMozwOYvCQYdg9n7Pxa3poZJgbzt2p428ddw7dXutKeht7M4s/yBJsQgd/OfU+lty/Fl5ngXJogIwcfQoEPo2IuyIM7GMKoo5fIWqZGkUlpr8gaves09jZne72OlcaroK9eDRinQMqQAU+p8CJO70eG4tT3o+qLpjY8+2Qt2KwWkAYdjh3Oz0e00miHbCxsLOHgw8qHzxPZQV+rDTH9XrwCs4yzIC2kC8snEReBd9FTCuMnACYdNjtta7s3Bv7jXCJgB9n14AGn2qVmft3wnfnCYW7Ml5iJKGGf6MQfMUm4O3HgCS+/dzar6ii5TWY5ObLO3vgrAepxWJ91HKI5iKcJipABTYKnLjTa8V6duQxJbbdWSN29wQfP9lcwJiDj6/ZdbOwwffYwHXDuO7sza3XlT1FALwueJHhuE6rXyf8Rw017xztBPpKt1c5nWavN+w9POYyWOjQgZxOAKqhztzn6FWipX3lpozPhpZ8BmoQH3MHsWlAfY3ZooKWV/DhQ5FgsbMvEMEU4WAbQ8kLiWYHWqgAFfisAmfv9KKLHiF5pu4OG7GHF0xkGCeQYA2nHc7upQRAWneJZLp57YCNDd3Zw8EHlU90Ai3fU4EUjuu0/Kr0o14H/8xVEFO5/479KzvbLnxXV+py1v0VG9i1RgeQySgehvWWKAmyUPBXSMdJjwdG/vuPzqt1ek3gmzRgxQbuuC+m7PDXCTo+QGvl2vPiDVRyieODHPKurJlX9VcPzqgAFfiCAq/Q6UUeOGI2B7uepHnY6pnmU53YJ6F5pO5w7EiGz03hNHRAa/V+Tur+TQfs2NWdfdr0yqcVPOi8Xa/+232OK2FCy6+CK+P8SdJTznsGBHIYtFkSWzlmr/onybT7azvEVp6QAHTYvadHGd6uH6DnvaKX69rLSudGlZEP0Bzlzcpd3gufGuLuSx57YwWR1AEES0XnnX2XpJBOJ78V08IRFaAC36rAq3T6bxWNYP9SAWknpb/8y+TM9X0KcCO/T0siUYHHFGCnf0wvev9zBdgg/rnkP5KQ79x/RFaCUoEjCrDTH1GJPr+oADv9L4rP1FSACpxBAXb6M+wia6ACVIAKUAEqsFOAnX6nDO1UgApQASpABc6gADv9GXaRNVABKkAFqAAV2CnATr9ThnYqQAWoABWgAmdQgJ3+DLvIGqgAFaACVIAK7BR4wU4vv8sNP/FPtas9vjVElbPvPdGojWAP/WoAACAASURBVD/8k+8KFF9AUs2OX62D19tV/6RIpAoOHrXbzt+xqzpCNgbCo/6rqrL0EE1RqCrxUPhjzpLMRe5b4/bHED/hHVrF4BMg+xCo62d0DdoxSDKWvOdVR735UeQIj0Hi+EiWOpqv8UoFqMBQ4EU7fZwNcIZMh7w74WEi43EYib+7lB5XFvJO2+KbC2YRi7gnfvkKu8R8jlFQBXVKpw+Hz/CV4ND5MwCPxEgybzb/IDGmS5pi1ZKLnrn+PaN+w30PqqDs+Fs5196bocqIVDIxA4/GcvOte82LUyrw6gq8SqeHE0HOj+wccZrUXipmO/FzZPdKHJA7HAXKBHGHFaAyUZfAjQA83+bVcPv9QRQTA+EUlIv1cbYSvpDzcaAjEcj1HyTGdEkvrDHIte8bxf58H+RACtoxkAX96n+8L4Y3PJpjFV9q6bjgAN1m/7mKICeHVOAvKvAKnV4OgHij1r/mXA4LayR4bEjIutHriRXHT3agxDnS6RM/bprVMeVuSC0C+kCc9PvQ7X8B+HGpbgI0fpyy/80V/SM0yh40Sv8C01PenI+CltxnfGXg3ARXXEBnYyg1gFMai9mCW72x8Z4bK3ObxviCoEMyK3bP00lbXgfxtJFhLCD1wRT0vylsWTzKZ65EGGF5tdy5//a6Co0HJi1vmQ5VkNYN5MpYHFXllP5GLJeowEspcPZOr0dHffTL+SBHw+rsjZDirbeGH01lBXDsw0s/vbM1KRU3B37cbQ4bBhlozOXif5WmrPWJ4Q/gxieOzrTLSEq3sMu7XC0YmaS/naLO364B27nIXGGui255Az8Bs9MYwdGUdGJeMHSh3pXHx/UtcIC/74sVmeUaUQtVH9+bkThKHqBIf1RpwbgAeQ1msS9jfz3dSsMjNkxb+Ox0GKA1zl+ReMbUv+gDdcmw/YTsjrK6tryRaOynXA7hFF6ZyOQ+hpBRHFGBcytw5k6/eebN7GdUnrNi11kMZOvbuQSWHY52i8VJE7AxKLfWnEiXLcsCrgTLRDzTLw7Q5hd2z+ds/CoVpyil9TWoO1NJoD9JSiO2+M6odcBaV9Br5sVG9WwSkQp5tqhb3XHWM3i9aHcUuy+WuqG73k9LLwf/xBUTAJ+KVFWXte6KMMizRooXFFCTHJq1vAqvv4BqsJXGDcTKqzgKxhdZFjxOqMBfV+DEnV4fdzjafat2R4nYxxkGhwhYDSAMO5zWcj0t9kzAj+V2AN61h4MPKh9MISvwY0V6Pq8Hr+AswwxoC62HOxO7jgSO64uNTOLDaxXxCewyyQbl/BF3xLQUY1M3+1LhZXbbv7ymApVb0qyrJoCI9orGC3n8mhlmdNgxr2skuCEgvm7Z1iXx7Sf27FYNLa/BJLe2vEPKmhceg/MhOotwmqjA6RQ4cafXvdJnPo8Rse3OCLG7J/j0kyfm4FNvi83CBt9jA9cN47qzN7deV575AuB1wXs1x3Va/TrhP2rwBCp4bdxJp4IODh/XN/AQY57ZTnN6SxrpNvV2gTxzAKoBZzWx+8vVV1JkswHrdHdns2DIjaAMPzLyFAV8q8NADMHG3EFsGlBiXtZ1hNjKp+UV/La/udureLVVssVN8AGwrHFCBV5UgbN3etlWffTzsNodEuVIg4kM4+QQrAG1w4k+0G4pgFwd8e0AjOCdPRx8UPnESa3le/UgheM6Lb+2xuzoj189gUTK2DlIotCzwwrtywUbfZUTQGUYOJAAhnXrq0CRGfwVshDdNR3/fUZY39VV0+a+KAFIHoQ+M1jwQWgtzDdg4IsN6OO+aymuw66uz9CUmJ4Xb46juZqKQWVVZyxyQAVeV4FX6PSyu3A01JM3t17seRjqmeNTndgnlXk27nDsyITPNQfKDfzBsBy8Tmw6GH2hXyufVvCg83a9+v+Fd1yn5VeBlXH+uAo94Z25JzC3cgbfwFe/FHkiU5bU2YgCSUCHeq2qEu4FRMDb9WOtm+aAFOPlY9+wAEJ/MWZawAdhphqc2uGrSZF5qnCoQyUpmb2wXNF/w+Hmb7ofEt2qzbx4v5UKdtVPIqaUh+J3uLRTgbMq8Cqd/qz7d7q6pGPxtD7dtn5nQfWl03ciE4sKnFUBdvqz7uyfrEv6fL6V/JMlkPQPK8DXgj8sMOHPqAA7/Rl39Q/WZJ8+s83/wa0jZSpABZ5dAXb6Z98h8qMCVIAKUAEq8BUF2Om/oh5jqQAVoAJUgAo8uwLs9M++Q+RHBagAFaACVOArCrDTf0U9xlIBKkAFqAAVeHYF2OmffYfIjwpQASpABajAVxR4wU7fvsEj/vF2tdd/6zV+M1y+8mPjn3b8HhD9jpABtcav1vGdIm9X/ZMfkUp3+Hn/BZqqI2Rj4N9MmBXg0ldu2PuxTdGkcD/0hzyi9hh8ayIo+GeKDdoxSP6WvOdVR7z5R8DaHrAxSHwfyVLP4mu8UgEqcEeBF+30cWbA2SJnlvd3Pb/cCQ8ZGUPndpfS4yQ4FlL/Lb65YBaxFAo2dXaJ+RyjoArqmCKhg6yEcj/LusiPjG6kxb1Bt50dfe6Pl/rcD3vQo99AD4bfcN/xN3GvvQeD5hEp6Dt73urg0ehsvhWveXFKBajAWoFX6fRwUsjpk404zyIZRS/NSY5MQTmNNFwWVjh6cOVC6F6AykRdAjcC8NybV8Pt9wdRTAzsXL9cLkOh9wt+H+vPMhYSKT9s/I20SBzddnb0uT8OlBjcj3nc4+dukaAdA2GnX7U/GnjqrfZ4jLC9153AmztgY9Cqb/afq7Tl5ZQKnEWBV+j0cjBkD2+NWA6R7Nx+ROU51A4ZO9nUTVbyhEucliDuFERK/FheHV/uhqER0AfGR0Lmj03Dmh+B+t9E0f8hoexBo/R3RXq2e/NgIxJJo999o3xIaBGOO/eFURdobn2kl4s4MvYK0J79SKz9RyJ2duWHi41/KOdpvaCDV4UOzNFIAyvQcx8DV9YwUJByvtMzoAPn0UHLW6ZDKKGxsx9IVyuRAAGLjT2AQBcq8OIKnL3T61FTT7NybsiRMZbHqdQaR/HWm8WPrLICOFOTGMftGj/uP4cNgww0Rt4a1xKKj08Mfzg2PnHip11GAmthl3e5WjAySX87XWtTDFjnkFeBu7zbGz9t9DJUfE3okTAZEQPCvYcIq/o3PBUyeGbgFv9GColJBKOm+Bv+cTOBbqnJsRGWVRrkx/XN0+pmNGI1zu6d8A/125tw4CnD9pPhN6i3vLFxQyeXfWe/gTyWWoJhVXh4KXMfhx5U4HUVOHOn35wFZvYzLY9LsessBnJbzMeMW3Y4d9/TF/y49Rw2DDawLEeOXPFMvzhYG17YPZ+z8Sv2hBs9sMFOU2fzfnm7XC7Xj+g8vuARzqPJFjzHy53cJwgEY9CvOII+vGpiwL9RZaJ61gqPN8gt/Ig+MkCgUKcHVv6y2l0RRleHDjVyUWFPdWfe8iq8/kKp5XMaO/sddGQ+uQq2b++0SAMVoAKhwIk7vR4D9QNNLduPntBgDMQ+H4ZgNb8w7HCmXnATP1i0A/OuPRx8UPngeS4r8GNFej6vB6/gLMMMaAv5wsJJxDXyx2Dw87zuOczxSmDYI0zn4mQ/Y4dG/698bC0AI3Jln/ED2ZmtXwF8ij9AHhhmBTNLqLgR3hLTjIGUUgaUAUl8+7mxv1lGy2swyc2Xd/YEWo5Si8XyqOUQzUU4TVTgZRQ4cafXPdSzII8dse3ODrG7J/j4SeW3RMzBx9fsulnY4Hts4LphXHf25tbripNd3+t5XfAOyXGdVr9O+I8ZMr/HDVk8r5tjPtaHfY6XBfEZH1w4X8eJa8VJt2qv+OkVMDpY2IPv8Iz5LfyKenfmUIWkJFrsY4AFkWFxEJsG1KKkgPjUoOUVfPhsKVjs7LdzRvjsJnkh0exACxWgAq7A2Tu91KlHQp6Ru8ND7OEFExnGiSJYw2mHs3spAZDWsiKZbkY7MH2Dpg9lY6EPKp842UunByk8n9PyK3bTnuKBeeb3IE+gHPxtmExAT+jiYfd4vTrr2vWLS9HhKD74FbCFXUz374e5/oJ7b+K/L+k6jdvYbxnl4JOBJTZwx30USUJPnaDjPS531ntevOFKLnGc9/om+k7FVf03gbhIBV5bgVfo9LLDcGSUTgC7L/Y8PPWM8qlO7JPNPCJ3OHbEwuegcLo54Hh3mlN7PZLgyWs6SHOpjiqfVvCgA//WzXElTHj4VUBlnD/Isqa8MYP8wwsS6EFtCRA8017eIR68o1UYZgYI2ICqRpQ0Vwq+YUEW5KR9a2gR9qWvoGc24H9Dpf2SpUi8uiuwj22zQAhYafWmEOi+J7NcqSAFCJZ2FRT7Er8+tegi2hyKxyCOqcArK/Aqnf6V95i1U4G/qEB96fQXKyBnKvAsCrDTP8tOkAcVoAKgAN+5gxgcUoGvKcBO/zX9GE0FqAAVoAJU4LkVYKd/7v0hOypABagAFaACX1OAnf5r+jGaClABKkAFqMBzK8BO/9z7Q3ZUgApQASpABb6mADv91/RjNBWgAlSAClCB51aAnf6594fsqAAVoAJUgAp8TYEX7PTwtR7ydR/xFRzVHt+SovrCV6Vs/BMHvrBE8Dff6OL4NasF/O/tqn8iJFIFB4/62qZ/d7SqI2Rj4N9MmBXg0nfnL3gtUZsW189OAjMGn0VaxsEtkfotPT9pDNoxSCBL3vOqI97MI2BtD9gYJL6PZKln8TVeqQAV+GYFXrTTxxkDZ5Gccd5J9bxzJzyUZDycxMddSo8rC7lfW3xzwSxiKRRWX5+byL89CqqgzvhuORdIVkK5H+VrmX4077Leby+q3xDfl2DH37bv2nuwmT8kf0TKZGdPL/Bo7L/6FYINjlMqQAVuKvAqnR5OFjmtvBHg2SV27/R6WNmkmMf5puE7HI3NBCF/ASoTdZFTsUbhOTmvBu7vD6KYGJhOl8tllCR/of46/j79D/OVb4z/4bxRZgx+oqaf2/KgHQPhr1+1jzf4KAoenbFqD8bODq9KCz5o1Ow/Vynk5JAKvLICr9Dp5SDJHt4asRw61o7w+JGQdaPXE1GXxD9bc+K0BHF3rfFjeXXcOQ0MjYA+MD5a7PT+Oaz5asL/hor+DwxlDxqlv6nQc92fBxuRSBr9B3QGS2f/qyIktAhHBu/RX8w9CxDPmeejeZVKcCitbInv/I5ej+LDrTSgpTYkdkyfz+5X1tPylqlWY7R29gTajmol4iZgcPttI7lABajApxQ4e6fXo6mefuWckSNmLI9TzBpKhBRvldiPuLICONrpvS3JdRzXa/zYNYcNgww0Rt6iBp+yXCaGPxwbn+gYaZeRwFrY5V2uFoxM0h+6ahQXsIWITgTu8m5vFLXRy1DxNaFHwmREDCj3HiKs6l/yfDwvwljPGeRwAXSYa71tQZiC/3F9cxlU3FZjjbN7IfxDzdEmfQF4yrD9uNdNwi1vbMTYKt+mnf0mti62BCNA4f1ZuQ9CDypABR5Q4MydfnN2mNnPwDxexR6tKMzzseSWHc7d9/SRqOyTwxbj6PWHDkCBzaM8DuKGF3bP52z8ij3kRpttsNPU2bxf3i6Xy/UjOpUveITzaLIFzyFBbIjHbXg6/PG8JXGw0Z4MSUOeyH944JQkAPBrPNQ7FrorwiC7GvkFnuu8Cq+/IGpqOI2dvZa1mFW+xUGwx8vNYueEClCBrylw4k6vx0a8o06Z/KhKi43EPo52OIzA2tx2OKVzQBJAAvxw6Ae7L+zsvh7XygdTyAr8WJGO67TwCs4yzIC2kC8sgoUPIn8MBj/P647DHK8Ehj3CdC5O9jN2yF8CFUKyFnExuJcXM0fQFt9pP3KNEpNdq0rLiNIMeyuULgfTlCa0+Mx+ZT0tr0z9FhAnX97ZE2g5Si0Wy6OWG7fVIogmKkAF7ipw4k6vtevZUY/Q3VkjdvcEHz/ZXMqYg4+v2XWzsMH32MB1w7ju7M0N+5UsRSfQo9nrArvjOq1+nfAfM2R+jxuyeF43x3ysD/scLwviMz64cL6Os427l3fASnvBpBv8lu7YdFAo+Lt9CcQQZlgcxKZB9Tt5KnTLK/jwWVGw2NmD/3IQ4fOq5IVEswMtVIAKfFaBs3d60UWPkOx1u8NG7OEFExnGCSRYw2mHc+A9vbWsSKab1w7Y2NCdPRx8UPlEJygdBaRwXK/Ur9hNHfoT18zvwZ5AOfjbNpmAntDFw+7xenXWteuDy+N5Hffy7r99bnDCN/YdMnxq6L//6HWP29JvAdXEJyMBlKoW4KPDhW6fotaDel68gYCDPVfz3nW4Mp93x5ZX9ZdATqgAFfiKAq/Q6UUfOGLktIIDN9QTex62eqb5VCf24WhG7nCsVcZHqdGxbuAPhkta08EbhNug8mkFDzrwb90c12n5VVBlnD+uQst3ewr5hyMk0IPdEiB4ptWu60vgHWIaZgYImPp/Jq+AWZLcXU2wwB/FPHxZ4AM67EsTPwor21L0+Zb96iCYFykVhaCCYt+pM2+Oeoo2h+J3uLRTASpwW4FX6fS3VeAqFaACP62AvC5gQ/9plYlPBVYKsNOvVKGNClCBb1aA79y/WVDCUYHjCrDTH9eKnlSAClABKkAF/p4C7PR/b8/ImApQASpABajAcQXY6Y9rRU8qQAWoABWgAn9PAXb6v7dnZEwFqAAVoAJU4LgC7PTHtaInFaACVIAKUIG/pwA7/d/bMzKmAlSAClABKnBcgRfs9PB1H/L1IPEvfKvdv7bFpLTvPRH3nX/a8XtGNGJArfGrVf3lO2D0T4oENSUhHCqr49v8s56qjpCNwchXivt27oBelNrZk17n+T3ybPN+DzzI2/nr3O6dosT4PiBZqepnANoDNgYzc1mqOWYfWqgAFXgyBV6008dZBWeaHNR+7umh7U54uMl4OImPu2QTgW9Rb1u9xTc/zCKWQsGmzq4B//o0qII6UwE/xrIL54lm+5qn+3/Xdc77Xchr/mL1+7BsAEwiUqjs7HnLgUfjvvmWu+bFKRWgAs+lwKt0ejih8GTEfiT26KU5yZHtnJyCerDucPTA9KMXdrsAlYk6BW6E4Hk7r4bb7w+imBjMr1R+juVOmtke9GLwE6zmvN+VJWjHYEKW5OMmhlu+tPedHV5N7vCb/ecqneqigQpQga8o8AqdXg4kP/6mt9xyeGXn9k6fB2Y73OAr9GUlG3riHOn0iR+btzo23W0mEWE5MD4Soj9eijqENT969b+5ov9DQtmDRulfYDLZgZFi7MItYWVqBcQnzhCK3in54CB5JuPobSv7AeqrFyqSJiilPnPqzmeUlWwDxb9tX2QA4zGCa69kWWgMAUWOnX2NV6y1ElkSsO+iXlJxQgWowHcqcPZOr0dcPUXLeZUno312ab0HTq/ircr7UVlWAKcC5f/ZVyoTfmymw4ZBBhpzuVyOnKaGP2ptfKLjpV1GAmthl3e5WjAySf/owF5CVlYow8SgZz9NHZQiYLgbiaSjZvcuE4tEuoH15U7fWiI2yI/rm9NRc7290FPpCOXwl1X3R+Jf0jmrrjCp5P9sf4VGEBhSVnoJNY+Qb64qDBSYKxxRASrwLAqcudNvziAze7/yY3f32eV8vLllh3P3Pb0EZlq/ExzW5+O6KaJ5yVQ8lx2l+MZB7/mcjV+zFWhcmAvKIxNJJD/BzTN3EEk1e4k1QlcNfAe3s/e02zlm3oKFngHTXREGGu236zxeYbpWSkx/sTMbvqzt7MF/N5grDU/dufmWjnUOqAAV+F0FTtzp9fiB1uFC15PXrdDp8TjW47OcYRKuhh1Oa7mRIAILfiz3BuELO7uvx7XywXNZVuDHynFcp4VXcJZhBrQF7yrBYTtQCuYuw2XgesF5OvTk1R3ccWf39fvXTIVqjk9aUopye+jmlvoSRTIGkpjbz5d0lnLxBaTOweBy7Ox35KhVNOdRy3JXmyunVIAK/IICJ+70qqaeQfUo3p1ZYndP8PET0jcn5uDja3bdLGzwPTZw3TCuO3tz27+nFwCvCzqN4zqtfp3wv2ZIFp5owpOFuVk4T3fvc+mdi7C54zrAA1dnFO1ZYrOSMUtxFbrzcRDLG1BbGczvsf8KGGyyBKsp5QwWO/vthBE+u0m9yw2YXWmhAlTgdxQ4e6cXVfUoyuN4d2iJPbxgIsM4yeCY3+EceE9fPkAYG98bhN8PO7uvx7XyiY5SOhNI4bheqV97iwj8Lw0km4srmWICqLWAWFDO3rIQZ3h4IRFwx979bs799xY9f+v0ys3r2uTVci1eh1462G9SuLuoQI2EBIFWJdfOfiNR3k3VaVV/9eCMClCBJ1DgFTq9yAxHlZx6cHDHJog9z8tyfOrEPmrNyB2OtUr4YHaA3sAfDJe05DDNpMF2HlQ+reBB5+169d8Ic1yn5VcBlnH+pChz0r2lYoCyUwLHl4h1pdpQjJA7d5Kyamstcdj3VG+tWOpCCxKAnk205INML++wL7iA7rfoLNZAHJMo7xdguqug2Bfoaiqk08lvobRwRAWowFMq8Cqd/inFJykq8AcU2L8C+wPkSZEKUIH//vuPnZ63ARWgAjcU4Dv3G+JwiQr8DQXY6f/GPpElFaACVIAKUIHPKcBO/zndGEUFqAAVoAJU4G8owE7/N/aJLKkAFaACVIAKfE4BdvrP6cYoKkAFqAAVoAJ/QwF2+r+xT2RJBagAFaACVOBzCrDTf043RlEBKkAFqAAV+BsKvGCnh68TkW8aia8Oqfb8hhbZSPh2ko1/4kxfoTKg1vjVOr765O2qf5okUum9JBwqq2e5xVQdIRuDwawU59zFWCv7TB2SqqJUXEtdPQ7kkTAnesC9ukT5MajrX5xZSXqLPFzXodRBOwYaBnklOcqjjsoIrfi8oD1gYzDTkqWfqW7ORQsVeBkFXrTTx1kCZw4e8nq4uRMePjIeh5f4uEvpcWUh76QtvrlgFrEUCjbFUzNxf38UVEGdqYCguZEn1o8NulyWL/ZjvNzK+TFUDfu0zGsdDmY+7DZXfjj0juOG/27DYLcjUjLs7HlLg0ejtPk2vubFKRWgAo8p8CqdHk6QenDlGSWjOORzkiNTNg5aWchOIrMxrQuxHwWoTNQlcCMAz8N5Ndx+fxDFxGB+pZIsxSl1S/tjoxnl4/oW2/cYFnhjBWA+NozgGByLe8zr526FoB0DZSazxYbBI1Xa+84Or1Yrfpbf7D9XaabkiAq8hAKv0OnlwMgeru8s8uCSw8XOMTxmJMTaBlrtjvCTTFZWOC1B3EaIlPixvDrW3A1DI6APjI+EzB+nhtVfjeg7L/0Wdv0fGBLrFQtu+n++eSrGItx4WsaSdHwMMPibtOLWMMwk/3tDF6LB+77YW0dDyf3x9/xRWUENq4TlSpCM/8uz5fPRt+POXKGRnlCIzMAHfRRT1tAoSDkPFcLXlAjoO7wWyzWBOxQaWo3R2tk97sZ1TqQ6fIH6jWRcogKvpMDZO70eQfWoKOeJHCVjeZxW7WAs3npn+FFWVgAHO42CjWN4jR83m8OGQQYac7n4X6Upa31i+KOYxic6QdplJKVb2OVdrhaMTNIfur9JFN2vE4m5QXe/YTVKgK92JxoTJGPAsnR5FzpCVx2Vd+1x9mrF4SRSPX2zIa8W5o7iNCRUf7RrP93yiaqPDioSzD6ub55WuQ0+jgueahKe4e+yyAo6ynjgyLD9ZLgnwasJN0KCTMg9dHIaOzsirsfINz0s+22G6c0RFaACKwXO3Ok3Z4SZ/ayLk0s7gc7EIczz8eOWHY4CLU6mgI1B2RCHLUbvTwu45ufvWd0cB64bxjXsns/Z+BV7xeiPIUbDOjaVRPLjNUgiH2s7Mvhqjj4VZufr/EYh75e3y0U/ttc/MAuUImDYAknnoYOYs8CcVff7fCDzwSFm6GQDIniiBfTb73uNzMIC6BMD3UtTS+H1F0fr/u3sd7NVvsVdyMMmlTVOqAAVuK/AiTu9Hg/ZYEILPGDDWHsaHDrTCRmGHc7dTg/tDfLvzvqdHUJtWPlACePdrL+2GUem43o9eA1XG8TR3uyl4Ux8ikHQh/uGp/PxMHcbhVhHv7yHuub/frGPJexNfr6AaG9pBdQBLUHoU80yy3IRz/12fJz3A1eH7DeE2OHH+ATuTqhFXQAiwyysLWCdkWc9iOwycEhx9YWdfQ0X1tQiTDkYgjxAM2M5ogJU4Px/y07PiHpU7s4Usbsn+PgJ5ndLzMHH1+y6Wdjge2zgumFcd/bmtu1kegR7XdBTHNdp9euE/zWDpDMWVZ7ouM7H0/jc3D+ul+uHvmv3/y+v9qt90C0L1/JRAbQeB9zkFXPKkzPP7+E+N5iZj/s9cnVKIYIES6IkVJYU24l4IgexefhnJe74HVdBtVdsOVLcYLGz384e4bOb1PvAa8oZgBYqQAVO/J4+NlePijw7d4eK2MMLJjKMkwaO4R1Oe/MYNADS2nIkU5d+gHvczu7rca184sQvnQOkcFyn5Vf7BOC73z5JtlHvLZ4rna2NX64f2gTllxaUnMBEC9C6PMFQxAt0gW7lHdQKjE5cB5mk0+UqLzwqH0/z2FVfvOh/Ig5S6d55XneQdaclNhXCDKYJ6FwcHeDzV8Uf8OUlCXDY22/kzbu1OukeRMK6xhkVoAKHFXiFTi9iwFEipxKelK6V2PNQKYeaTuwTz4zc4djRC5+Pwsm7wR8Ml7T6we50p2vl0woedN6uV//tPseVMKHlV8GVcf4k6SnnDUPFaMqmisDTekQw9d9mV6DBAU9+HFsyc2qJ4yNmsa/zRsSbfm6Q9WoKI5RG9V7wuaHFjSVLkbyq+rBfbVOElXMK/v/Tf03h5u/Zx7IrIKDUlInrws6+06HcBOkk2hRlcokjKkAFHlHgVTr9I5rQlwpQgX+ngLwuYEP/d3oz0ysqwE7/irvOmqnA0yjAd+5PsxUkcl4F2OnPu7esjApQASpABajA+X/3nntMBagAFaACVOC1FeB7+tfef1ZPBagAFaACBFj1BgAAIABJREFUZ1eAnf7sO8z6qAAVoAJU4LUVYKd/7f1n9VSAClABKnB2Bdjpz77DrI8KUAEqQAVeW4HTdfr4Nzvw7R3wJSOy23Ulv4AEv15nuissKL6URKf1HwFL5lif4tVQModvsTrXbtTvb4k/PTe+XsYvCjVFWAIzB1WZRuaixdp6t6Z1pbRSASpABajAsyhwtk6f37YlLS36m3ThmJUV3IgMRquO9dvW4/vlxKQdNBLoFHrlBDAFpMeWj7rES5cMeMgu6G9v+tfeJE6n8k2u3uWjBP0qdzeHtWXllApQASpABf6aAn+106+bMrQxbWnQr2BJhrCSW7YGlfXxZ1WqA76J3/XjBJes67RbPhq8Qz5qt8Kv8jffRiXjPf0GYM9Tv4V9KVxWyREVoAJUgAo8mwJ/sdNLi8JPoEPT0jLLpPyJsL4S8bWRh9ne/UqLk0h84y5MZN7tEJrDY7TTf4w2DXnbdrv/4KZ/3hXf03e/SLzlOUQsCkQUB1SAClABKvCkCvy1Ti99a9dqau8ST3wDmt1YMfx/ccOn+tv/T59QCWL7qVDy59Ww/2+3OhIjL/8UPQnV1VpVYh+1O+XR6n3q1wTM0YanOdhi5ZihHFEBKkAFqMCzKfCXOv2dHtPekYs39iOZWz/uK7EnDcHt6J8oY1UMm0/lPb5d9T0zxiB+8x1vo7EO93i008vrmMt7fPwAhTih9nLFzYvkWvShFzfOllcqQAWoABX4LQX+UKe3nlq6N6g2tctukMb1qU4vQNnVpgY7GYDUfqjFjB7amdaoHf5Re9L/uL5d3n2KBDTh+mXO5Ka+an3s9U0tijMqQAWoABX4Zwr8oU6vmmiPyb4bOom9vvlsFmmMI66tBMb603vNmB+t6wgz7Tpuwi5HR/ho4A7/qF34Z+GXq0+1Lihk3en11wGq3pK4ab2skEYqQAWoABV4CgX+WqcX0bTVTN2nGvK36CRCu1o4yAxaXO7DqtlBoxyOrcW2aaLdHEmUE9ryUYQd/lE7FiD/hOAtGr8gBIn1y5ze6GvIzQq5SAWoABWgAs+hwF/s9KJcbcp1ZspKh8sf7Ox1pTa7jBhdcAFde2yd7Xe1ZfU2769DIDEsPfL/6VsCr0vMidhadY1Rt2qCUHuJhULui+UKFaACVIAKPI0Cf7XTo4DSm9iAUBGOqQAVoAJUgAq4Aifo9EffVHvJvFIBKkAFqAAVeCEFTtDpn2q39NNx+CQ+hvzQ4an2iWSoABWgAq+jADv96+w1K6UCVIAKUIFXVICd/hV3nTVTASpABajA6yjATv86e81KqQAVoAJU4BUVYKd/xV1nzVSAClABKvA6CrDTv85es1IqQAWoABV4RQWevtPnv6FrX+kSv8xe7fklMbKd8Kvw4W/fmBe/FJ8BFci/ecbuClizADAEVPmamdXdVIIicbH619Z1oyZ5u37s7POfxBtsLCCql2lkLkFra5VhVRRtVIAKUAEq8NQKPHunh6+okx4VDUtbuM2wd2lbc6d8kWAtH1rZ2BMMrd+fWzYNkulX2l3fYRmzgHkeFm64LAvOGe023uEftWuNb29ePJSshDLzx/Vy/fCv7NvzmRnSQgWoABWgAs+swLN0eujoIBe0pd6ItU1pP5qcrKkV8+ZbZauPzBYdrjoBOxvuOm53FJgVfC+sx+3wj9qN/vUyWn1WswHY89RPSBYCdcacUwEqQAWowDMp8AydXloOfqIc+kjTyc4yz2wxexe+dUerAS5eTFSnmsBZVB+35nXTMNPBRwfLdHe/7vCP2gf/99Hqo5xdvP0fD/8IwFmM67aG5scpFaACVIAKPI0Cv93ppfEsu/z8Llxco+9Ly4F3qfG/yqNDFW+Ve9Haou2pg3IJJH8Dvggru3dvHZwjQZRxI6/H7fCP2r3G0ep96ldPg9cNT3OxxVoBBnNMBagAFaACz6XAb3b6Oz2jvweP/uO/nDaUFLs2+BjIwtwIZ4v+bl68NtDZ3MEWYWUL760XZ2cmJUQq4R2TpftqdZe320OV94tk8alf8dcWU4olz6Qmwf5CK60cUQEqQAWowDMq8IudXtsFNLwqj6zWBjdbLELso0fBiwOwTm6RqTqtE0jnrC0wwnXQO2td3c0kl9e3zuuRO/yj9qzx4/p2efcpEvA6FmVObuqr1uDvTHmlAlSAClCBZ1TgFzu9yqE9Y9NhaqPfvOW2X2hzBIEbYb0T9rmkF3cP3f5mnASm07SJK9zJaTYAKpCe/RYfTpjTLm+3Q43S6q9esthdK0GEV0nIAngOs1gwEL05pgJUgApQgadT4Lc7vQiiraP20lXb2TVEaGWld5dWhg3r/ar/mqw4C49bCaC3fVw/96/syt4jn11eCxDP9ppHF47aUZ6P69vbW7y4EYR8DbOSHH/FMZJmSKmIEypABagAFXhOBZ6h04sytc/U2VBu1xCxlVm7jl4kS+MHm2Wa0aqd3t3lCi8+MqKYB/NlJ+77jRB78JZ3vA4qNAfw1OlbAicq5qykdvdWsro1mAy1tr+i0kvlnApQASpABZ5IgWfp9CiJ9Bo2FFSEYypABagAFaACn1XgCTv99Gb1s7UxjgpQASpABagAFXjCTv+nN0U/Hcf/BeBjfkjxp/eV5KkAFaACf1cBdvq/u3dkTgWoABWgAlTgvgLs9Pc1ogcVoAJUgApQgb+rADv93907MqcCVIAKUAEqcF8Bdvr7GtGDClABKkAFqMDfVYCd/u/uHZlTASpABagAFbivwPN1+vrNLfjFLXXFvxlmfFmO/457/VIaXwSY/q/14R/1rb6wpyfVPAA3S9wi2i/d2yoCVH9cEezJX3+7P0FhWoGGPt0I/PvSSF3NhU9ZKiuzDLRQASpABajAcyjwnJ0+Ghn0MWt6sQLySf9Z2cVFvv/1er3At8R17zudPvKAX9iWg5KgFLDko73cu6a2Uqxl5q+IUa/NLLwknqjN/Df+Yl7xmbhNKWigAlSAClCBJ1TgWTp9vp1u/Qf6TlsJNXd2b6wf5bt2uzd0wCQR2DkAvzSuRjWBzKIv2wuPyqd0+joZL1Sqv/zx2Yv+AVr9qlx4HVMTd2oz/42/mL3TA59aSEGfocsyJ1SAClABKvCbCjxDp5dGUXsLvquV1dvvWTcda3z0LVjYvLo3tKkf7/SeG/kUclms3hQLfzPZ35r/7/3ydv0I1u69vp+gzuGw8Rezd3rkI+NYaDlurTVXTqkAFaACVODfKvDbnV7aSm0fvf9k41Ff+P/x/nqgR4SCuZAg2lg9UjyhA0bPDAQYgB9YF8PMOtC9bUJq4KPWqCp8BTiR0n/YtNVro88PLGQJf7DKUucgvfEv5omPJqjIBmdhq5WFRjRRASpABajAP1PgNzv9ujeIFfuFzK3f9BUXyXCyx3k0+u9RoIN/X6dPMtAq13y0n6tXcrTKlv5ufL+8XS4X+fO7bsmBC1OuUOewR2Dx2/MZbgIkPy4zRAtifd0GixxSASpABajAryjwi51e28LcMHr/kcZyv9Nv2k722Wh0K/wR/X2dfkEnO6hudPBBeyEgRGf+4RKDKCgGyzspE/ryxh/yRg4Pias4zb1erQt7hHFABagAFaAC/1yBX+z0Wqv2huxn5SNrdchGv33PKhhzax1dJ99dj7ehYoeEON03tvop/+1dWtNR9oWMvy1GBhArw/5zec/P6oNExMQglnDwmU6/ldz+ZwDIOARa7ANy4JgKUAEqQAX+vQK/3emlYulB2XyxX2m3i36CK6jU0i7GiFRvb3VlBV5IKJEaglk8HG3L8ZIOvnMfUQ5Y+MQkBpHD/OdXI+Epg/kVj8d7Op/Dx/5pklHgTRPwEzTQSqY4B08OqQAVoAJU4HcVeIZOLwpkA5NGkz/YuepKdpZlh0vAEDh7nTYmSwLtyl5yZO7aujI6ANeDJR0oMKIGovgnCy0Sf6M+3JWe/AO7dNa1iNfQHX2Lfk80a+ng7riBF+i60tCRxGFpMDvHVIAKUAEq8G8UeJZO/2+qZRYqQAWoABWgAq+mADv9q+0466UCVIAKUIHXUoCd/nP7DZ//4wfg/L3zz8nJKCpABagAFfgxBdjpf0xaAlMBKkAFqAAVeAIF2OmfYBNIgQpQASpABajAjynATv9j0hKYClABKkAFqMATKMBO/wSbQApUgApQASpABX5MAXb6H5P26YDHbxHiv4R/Oo4kRAXOooB/AwV+J8hZamMdf02Bs3R6f6raV7XBr8j786Ymn4wv6JPpzj521BJAlzRDAMlUV4FJI3Pz3mhw3Tfg+wLOo4QYwKrYgu2wA9dYAlv8qwJZrHYQQrA0obqXhTTn9xx1JFwZ39BXidbEUw1QIg4zChgBn6i30m9snGzxxjSrsaX2tEkk5IQaYNUDDLKCrNK4DSAkQ6M649zyT4EqG881Xw/j17QIX1faDuQihvi+VBvchoCSCLoBqE+Wu5ZtvqMBrOa2BQQfWkmOZta0YovBrCstVOBbFThFp68PzMf1al8Fh8+YjO3RVOd49mwmKzu7yf1xfXu7XvH76eTRfnt78+ddp+VPy0mggrbnfL1/25Mi8vt32K3jxaoYfoI4seEua5VIMO7fgFsShFcBKHXJZGQTJ08TkU7NGRUkTGZA13Y0FnfIhZFtvPRCHHTY8tTd0133klqa5VTh3vBrD4sbZhMWCR33rfjP91tBwQnWNSh/xPoCZ+sPoohPMgu0eXAcf0ob+GWlpABGxb7UR2D8FsOvdC7wgIh2ME9Pbe6LeAXr/6p9f5/M39YpmRWnpm0lckoFvlGBv9rp4fEpT3hK083yVI0uKF8pa11P/sL76N/yF99XdkXUA01fDbSz5HqBHqdDPEBu9tCkemDUq1mGhFMM0q3RspcF0PpdnozQUZobQKaArRinpEmSoYIEs4bkGWUD5CUaeOpSda/ZPLZcO0BZHBPxGTtX3XO247OCS5vx27JMeGxGGT5Gi/tt8nHDLX1WODv/yhkE8kSL6wP4NS1W31YiDWgVtjFY5a3uOavwtcrAhXLFf9wasSyDnf3efTJnDKQYWKLkXBJzQgW+rsBf7PTyQOSz2J4Wl2Q22xMn9sv7eDql0X/ctiueBdWHfSRQCDwH3NeJwBnipnaViPEDrVedtFRfXB0/DWo/7bR6Qx3lVABlNjh1AK9LrkFbA3yuk+z6Qb8j1ZydmJ6wnkBCA6fF+fQOvLk5e5nteA7AUqAn2Vzddz7dNUAzgZ67UrwEue58goE7i6EF+FIxu7H5O/Uk6vsYmaaBQx3Bd18HyR3oK8NjY5ZVX5Jr6iOzMU3wdPbADHAq5QVqxUyXnT08ioBh1Veuy5TgEkPBgIrCzgEV+KICf63Tw9M8Kt88YOLo/cE8zXHYtdVbl8ZOL21GXgfIo5mndWLJaDy2Phyt3qdxCvnGxIIbdtepEDQAipjbTy10mSCr8WXB8SNI4HPmHpC0Hpji4IsBrBiXd7kkHyeblhnJ040rlu2Jsl5n3IJgqoTe49XTMgBr19AVz4HZ+UCqNszSQ5Ti4ZKp8QZs4pSIgpUT8ckfLHeNs/EPyrre9zHTwegh/HQ2BJkb2b4yMuz3MQMSJINUC7jfxCd/UJ8sBe6H3b7s7AGyc5g4RsRyYHSB/9KLRirwmAJ/qdOvn4HNAzabzSIg8hi9X94ul0v+j/WdHd5BiLLilueTjuzzgVhwIN+HWHDD7toY17g620Es7YK7fnsmoPbzdpXW2E7BSkic8fxxRnkgpy7mp/AuEbyOyLSWHFHvfXovnBrNVrShu4/OWgLzSKPOFzwHcJWhZYOpwHjaaJuw3j6s2MMKkLNDUMSCMbprDieBC4CDZvDf7yPkKkMEuo+P3gKTETLCH6vdrFiLi4JIiWKItgOibewFukO9WYplcsV3+7KzB84th5oiQnYDdffSd060U4EHFPhDnd6eFn/co0Z5wBYPhXgX8zDEGRwDWdDP88292fFIkpzxPGeCj+ubvQVSAIMLesuzJVdhFMhmqziZTQHxYNy0cUAu52q1x6xl72Xb3E9DiXLd5Yo7EEAx0Bzu3l45Rf4c1LieGIQwDiGFk4sNNMgOJ/NyZ1QHmZX7Jne8Uux5S9oysbhCHPRL1DGqjoWdcvfEXq/4+xi3bYez8TfsLB0Tb/Ou3Df41Zz3T9/g0KNpGHx2dYWDIsjM2NXENXrsA+54BgaTBljtMav5wwwvadJ2ZyQkDz3Wd3C4TAVcgT/U6ZWyPgN5voht82j2B2/M2/kRjWdn1wfVD1e/ysEKR4a0+qu/shB7Hrw7dq4/XBthwD/SqQFoOWy0uk9LvlC1AUiA7oPYoeBwkwFsFEzDpZOweadS3QFnHd47c9lYiUZWs7IzfuezTite808KEHpF+GzRJaXYkOB+ivAYSEA6BP8tzi3/ipOzSJaDz+ADIFRfCUUG8agBeb8t9BGUlBsezwpf3WSGUZIcmAWXW3Z3anzdLHjAK8zbgeBg4VtHLlCB4wr8tU4vlemjAA+PPq75bPi/flGzHxXx+M7PnT375V/QqX5mnz/VHk+0Ldu/Z5JfBfZ/WCV2zyrjw4/5wI29C8qj4sNAgYADpIV2GUum4GyLnUx951XrAqK6MKovqDi5RWWwcQGFTHGHXL2KmEuA3x7or+R8Ibxr9chzuIgJ+WTkfjTdZSsQ5ZPQdt8iecNfhWJmiQh+4qwl7nHW/rXFiU+CYjYfP4yPaRU+dgJXHF6umOJAXeISnGFS4ANn4MeNAomVXSDlv6bb2UeoQMc+ANx0L8BaHyrtEKavck4FPq3AX+z0Umx7fOwhtFf68KCA2Z/BFhgHyq7Tz3ZtDfBxvWqfjyjkhJPnxgbVAKnBK4iV+BcCN2DuLAmWazBclbNq1ha0QifhuEFmEQFrBSoz4CG4oCJJAMQ2cuhQ7QXfuU3XTJxlpG3AJydcigQ1r8Qk1pSwGdpdJvjLYMxhDi1ScCU6WLVEk27uuMfBnA0YlhxnzmeWh/EBuz0XsrJJlxvj8u3zDqV8cwNxlzixPSRZYIxnlrpXdrQZEkZMR9VO0PsbfSOSS1TgjgJ/tdPfKYvLXQE5j+Lw64ucUwEq8EMKLF6b/FAmwlKBrQLs9FtpTrZw553hyaplOVTgORTgc/cc+/DqLNjpX+cOGB9X1s8WX6d8VkoF/qkC/rE+P0r7p7Iz2VIBdvqlLDRSASpABagAFTiJAuz0J9lIlkEFqAAVoAJUYKkAO/1SFhqpABWgAlSACpxEAXb6k2wky6ACVIAKUAEqsFSAnX4pC42fUIC/8fcJ0RhCBT6pAH/j75PCvWTYC3Z6f0DG92W034y1Vfz99OqPK3LHTP7a7xIUphUIvsssvrnDB5Zk6e8Zq+v9e9fAkleLkOVeWnOB79KDosJJbBV+w98ibLGkPOBfEmz8m7mE4FefjNzVvRCK2uqgRqRszR4LB+1HUisRw5vdm72lRR10/8YdNOPUamV2w9+yIHj1LytAqdjnjGFpRYkdUKSGUUCzanWQJJeX/k2FLLgsJEi71ZETRmxwQFDwBvT2KCVMlBsCyRrUKXZ1F1sMwpuDV1XgRTt9PBr9WZDvtb3W78WTB9CfR30YI9hOneaviPHs2czCJRhj6z0nnnV143+TT8WEmTJvCdqyFwnmOlQM4Shcm/eC7MIUeAud9bSsCgx3S3ftAm3wi7kwlUlKML41eXJPj2BbByUClr7LDpCLoWSJr16G9cle6IAO6ih/xFF+ygTQYFhcymS9L+Li2whpS6oCA7mm4UP3CUaXDEjDnZBmbYngLU5eDCLiuDdU/zZufEoQZ2t3Zu3b8kquMrGA+Zt5IhtUAuAcvqICr9Lp4XGQ58BPovEGIaZ6sOCfpu+HYXvSFv7yR2wv8lfu5XaSP14frxtq4n63yVMZPHRx418olEmHfGB+CCecYpAZxFTp7zu3qi6vFGBXhtANQvDtrwLbeVqWFynFv5ozxYL07F76UVZXRjVBLn2XPREXI6snq3KX2V7pZES90erM0fBaPXK23ZcevHydmzjo3seL56tvcA+xOcLjOL2rPLDvqZQ4S7AW0PwTVBbay17NssFpN33gJ7N25mQm51OegoYnPsEoBgZekUpCTs6uwCt0ernB4Vmsj6zMokX5UnlCcNKey4W/mcYpKI3+I554917fU/NjuPEXs58sjc8aWQLGTz0j7BzztQBdo9yxLsguTAPEV+Tqpdw9wSeBHKUxQzMkgGEJQHdZuC9pj3C477I73uLqGsQ9NXxWdqQj4xBaJmN2v9jROG74e+4FXVSzuRVGy1B40VadZdZv5IqgFbrLxr2bXYrCU4HsfCj2fTcNIsV/hwP2CMRWrUZ1st1zkujc7wVc62OJzxuhr3J+YgXO3unhKfFdFJOfAvVczxUZ+cmoEN4O3ahgK/9h01avjT5fcxcg/BxZwcrJEPCeV66DdIEpfLzC9XVKgAYBHVh6GmDeyLzGNevivBlSzFG5AGnt8MS8sUmRwSUwgwTjz0ofL8p6TkNUmCSTqLdVLXnBtdhzv9qHDJZF/lv8ASc92iipVrXX9gKfOhimb/JKkZZVpzf88TbqobLmleHYuPlKj/J51iWj8C6FhdWDpkapWsmfpLQfD0hwi/QUIa2msb9kpSpt+O/K3+Hs7MpCwPTHWXpVvrDYLyfurneuWlZ9kO5EcPkMCpy502/uaTOPJyrPj/qeEh6fGMZgbLzM/cmLNTe+X94ul4v871C35GB548wnRgRW/5KqnwjVtcxagoBRpzorcfcmdgi5EOAtmPjjLmLHsdeAdoDxYeMPwrqHXQuMBBn+FD6iivvUJir0NNPa7/GXDPjjtQNawQE7DgXGU0W7aIS7PVKlDuMVhiIdSXvXX0AiTydcllKIt+v816AxVMe4M1g8OC4LqIQsqQunM2WL6ILoGVRCfWFgMeCnwbqTwL9mS247nJ09IweZEFXT3t4vY7bchYI7Jom4WqXtjAqcuNOP53K6/cU+GeFRt23OB1j8x0GBB2kcDdU/XGIQ+WKwvJEyoS9v/Hd8PGx3bQkqegXFviTjlVw1DcTHQs1QzH7wlrfaG38PbPyPdfrcJQnPtA46o6CfjONnLQKw2vHf2ZPD+J8GkWGVN+4nCYMJDIu9vbAUElY+MO7/s2KVVz/2Cmb1QzCtoOJFUYq1Etw8StQybzIeFS9vw4IjjjWsaoVAfVcESOgalyQ+JWj8Pc7M+d8dzs6ekTrKtDmSBZklObFMBTekxVRCDj3Wi1ia/qYCJ+70uiF6T89PRp5csW3j7o+DPR4FfJJkPGI3/uXgDQoaA8GRNQf1gRb7xl/MXtHGJVFh1BIgzKeOC4Bek12TE2v/MUnX/pGm8b+pT+5vljmfkQrdsm68gkUbaDVwR2TidGwZcgFGiAPmHAqv+Ud/33M26/1R08pM75oYGHabZkIfNYc2Hb2nly1ecZM6El6nzcRFHStEK62nsXvAn0gNm/evpfIHVPABL+I0by40N6cJoBHpa3bd4ezsNVo6uj3k4u+P+7Kvh2dD2E2FL1a+86P9VAqcvdPLZumtnQ/L+tltDxScYGUlJjGI28Ee/vm5C08Z5BEScWNg4Wjd+Aee+JYJBs/jnkDmQxUZxmSOPGJZkF2YVoSD19I/c4efmzb+xQxFqlZwxi3+lZ2Euiae5da1+pfEELazp0vFSft2NN9l5or2khZ0kGHch2WyTldcyiRyBpxa7lazAJlSC0g+s7IsUe3xmTMtnMozIusGi/JUnPSxW6YlHQdKWjU6qX3Xv7Lz6oVOoJdJ6O+uk4rdoOGHvXs0539YgVfo9LI9cATiI547Bw5ulMfi8l4OivEmAn+j3r3HUXTx1+Jhl3z6cNmJkG9T6hM3skXYSJXufvAFnroqaEUCCBn2tH7Uwcq6noZzeypZ8vBT34WpbIQDeuWd6Kiqm4N/X1j6V04YcsDdGdarHpdjXxAewfGVk9jRz9F2OL5+47q4W9Ub7ZVOIfBo5qV/xc+C0bmolAuFzLpMrGR4SLxEJk52QHORleWzkCGxXOlXRrAGCwkCRksMAUgAzCVkaQfjqq4h5XwnLZRaS7p6rbTxpPl0CrxKpz/dxj1bQXJOldPs2QiSDxU4pQLHO/0py2dRxxRgpz+mE73uKSDveNjq76nEdSrwvQrwuftePc+Kxk5/1p3993WNTzfj89F/z4AZqcDrKOAf9/P19evs+ecrZaf/vHaMpAJUgApQASrw/Aqw0z//HpEhFaACVIAKUIHPK8BO/3ntGEkFqAAVoAJU4PkVYKd//j0iQypABagAFaACn1eAnf7z2jGSClABKkAFqMDzK8BOf3eP/Fdcy7eATN9IU3/jPL9kI//l2Q5n+mqbAVX9Hb9aByf7gxuZSmsSDh51t8h/6qDqyG8Mx0BHjaxWeuv3ikGKW273SwsaMbgf84DHt/Hc5QzaMXBPNehNguKGWwzcP6+y9DVVE4sjKkAFflkBdvq7GyAHdZx5cDaK3c9PPczdCQ9JGQ+nHY52eo8FNlt888EsYikUbOrsAPQphkEV1IGhcQyne5S7EPf85/VINZGYfT9v+TrPXe4Nf6gmPBQiZuDRsPl1LE0QTqnAn1aAnX69fXDSybmYjThOSW2t0UvFbJMcGXIc8DucI52+JlPgwI0C8NyeV8Pt9wchUQzG15qHnOuvOV8z/3qpQSMG60xfs36d5y5/0I6BeMIt3OQNtxg05Gb/OeYtL6dUgAr8jALs9LOucrD5G/HxZvlep5eQdaPPE1eOzxXOkU6f+EF3dfy6WzupI6YMjI+ETB/v2sfqZnfK75f/Xd7N+/IusV6xgAYK6FaSHZg4eXOVmadGfDAOzOppn2aUSHj98HWeWnnCG7XIkPi/zVO3JHjafs2c1ttidwauaV1RJa5wTAWowB9QgJ2+bpIeifVIK+eeHHljeZyerU8Wb8WWEDlyywrg6IKhlN66xg+6DhsGGWjMZf4rO8VpTAx/FNP4RItIu4yPETNMAAAgAElEQVSkdAuzZm/ByCT9oftHcQG74qMBLj1iflzfIhDwHQNdxSYEw19AV5gLHMe7d635YPbDPCVT+8kyZ9JRuN0T+uLsln8iQElpHHfpMQQI45AKUIEnUICdPjfBe1hadGRmP2O9bVhH0Zk4hHk+Jt2yw2mtKbIHbAxiSQYOW4yj10Ona8swFdg8uKMxgIcMw+75nI1f00Mjw9xwjkw9xbY45BOAGWWmXV1Ribp9gScm6MmRVdwTZuyuCAM6f5eeWu57/hnemi54zoOqU1kXjLzVyxInVIAKPLEC7PSxOXqM4UfGY2V3RIp9HOZwOILV4sOww7nb6bENBNtdp9/aM3JZF5Qw3r75a5tRpDcqrwev4WoDU0UC2k++sJjYqMFz+BWYAtLnOqjwbT8NaM1pYc2dRNX8VVYkafCtqLbtgbTl+aCe5p4cevpFXWLK2hYOg9u9bVxE0kQFqMBvKsBOX9XXsyyPR1ncnX1id0/w6SdqzMFnzrk4PDf4Hhu4bhjXnb259bqi0+hLBa8LXmQ4rtPq1wn/MwZL4qkMQWYLPgFfvbd1Od+I+8JAsGTHUrTxIcsT8RSO8JmNU75T9Q030RkA7wBxmQpQgSdSgJ1+3gw90vLM3h1+Yg8vmMgwTkRoUzuc3UsJgLT2FcmUcm9wXsfO7utxrXyyaQFl7fp33tMr/ag30D850ORv+L8VyisPWU7RLUcvGPTXofuD/ZPkIMx/PxFeoW10i6B/zhMIHa0974KgrQOBch3rCmdUgAr8AQXY6debBEeenJJwoIe/2LP56lnqU53Yp7gZucOxVhmf+caJegNfOPTG4bx2dl+Pa+XTCh503q5X/402x3VafhU8GeePqxCZHhloT6l6AzrwaUklvSfOAP3XAm5+PZ4pRFV0tyFwE6CLbz3aOKYCVOAPKcBO/4c2i1SpwA8qIK8L8oXpDyYiNBWgAv9YAXb6fyw401GB51SA79yfc1/Iigp8gwLs9N8gIiGoABWgAlSACjytAuz0T7s1JEYFqAAVoAJU4BsUYKf/BhEJQQWoABWgAlTgaRVgp3/arSExKkAFqAAVoALfoAA7/TeISAgqQAWoABWgAk+rADv9024NiVEBKkAFqAAV+AYFXr7T578tgq8Zka9haf+y2FbzS1jufQ3L5K9fCZOgMG2J7QtgulG/mMbS96VBqpqR6TfcJ4SgAlSAClCBv6rAq3d6+FYw6ZTRiaER69Z+XN/w+9nEJv7eT7XLRrAtNn9FjAQ2y86NsfVeEs+6Woim800+6cYRFaACVIAKvJYCr9LpoaPDBmNz1M6dLbX2bm30H/UvmkzB3va90Vd/+ab0y2U07fcLvA4QoEwM9HT4qU5fXoZsvzi3p+KcClABKkAFTqjAK3R6ff8MbTi2sbbYeRb915fkGkA4kRSxYG/3pXeDi0HoH0aR76x/u37Eiw9bClZt8KlO3/hor0eCLQenVIAKUAEqcF4Fzt7ppYvuWlzroaXhllaZKzLyjq7Q/ndd3Kh3ysp/2MbfQBP30ukdZ/4NgcZy+nsy8dn+nk+QCt/z3tCsjApQASpABZoCZ+701vq2n4tHpx2SlE4Z/Xx0VkcRp9HVYxgDAJr8xUmM75e3y+Vy/cg3/u1/G7QNWnz07lDNM2jEoDlYSqc/LdJABagAFaACp1TgxJ1eGt78O/S+i3O7nC3mWxtnvsUGe3nRAHb447LhEoPIFwPnVq6Z0M0bf8gbOTxkXMVlL0lz5pQKUAEqQAVOocCJO73uj/a28tG6bduiWy5M4ju6I368bv//XhYcGWI3/nPzjZgYLO+oz3T65ccEAhS/ebBMRSMVoAJUgAqcUIGzd3rZMm1x3pNtD+e+C5+ml22WNjzFasMsKzGJQaBYq54zhqcM/NP+iIrBpzo9/i6gIC0kiAQcUAEqQAWowKkVeIVOLxtYG22djQ1eN9yF6+i90ak1XmbykmDnf7m0FwzZjDUUPjNYv7DI23Djv+Yzir/xUiKBOaICVIAKUIETKvAqnR63Tlri/j00enJMBagAFaACVOCvK/CCnX7+OPyvbyL5UwEqQAWoABXYKvCCnX6rBReoABWgAlSACpxPAXb68+0pK6ICVIAKUAEqkAqw06cWHFEBKkAFqAAVOJ8C7PTn21NWRAWoABWgAlQgFWCnTy04ogJUgApQASpwPgXY6c+3p79VkX49z/bvCf0WK+alAudUwL9Xg/9i+Jz7+71VvWCn9wdkfFdNe05sFb+8pvrjimzF5K/9LkFhWoFGS+xGZWVJ+tJIXc2dz+72sKjk1fxk+S5U1BIDQBFbha9E8SUArJQQxR37gmx2/pbeVtMfvG+oKUuWvPgXPlAeDIs/lmVfRWj8Aaf5g85QL/hDquXQ8LJedzpq3/NxpH4FnsB+h7Ozj69qXOxvzwdzA5vV2dgh9ySQrU3m/ggDRN4j8aQP9n7v+AHg5gk90cZSGjwmsUqWgGoRYTeV5ufObkORTPdt1g7k5fBVFHjRTh93f38WPq5vb9dr+T47edD86dKHLoLtwWz+diq6j80sXILdPt9f4llXN/43+cy4w6LMWwJwRlAw16FiCEfh6pIAfqWvJ2gziTOm2o3RaetjmXX5Lbdo97XGtRRMACvzJsCiDyXjpi43F4Ee9fc86+tcr/kdt2/4rNPV/Sqy7XA2diUof8RRfspkl9lUvE4Pxi177szH9foOyJqx3Ce2ONnF4PuId/rGPpkzGKOBSRlqelel3DbhVjKENQbzt3JKgLJY40UkBy+kwKt0engc6oMTT4VuujZ6+NPxYhSPaGtlomuyBOgyvlwu43F/v8DrgJq432TyVMYB42SaJcw7Ph308LzVtY4Lpxik36K4hWnICXVm2TkS1Jg1lLCP1CY9boBuGGRIjjDqMGNpURgEgdMRfN+kVsEMOMp1/6WDGxf16tID9iN8PB3uhOfxm3KHs7FXyesM0sVQHiRp1d1zZ5e0ewmP61Pp5521sVcznhadeFQGA/TBMbjcu5+ToQeFEjGwlV0Cj+P1xAq8QqeXGxzOgPpoysyPrnimyhOCE4GC08ShwMVM4zSSRp/fhO/e69tpfgw3/pBMT0Hgs0aWgPHTG5RK44t3gdbwZl2QXZjmgxuqUZ5GAnRuuoA/gJXTbp0XyWumrkV/UYcBZXwfv37q8ah/SVYnLkapd6fDzn6ED6ZVtaZ9sZfACxHjKUIMGe9wul+be83N3F8BCPr2DnaMI7qhPAi6saNZKEoq5dEXOn9XxCXc+m8XDLHXtMgTJiG3VyncODifAmfv9PKUtFu7PDjxXMrW5oqM/NhQiGU3XPkPm7Z6bfTy6BtUAYr/S+z3lB9GPh8noydO/wLjJDNqO5oSoEFAB5aY248fRltsPeA6l0I0+Qu+u5qLz8Y5Kckh495fos0xNBaGad7wFQfICWmbeR1vpIdEFccDkPN9PtAeHGB5zcJKvZDgkD1hllmWRr8pYF8gbQ25hb/CqdHTTEIwrTs0e5u6l1yT0BF9xDt/cn839gS3lDLXIM31HmAJFNTCVS1b/5J4hqkoAb4bGNpK0F0E7WdQ4MydfnNPlwcHj3ZZ8CdAxuOhimEMxsYv/d34fnm7XC7yP+DckoPljTOfVBFY/cWs1GJQ13ezlqBG19kOYmkX3OVZLJiuZ4mUBft5u8pRCELbWCHzTFv7I+Vygqe7JekcmhBITUO7Pzq0cSNqq5Y/Ue7x6f4th0/FzTXBeh+163049NdLMvVU9ar8NHMt13gnkuPctC9warZpttuuZm/ThHlUH/H3UvIdOjzHAi3ZbDOK+3hZISumgvlYcKIaucr4vr+/InXMLHEkC9awshxqrgXM0pnGUyhw4k5vj05/vNoTC5so/nn352MIdjxg9ema/cMlBhKvz2AMIGkOM6HbNv47Ph62u7YEFb2C5ulto/tHCMRH/pohzHWQrHIkHjJLdTMmvELf4Z3Ot/OumCa85o1yJVn8hBW8jWdZ0ZgkU95Slsgxmf0NtOfd1fuoff8ArPNWRXBfdjpv7LFzWrjMQiXVwAsuao47odsEouIhsSLzw/pU+nm7bOzVbLS0sJJ4otuOD6snBJnL85pa1fDSwj0OXIXz+tX5gWC6/EkFTtzpdT/0nsYHaHvQjbvfzxu96gEjC44g43HqbPzb840HPQQv7pX1I7w44jZ8FpDV1BIgjIniRdawg7NFcQvTBJakKp/5ILTQ8JfB/KMl3MwrcbcKnfdv4owGyeV3xNjrCf4GHw2/RSdy7eqV30yff/T3QGezUbvBJ9LlQLyBIUx3OGs7BAp4m2a+aRRb3la6fb2zj+pmb8bzsUuetaywVzO84Gj82o01s73tP4qXbHC/ibUBN5XmqSqSBc4OtJxRgbN3etkzvbXzsGqP5tjVeHJjl/3JKysxiUHzn5+78JTB/gnzdIGnh+HCP/DEs0wydDXqCWQ+VJFhTFax922L4hamiqNpo8IyKxOPWhp1sah+K69AREbHzass552S9s1IMqV/nWXIjs/OPyO3o1IveB2y7/gADg6L6jjZ4WzsGGrP5I2NAAISt/Kc7KpnurZ/ZaeIR/Qp9CXJuCE2djQrg7h/ZOYTwHEiyXQUe8vfXCr+CNvVNJbLRWgEp7LCyckVeIVOL1sIj4M8LvPJAQ6+5eMowQfQWqs8Kzv/i//+naNkM9bnFN5o+SlgniNbhI1Us/+aD8S1YU+bj3qsrOtpOLengtVUDfhRg9erx43aWoCd/8M71/b+QansxoLKcBQkZxGxhWZmjfVpkHxKC0JzqWHDZ+s/JZwNpV5YPmTf8AGYPkSqqdAOZ2cfr7mLNj0TzAWm/tjW7ewSimvTRtdjADKV46Fg4AYjNtg3ZoNP4QobMReDk1n6pxHSekTlntbVSIBy+1YetJ1WgVfp9KfdwGcpTA48niLPshvk8ToK7F7dvY4CrPSAAuz0B0SiywEF+IbhgEh0oQLfrACfu28W9KRw7PQn3dhfKGt8yrj8WPIX6DAlFTi1Av7/DfhR2qm3+ZuKY6f/JiEJQwWoABWgAlTgKRVgp3/KbSEpKkAFqAAVoALfpAA7/TcJSRgqQAWoABWgAk+pADv9U24LSVEBKkAFqAAV+CYF2Om/SUjCUAEqQAWoABV4SgXY6e9ui/+Ka//Gj2qvv3E+fg1dQuI3Y6t/2ttXdcR3alR/x6/Wwcn+UAxASlHCwaPuFvlPHVQd0SUGK7Jaaai3IAhS3HJbRDZT0IhBc/ja9Nt47mgE7Ri4pxr0Jql3wu/Yg14MnGdeZelru5lYHFEBKjAUYKe/eyvIQR1nD5xRYvfzUw9zd8LDSsbDaYejnd5jgc0W33wwi1gKBZs6OwB9imFQBXVgaBzD6R7lLsQ9/3k9Uk0kZt/PW77Oc5d7wx+qCQ+B+C173qLAoNXEr4FpgnBKBb5FAXb6tYxw4sgpmY04z0wZRS/NSY4MOQ54WVjhHOn06hPJFDhwowA8P+fVcPv9QUgUg9p/NvVtiH+91KARg02qL5m/znOXPmjHQDzhFi7y/pYdXn0WnlBVs/+cYpCTQyrwCgqw08+7LAdM9vDWiOUwsoaNx5KEWCNGq0H7ySorn+30iR90V8egu80kIiwHxkdC5o93w5ofpb5f/nd5N/vlXWK9YkFM//pyJLPdHwlGRsss1Up8MA7I6mn9pEQm6Dfw1MoTvrxDRh1+m6eWGjxtv5RTkesf2u/fAO1JkwDdd9i/AyB0oQJUYFaAnb5qokdfPVrEFEemHD1jeZySrU8Wb8X2o7WsAI4ecKPd6mUkW+MHXYcNgww05jL/lZ3iNCaGP4ppfBb1ioeUbmHW7C0YmQCOBmBd2LpXhCC29KmP69uCTyBgejEKwfAXIN9OdMRcgXRsgDDWi3LDIu8Cv8Y9zlPi20+kWzCPwu2e0Bdn4v9b9gXFZuoC2bLfb82ZUypABR5QgJ0+xdqcKWb2M9bbhp3UOhOHMM/HlVt2OK01BZ+AjUEsycBhi3H0euh0bRmmAputIhoAeMgw7J7P2fg1PTQyzA3nyNRTbItDPgGYUWba1RWVqNsXeGKCnhxZxT1hxu6KMKDzd+mp5b7nn9X1dL9lD2V2g7o/xUu45yNWljihAlTggALs9CGSHieL951+RIbjGIh9HOZwSIHV/MKww7nb6bENJIneOHxlZ/f1uFY+UIJ9MuAvbfyIdVyvB6/pqyNTRQLaT76wCBZl4Dn8OhYlFfx8roM2EMFrQIXKrYlAWSmomr/KCqYNvhXVtj2Qtjwf1NPck4On/y37LUGnT2Ka89Dk3u3TojilAlTAFWCndyXsqmdKHo9izHN9dnVP8PET1Z1jDj6+ZtfNgpgX+B4buG4Y1529ufW6otPohwWeF15kOK7T6tcJ/zMGS+KpDEFmCz4BX723dTnfiPvCQLCk7aRo40OWJ+IpHOEzG6dsL+OyZ/4z+225g8bsJvsLhcwOtFABKnBPAXb6WSE9WvLM3h1CYg8vmMgwTiZoUzuc3UsJgLT2FcmUcm9wXsfO7utxrXyyaQFl7fqjSMd1Wn7trSPwPzXQ5G/+llkhNnwC3om5QYgN/XXomwR2d/381X8/MVtmeYUknDyvJ/nnPEG4Uvtv2V2IxTXvvrq40rF6cEYFqMABBdjp1yLB0SOnJBzo4S/2bL56lvpUJ/YpbkbucKxVxme+0SFu4AuH3jic187u63GtfFrBg87b9eq/0ea4Tsuvgifj/HEVItMjAz3bq96ADnxaUknviTNA/7WAm1+PZwqxVTTvz7qPP2Lf3Qhw86GL33Jo45gKUIFPKMBO/wnRGEIFqMC3KSCvR8oLi29DJhAVoAKmADs97wQqQAV+UQG+c/9F8Zn6VRRgp3+VnWadVIAKUAEq8JoKsNO/5r6zaipABagAFXgVBdjpX2WnWScVoAJUgAq8pgLs9K+576yaClABKkAFXkUBdvpX2WnWSQWoABWgAq+pADv9a+47q6YCVIAKUIFXUeDlO33+Gx/4mhH5Gpb2L3xtNb+E5d7XsEz++pUwCQrTlti+AKYb9YtpLH1fGqSqGZm+ys3MOqkAFaACVGChwKt3evh2LumU0YmhEatqH9c3/H42sYm/91PtshFsi81fESOBzbJzY2zdJvGsq4VoOt/kk24cUQEqQAWowGsp8CqdHjo6bDA2R+3c2VJr79ZG/1H/oskU7G3fG331l29Kv1xG036/wOsAAcrEQE+Hn+r05WXI9otzeyrOqQAVoAJU4IQKvEKn1/fP0IZjG2uLnWfRf31JrgGEE0kRC/Z2X3o3uBiE/mEU+c76t+tHvPiwpWDVBp/q9I2P9nok2HJwSgWoABWgAudV4OydXrrorsW1HloabmmVuSIj7+gK7X/XxY16p6z8h238DTRxL53ecebfEGgs698h0bDxecCeT5Dq/x/gvPc1K6MCVIAKUAFX4Myd3lrf9nPx6LRDi9Ipo5+Pzuoo4jS6egxjAECTvziJ8f3ydrlcrh/5xr/9bwPfGb+uO73ju9egqdQ6n/SRFaefVo6oABWgAlTgzAqcuNNrW9u+i/XOm5s7W2xN7PmWPRsv2MuLBrDDH5cNlxhEvhgkFxhlQjdu/CFv5PCQcRWX+Z8VNCdOqQAVoAJU4FQKnLjT6z5pb8s+HXu36JYLk7iP7ogfr9v/v5cFR4bYjf/cfCMmBsEOB5/p9MuPCQQofvMAM3BMBagAFaACZ1bg7J1e9k5bnPdk28y578Kn6WW/pQ1Psdowy0pMYhAo1qrnjOEpg8Wn8QPgU50efxdQcBYSBD8OqAAVoAJU4NQKvEKnlw2sjbbOxgavG+7CdfTe6NQaLzN5SbDzv1zaC4ZsxhoKnxmsX1jkbbjxX/MZxd94KZHAHFEBKkAFqMAJFXiVTo9bJy1x/x4aPTmmAlSAClABKvDXFXjBTj9/HP7XN5H8qQAVoAJUgApsFXjBTr/VggtUgApQASpABc6nADv9+faUFVEBKkAFqAAVSAXY6VMLjqgAFaACVIAKnE8Bdvrz7SkrogJUgApQASqQCrDTpxYcUQEqQAWoABU4nwLs9Ofb09+qSL+eh9+r/1vyM++LKeDfq8F/MfxiG/+pcl+w0/sDMr6rpj0ntopfXlP9cUUUn/y13yUoTCvQaIndqKwsSV8aqau589ndBRaVvJqfLN+FilpiAChi6/DqZzrDUi0AXxrACvh7EludWXY7oDRKaz738H29XC1JYbnPCyslwm8f2PSSZD0xNNcBsMcd7UX3lU2Em9fJCkVJkAXs8B2o8hQrRCSMu09X8JbEg2e1Ivm6EgGGm4sQcuN+WPpHCYAxaJt/sSdE2d9mRiHWfFpAyWFff4kY/o2YYlO8tjjJTMNLKPCinT7u/v4sfFzf3q7X8n128qD506UPXQTbg9/87Wl1H5tZuAS7fb65xLOubvxv8plxh0WZtwTgjKBgrkPFEI7C1SUB/D39EiAw1VUxkAKOIcHbW26FU1PXhV3XUVRMW/gY0k0cT2ZXi75OG5ZePa+LVesSr1Ti43p9T4Tt6A5PyCDDhc7ab1f2TcoCg8KVhSlYieC+qEH+iOPol67JFOmGNX6xFgXLioPoFVnHAro3hzaNEH2t0p53W1ycGzudMS8+SWgvBHABqPhw/lZOCdCdLzDuz+tLKvAqnR4eh/rgxFOh268PLPzpeDGKR5xKZTIe/Oovf4H+chlH7PsFzoWauN9u8lTW83fjXyiUSYd8YH4IJ5xikBnEVOnn2nib4SKuXZu1y2EbCNs44Hd2W14QtYXpDLyNg7XIBktL7gzRB/Ju6wIfDL0zvsMTSbXMAbyzh0MdVHfYgbpQg0Sd+t3QzRuJtlCftohhblaZjhurrTjMzY1yJ7wfblBbnQ8CsbRv+FQz6Olc5Ip8agB66XhGkADVJAYWdKOwCZWGkynwCp1ebnA/DUbnzp4kD0O0KH+myhOCE3wAAQpcDGJ0A2n0+U34trS7gebHcOMPycqBsAPWlyrjg92s27xVmrEGEm2h9gsbsh6Awq1dW/1YZXbVfqp5ULePtBXEucgV+UDX3uBgZIw9dxhygHmbWyzFIMPujxxsw1Mw42bevafc2jfpBdTvm0IaF1rsgqebhmdBatHg4onTo2cVXGv1feUmTALqKFFuyeMZOvm13a0tFZo7ULgCn1uExH9zLwQUDgT2a885onH8hxQ4e6eXR6nd2vik1RM/V/AJVIhlN1z5D5u2em30+SQWIPzcVu8XeQjrubbxL2Z/n3zglpsSoEFAB5aeBl6vXSuvZa7b541gBtVSQOqAPubiETIzCjXLzm6NXKk7ROOMuexTmxV+C2pTwejCiK3nxVxQ1yq8ZejTfb3mKetQcLpXICMxE61eMSvuR/ChNeF+bXSIPNOgJI66elUyt8XiX+6rt+u7nAN9ZzIjclPOS/9MnUkFY2MvfIK/eg8u27aLfGpA4jj7ysWt26ux6jfu1p0LJ1HgzJ1+c0+XB3B3csHjE8MYjL2XuT8xsebG98vb5XKR/y3plhws75355I/A6l9SzQ9+dYZZSxAw6lJnEHV/KLhzz4M4wUYHmbtu4GZK+XEsR20e4F4mdg6kjHaE1NQ9V+NzBAcxfdz0dLNea15LKJVZy9FqboUXLJ/c5dkRM62J2nUYn2XgI+C58CowESo5fDM2+HueGQA6YKrtWNLC7RB0RpvNGwVXDM2SFs7NyTzcuPeXFfRCzJUdqgH+9RhAPd2/8nGrXhEHF26EoJuP1d3pu5HXUytw4k5vd388m7GNYvcHM4zlyBCrPFPmJf7jqSgNBezgHy4xiHwxwKwxzoRu2vhD3sjhIbeuLUFFr6DWGfK/K7lqKoivCyqk62dLNXNz92mwLTXCBIa3PsEMHARGPrdwJDh+uggTsmfQ62417DLYHbayFj8j7y2eknHegcd0FoxV3tqZMM0a/x7PoVLosM07HLt/z5o69pWMRJ1LYq+5ObSpHQQCnwsJs7Nv+O/1tAABhjwVBc8lX6n53XrzKiHlxfdNby6eQYETd3rdHr2n8/kUm5j6qT3McbqOgbrhkwSxitwCLu/5WX3cHRETg1jCQR4dbt34i9kr2rg4Qrm2BAiz6hMl9v5kzUSsQdZB1q6+atcgqwdfk1kg5Tff5x/XJcFK49G9r3x2+PY74okzj4LivGQNZCZTDmqJX7ks4WoTjsIzfoF2RGfdoMXTACQqjMxG1rowIg7qeVs8yD6GybNlhbrbioO0VOWGUNgUUUM2/uoawttAhNvZPb1d1ct0lmEqLrMkoG45rRgyAxxfLAW58cZV6gMCNzy5dCIFzt7pZav01s7Hpz5pvpf1ifMwf5QjOtxi4ACa5vI+P3fhKYN8xCNuDNoBc/slycynw83znkDmA0cV8skcecSyKE5MK9CFa82gdJZKzepa5A17MtjxgeQ7HHCJYdczFsYtF3sUC60u5ZN3xMF/ZadoE88Vmbs6L174BNccFBjJ44WVhfTH0cRTF5sOGLAeq1IjLWZF+/YlvFbpnDv/KAYSC+rkj0bzNcl3dsAb/dkhJSJu7iN8EkpCg5qb1xr7ar2q8k6kLnF2bgVeodPLDsLjUJ602F1wcJs9yuWgyId2538p/xZfoOIs0OcU3hXUJ25k8+T++n32Dzx1VdCKBBCeH1Dgs8EghP9CoEUfnQpWnF8apKdKTWwOkXYsOvsMqEBAYaG653IUa1+eF5AS3hcb4XqbQNY67PT97C12yAtvx9GqoBgTBdR0y1nTQUqbwwV8yuivfIcGq/WWETmWN4M7fIgvPHMDDmTd8tzSqRsPt3mBSpmSznw/5Jr7l0qsQnGSf1DrLl632v17a2addwVkzsYHFxbKLZg5k3Z1Ys3M6Sso8Cqd/hX28ldrPHDs/yo/JqcC51TgeKc/Z/2s6pAC7PSHZKLTXQX4huGuRHSgAt+uAJ+7b5f0lIDs9Kfc1l8panzK2D/M/BUuTEoFzq6A/2+AxSRHJJsAACAASURBVCf6Zy+d9T2sADv9w5IxgApQASpABajAH1KAnf4PbRapUgEqQAWoABV4WAF2+oclYwAVoAJUgApQgT+kADv9H9osUqUCVIAKUAEq8LAC7PQPS8YAKnAKBfgblKfYRhbxRxT43d+gZKe/e5v4BvXvwKj2+hvn4xCVkPjN2Oqf9t03flR/x6/WwWn8ra5IpTUJB4+6W+Q/dVB1hGwMdNTIaqW1pMoSpLjlVoNWs6ARg5XXp23fxnPHIGjHAL93ybURGiCx+PqSAQNPva/SGVZKiOaLezC/QHjnj3mW6JAXMEYG51tWCp+1QMW/PBPAH3CaP4i29l9nTavhZb2+ctS+5+NI/Qo8gf0OZ2cfz+dif3s+mBsYqDnWNnbIPQlka5N5nJdhBwihGqk39moOFC8hl8dSGuI2zBzjm9R0JaBaRNgthexNcEyT2nTf2uIgtghzyseu7PR3dZKNC/VhL8Tuu6ib6064KTKGW8ZdoMfZzRILSWeLby6YRSyFAnwzXwI+zSiogjowNJ7hdI92F+Ke/7weqSYSs+/nLV/nucu94u/fp+JX8cGbrM/HHYQuI5144n2+GuvdB/f50sfwFO4tIbf3f60WWeTKIU0XpQoCmsvG40Km2vuDz2KoxEu95nTcvuGzyKUmBZY/oik/ONnhbOwYWnAMefFfU1H+IkW9jW7Z07V9G7SmP6JboQ8bubFP5mSwer/Ry1Rari5kA7+SAexj6E9krkiAsljjieMclOHHRuz0a51A2bpxsSv15hezHW85MmTZPb3xdzjlCAE2BahM1ClwIwTvk3k13H5/EMXEYHxhqTcIoXi4gsOO28KDRgy2rl9Y+DrPXfKgHYM8GuxGloV6+s6WzX3YHLOKHAmvmG39jb3xgcerttxdiQFfHSQZ3jR1dcwao6WP4DvQo/5LQDcu6tWlB+xH+Hg63AnP4zu/w9nYq+R1Buli+H6xRN1zZ5e0LnmAxOC4PpV+3lkbezXjKd6JBxcYoA+OwWXzHIVHMnRTKBEDXxnXZt8lblF1yk5f9ZCZCAn3YL01ZJad2+9UCbFx2xSD06Udzu7OQKTED7qr7XY3DI2APjA+ElI/fAoJzO4NQh9Y8768S6xXXP1dkZ7t/tzJm6fMPPXYksonAKtnbxz1uTL+AvRZnlp5EjNqAZb4QH4w/bc87S62Qm2nQzAdLGwL09Q48GRUKax0qW2I0MoUp5AnXg+UXVnnRbqaCUUfixUcI3B8H7/u4qP+mKuNXYxSL4h6yH6ED+YV/6E57Et/MDJih7/DycjlyGvui80u6HljNGf3PaIP0kfQjR3NkjUk6guNkkzFJR7srf92wRB7TYs8zTQDCum9ei3cpuz0VRbdy3oDFp3jvhjbbt0HVC/eiu13bVkBHLt/HCj/T5NScXOlJLgOW/hrzOqvbhQvmxj+AG584lRNu4zk5rIwa/YWjEzSP1qNl5CVLciICWJLdR/XtwWfAMH0YhSC4S9Arh06Yq5AOjZAmLINP8xT8rafLPMG9aqHO4IubrKdzRQDHaUyFxd07JlEAJO9fzIp2dPsTNpVHCAnpG3mFjemRnrUVXE8ADm3G8hdyrX4lxWcZGGlXkhwyJ4wCH57LATbvkDaGnsLf4VTo6eZhMDtEOvN3qbhVp7gI/qU7YUbYmPv1cpcbwrN9a5vYUS5xY0Srkp2618SzzAVBevejNdKWZaV0GsYdvrUZaNd2Ti4AWLHYiBQ87a4ZYezewIDNgZJdZlIly3LkRtAPNOvPlOZKexYhty+wSo8Iv98dyferZGnWKnocTWbWDPKfHZ11cig78DHr5igJw+Umk3M3RVhdHXIViO/wFO51CzOY3kWz66jGlmwH/vVz0FUzTqW0tqTMfuLu98ZpcaEt6C8KS1/F26wkouGdn9Y78NG1JYtf6Lc49P9e5IxF7dVvY/arcixAXJJpuvMym+xL8Y7gRznpn2Bs84a1t12NXubRngeLPbMuIQ37V6KPmQjQspa2It53EISYSp4Np1FtJGrjO/7j2c+boIscSRr+LCOw/Ks4MK4/Z1yXZpm7PQhiW1d3hy+IPbVnoh9qAybAVYDCMMOR7d9kSACsQ04qblx+Eq9H926uFY+UMK4D+NIsCId12nhNVxtkAFtYVFlIeY5/DoWJRX8tFu7OTc5o64GIngNqFC5NREoKyXQ1b2laPBf5Snx7eeenkOL4JX+Ymr8mnAbAbKKHImrzDqg2zVtkapMUs5VzhVT8CssZBI/WSy4T6+31FCZ3+ajOVqlq7ylRJjAsDzYO3v/kKoXM9VbFMF92dW1sW9xbLOnvE6sxrl1OrDErcmovjsddvZ22+btUssKezXDjVsSTHQ1TeF7x38UPqsRTFKaG6NOt7jK4oGXfhrDTl+k0/1sN+BOa9wx8OlbG3PwmXMujqUNvscGrhvGdWdvbv0AyftWAPKWDrvjOq1+nfA/Y7AknsoQNnwCvnpv63K+EfeFgWDJjoU4gvV8PAdNZ+lXLdxLABUWJli1YYot3nmbzAdh85fA+UcBbuatqk586hbMy90iueB1u06hCnW/wWfp33PofFev/Gb6/PN23dk/+g29zAZGoQgVwXRX19oOgYLeppCwD/MWqSvdvt7ZR3WzN+N5fCbPWlbYqxme2savPC396ZbKbvuP2iUb3G8jDvanajTNGltcV6WycFxajdnpZ1VUwtyMndhiDy+YyDA2V7CG0w5HH6LFjgHk6kFrN1qUsbOHgw8qn7yxgbLezYO/4zotv9qLowV/z/PQVZO/+VtmDd3wCVgn5gYhNvTXIeof++LOn7367ydC3c/GU4pXer61ftWaYzUVWJhyUUZSYSpYZmXiUUujLt6j4gj9OA37GEiGeAb74jzX+yH86yy9dzrs/DNyOyr1gtch+44P4OCwqI6THc7GjqFt6zHdNJY4eCxifbKrnuna/pWdxh3Rp9CXJKvzNu3orgzK/eCT9Df+E/n24qf7W1TFH0rsahrL5bLzlXReZwnYT9jp19qAxHhroLPY/cawVhxT3WF75Z73/A7HWiW8zoc7dYMvNFb33i07Utdx5dMKHnT0vYaR8Hxetl8FS8b5k6SnnPcNeg/n49/QgU9LKuk9cdK5vENdL8XTtwsFdH3clvem7kvKZnvp7rYlYmsBdv6Pjc+1vb+mkf9Mu5LR4TPucWcR9kJzHRe+Okg+pQI0lxokwQJ361+zLWelXvA4ZN/wAZg+RKpZyQ5nZx8v7Yo2PRPMBab+2Nbt7BKKa9NG9/sEcqFuiIEbvLFvzAaewhU2Yi4Gp7L0TyPS8ZB674d1OcAywUES5LbCwq0hO/0tdbhGBU6qgBx4D58WJ9WCZVGBf6fApn3PBL73EWWnnxWmhQqcX4FPvTE4vyyskAr8qAKHn7vDjsfostMf04leVOBsCshRAv/P42zlsR4q8FQK+P83+J2P0tjpn+pmIBkqQAWoABWgAt+sADv9NwtKOCpABagAFaACT6UAO/1TbQfJUAEqQAWoABX4ZgXY6b9ZUMJRASpABagAFXgqBdjpn2o7SIYKUAEqQAWowDcr8PKdPv8tg/9q5Pj2h/YbkraKX59Q/XFF9mjy1990TlCYVqDxHQ3dCL8m3ZdG6mrufL75viEcFaACVIAK/BUFXr3Tw9cYSKeMTgyNWLfy4/qG388mNvH3fqpdNoJtsfkrYiSwmYWXxNONI56IbImrxSnu+UywNFABKkAFqMCLKPAqnR46OuwsNmvt3NlAa+/WRv9Rv8hwCva2742++ss3pV8uo2m/X+B1wA90+vIyRL+0NCuD+jmkAlSAClCB8yvwCp1e3z9DG45drS12nsV7aV+SawDhRFLEQr7rBheD0D+MIt8n/Xb9iBcfthSs2uBT7+kbH+31SLDl4JQKUAEqQAXOq8DZO7100V2Laz20NNzSKnNFRt7RFXr8T/0w6p2y8h+28TfQBKN0eseRa3373VjGrwBkxPDf8wlSHfu89zUrowJUgApQAVfgzJ3eWl/tm1734u8klU6JrXs0aQ2V8Wj1MYzBAF/6u/H98na5XK74Z6d9CbjBcN3pF1UFjRgAig1lxelPizRQASpABajAKRU4cafXtrZ9FyurtV3OFttxsfv7ePxjsWCPt+cSAfbxhzclT7jEIPLFYHmHPd7pIVlDlEzThwbNh1MqQAWoABU4lwIn7vS6Udrbsk/H5i2668Ik7qM75ofl3iplwZEhduMfDX6mAMGxmIPPdPr224UGJkDtxU1m4YgKUAEqQAXOqsDZO73sm7a4/7d3remN7CrwrCsL8nq8mmwmi7n3AwQUSGo7j5mJuys/jiUERan0oO2Tcbwm20LOdTd/ja4uNdbziNWCWUaiE42AsVI9ZwxPadSPFyIWPhRI28Y/8MSzdJYSJB5bVIAKUAEqcGYFrlDpZf1qoa29sb7rArpwHe+yazGVnrzF3/nfbvEBAOTT5w8Nhc8MpoeS9hyw8V/zGZNvEIMCX6gAFaACVOD8Clyl0uNKSkncv4dGT7apABWgAlSACry6Ahes9OMt+auvHPlTASpABagAFXhGgQtW+mdkoQ8VoAJUgApQgZMowEp/koXkNKgAFaACVIAKLBVgpV/KQiMVoAJUgApQgZMowEp/koXkNKgAFaACVIAKLBVgpV/KQiMVoAJUgApQgZMowEp/koX8BdPQbyji9+r/gpUghSso4N+rwX8xfIXV/u4cL1jp/YCM76pp58RG8ctrqj+OiPiTv9a7BIVuBRolsRuVlSXpQyN1NXc+uw1hUcmr+cnwQ6iYSzQARWwVvhLNR4BiryEKDBIMfIio/jpuo8EenAWpBGzwV+sIUyvNBq9kMweMBiH/msZ5XpFXhtC/ZOydNl8bNmMSgaDqDwy/ndS3f59ZyjxN64AnUNZmZZpIzV51y0GwA5+mULoX/TMAUBqpGAGMLoQLVLIW/zIS+6Fb93z0G0Cbu3qLLRpdWvYvp8BFK30cjX4WPu5vb/d7+T47OZh+qvWQRrAdzOZvh9J9rGfhEuz2eaOJZx3d+B/ymXGHRZm3BOCMoGCuTcUQjsLVJQH8Sn/55fsVsF5TgBqZxt3nyRY01fSWS1TTAiayRnyltFj3RnXTRUaSLCX+uN/fNQg4tLwwsoGfzdN8fTnu0wbS4O4v/VioynhOFpalPjXa56sJ5Y81yk/p2HQ3PCNVNArTsBpmzADsLsRI7SMIUwVf8z/YJzV8lcBt+vp4vuKRU9n4Q1aZCwR4Fj8eI3t4QWQhxs71FLhKpYcvqcWTP56547DphQZ/Ol42hPjHUSodHZMhQJf27XYbx/H9Bs8BNXHfa/XQe+Jglu6FQumkz6dbT+GEUzQyj5ga2YUp/a2FQCgiXNoNpctkURhbA3IkW5K7XoKrde9cl32gg3NB321eiEX/47ahIaZsOHmkWMNN/lWeuru3qVf6HMwXdkKyOua5SN2YhsfOnqnCdWqIzzjMB/zjuJd9ssPf8Hlmvshh549rXfiMydVxMQZqNMx1N4FJJRrOp8AVKr1scD/e4xxkTZLDEBeTdGSonBDswEUhe2Hhb6ZxaqXQ5zfhu/d6F83HcOMvZr+KGp81sgSMn5y3uao0Puiga5QH1gXZhamB9KkEvUFZ+k0XDMlBvO0wLXgXHMAXSh4C7o3puqswg/QudpvXk66h11YHw/m6p495X17dBv49rbg8WnmPwTliG1OamgNyBe6catCi51n70Ma+MdfoJLTjX+iJk39Os8XfDljqAljZLDk0/9JFPg4Fa+um7auAPVztbTQHXliBs1d6PRr1IisHU7Z+DOeItNysEMtquPIfNi31WujltjWoAuT3R+ydcqLVuvEvZicZMPvGlAANAjqwxNx+ogIfoncuhWidb+TImCrT7V2iNa/4uptBYs+oRfAo28nffdsyAH4WemtFxH6yYwREy6Lao4Kacoe8OvAeT2FPpA1JcjKQDZfTzEv/NKbTg9wZIq3hPKcDLvqIIYuw2DnHgQCSacHYFzipP6Mn7KUdjc+vl/DEnzbnVSKx6U/Sjzk2/y0fD4A1cdPRq7FtHI8COHYKBc5c6Td7uh5MOGoy4CdA2mMomtEYK7/0d+P77e12u8n/rnRLNpY7px1weKfZ3INGNJrDptsS1Oja2yCszXZruXDgI5gLM3ioJMMnL2rTHaKl6RejlMZ08NWL67DLJuTMaY8PmZSQgyLRVbsKWnvpv8trk/Jc2jsWS1zcHefrqTqBjb+YMRG6OVR9xYj07ukyRnyMqfgEZ3fYB7rHeFWcsfDygqyHCyQwbxdIey3APNy4o/H59RJcR21TkO4ukYytaDb/HZ+SqU6tDK066u5SrRxoO50CJ670tvvnMyj21cEUe+7+PG9gLxcs2OE8h0s0Il80lrsoE/rwxh/yRg4POXptCSp6BYXrVZsruWoqiI+BmiHMtRGspIFlIQb2/mW1olPTBrEtfnhoopLWYoYaTYQaZhd6cADO27xt8TDxKm9xL52RDAFsQyYd8K/yVN6rvO3hJ7JIIxO0CadWs1sgZIyY4idiO9P0h1aiwRxlPAfMW3MAYelDNyDVD0YCZ4v/gGcARApszKPNIl1k2oY/+zmU5hbG60cnpMb2mRQ4caXPPV0P9OZgjt0fF04cBRlwBIjd+Lf7AN9jQvBiC00nWK/YuPYyYsMnHTatlgBhvnRd1DSLyS1MNUZ6oZd4wxPYJjgmIY35R9apRkpPV2+Hr/aGtFC9M5f8vitsbLaofZe3l6IQomdK9MayFIBe2rb6CB+Y34Z1ktjqs4kUfxCmdRclOFO1VmPaRq2r7Gw6wqdOLGmoW3Y19oA/4CSJLX66LCm2uOYzL3vzhxlK6JxsRmgpWlfwYYJtlN2TKnD2Si/Lpls7j/l8VsRJrOnjYXJzlJHoRCM2hp3Q+dyFpzTgKopAa7QDvjzU6hl40iudhti6PYH0x4ylGZ0W9mR3MbmFqYMBB1unQUhCZ62U5lJBVL2kxQTQTnxprde9cy19wepMFDSt/q/OdP+t5oWpgVvJs+ngfN1lRQnGfJKS1ZkrYx9w3/qKJG0k8mh0YP3P5yvjYS2dFl8TzT1kOo+KpfJHqpLXJ1a9EkntwTT4f3q9BMcVTfRohV5hyQbSdOvkD05KueVa7QXH6q8CFbr0QfbPrMAVKr2sHxyH9cEEB1/vceTE3y+NvFx2/jf//TtHyWKsxxTelyXoYNjui43/mk+kmxodJo96jOC/EJjinzMIVruCAn7Mecy3mGsIDMGAXk+KAcbKClcDQKDkqD8MORRGDsyx7jVD6YlHXb0xDAnQAcye1wJyaku4khQ7yBrAq9AQAP7VvdKBCG9CJJh8qREMZpDTyppvZRm2/0ZCz2JHbcVviW5hOZRs0hbJA3XDH8zhqgkSK/GniY0hACnrUuwAX+waETlgCAKGUosVSg1LS9jP8cWFnbMqcJVKf9b1+zXzksuIt8ivWQ4SuYwCz1f6y0jCic4KsNLPmtDyFQX4huErqjGGCnxPAZ677+l3lWhW+qus9J+f5/hoMz5z/PMZmYEKXFcB/0yfH6Vddw88P3NW+ue1oicVoAJUgApQgddTgJX+9daMjKkAFaACVIAKPK8AK/3zWtGTClABKkAFqMDrKcBK/3prRsZUgApQASpABZ5XgJX+ea3oSQWoABWgAlTg9RRgpX+4Zv4rruPrL+I3Xau9/sb5+DV0Cdn4p/25b95w/Jo1vpJD/yZapNI5CQePejjJv+qg6gjZaOD3kjkVnWmdkg/ZK0hx5FaDVr2gEY2V15dtP8ZzxyBoR8M91VC/hcW/NLLq7wHxKpHfUzWg2KACVOBfK8BK/3AF5KKOOw/uUrF7JdXL3J3wkpT2cNrhaKX3WGCzxTcfzCKWQsG6zg5Af0UzqII60DSO4fSIchfikf88HqkmErPv1y3f57nLveEPswkPhYgeeDRsfh1LE4RdKvDSCrDSr5cPbjq5F7MQxy2ppTVqqZitky1Djgt+h/NMpa/JFDhwYwJ4b8+j4fbvGyFRNMYbzZBz9FP2A9Lfn2rQiMZBui8PfZ/nLnXQjoZ4whZu8oZbNBpys/855i0vu1SACvwZBVjpZ13lYvM34tMfmpFL0Ao/XocSsi70eeOKf5auxHmm0id+0F1dv+6G1CKgN4yPhEwf79rH6mZ3yu+3/27v5n17V/agUaCAred71Hfy5ic9Tz0+5q98Aq569q9Ln+vdYrqB9bgB65ZE4wkldQDyA/Tv8tQlDAFtvWZO6/nazsAxnVfMEkfYpgJU4AUUYKWvi6RXYr3Syr0nV94YHrdnKxzFW7H9hi8jgKOV3lBKLVvjB12HDYM0NOY2/5Wd4jQ6hj8m0/hEiUi7tGTqFmbF3oKRSfrj04LPLmBXfDTApUfMj/tbBAK+Y6Cr2IRg+AvoCnOB43iPXms+6P1hnpKp/eQ0Z9IxcdsT+nB25J8IMKU0jl36HAKEsUkFqMAvUICVPhfBa1hatGVmv2O9bMD/CReHMM/XpFt2OK00RfaAjUYMScNhi3HUeqh0bRi6ApsXdxQG8JBm2D2fs/HX9NDIMDecZ7qeYjs55BOAGWWm3bxiJur2DZ6YoCdHVrEnzNhdEQZ0/ik9dbr6i5rGo6YLnnOj6lTGBSO3ehlihwpQgV+sACt9LI5eY/iR8RjZXZFiH5c5XI5gtfgw7HAeVnosA8F2V+m39oxczgumMN6++bPNmKQXKp8PvoarNUwVCWg/+WAxsVGD5/BXYApIX6ugwrf9NKA1p4U1VxJV86esSNLg26TasgfSlucn9TT35NDTL+YlppzbwmFwe7SMi0iaqAAV+JcKsNJX9fUuy+tRBnd3n9jdE3z6jRp98JlzLi7PDb7HBq4bxuvO3tz6vKLS6KOCzwseMhzXafXXCf8rBkviqQxBegs+AV+9t/NyvhH3jYZgyYqlaO133tqQpvrLPIUjfGbjlB/M+sBN+APgAyAOUwEq8IsUYKWfF0OvtKwtu8tP7OEFHWnGjShYw2mHs3uUAEgrX5FMKffC4fPY2X08XiufLFpAWav+4O+4TstflX7MN9C/2NDkb/i/FcqThwy7np7BiXlfiA0+2nR/sLvr11/99xPhCU2p3z8U81fwBELPzj13QZVmNZ/qwR4VoAK/WAFW+vXiwJUntyRc6OEv9iy+epd6Vzv2KW5G7nCsVMZnvlHJDvCFg1y+CR6stvb0GK3Kp0140Hm73/032jyf0/JXQZN2/rgKU8ZnDFpT6sQAHfi0pJLeE2eA/msBN1+PZwpRFd0tBGwCdPGlRxvbVIAKvJACrPQvtFikSgX+oALyXLB6dvyDKQlNBajAX1GAlf6vyMwkVOC3K8B37r99hciPCnxZAVb6L0vHQCpABagAFaACL6AAK/0LLBIpUgEqQAWoABX4sgKs9F+WjoFUgApQASpABV5AAVb6F1gkUqQCVIAKUAEq8GUFWOm/LB0DqQAVoAJUgAq8gAKs9C+wSKRIBagAFaACVODLCly+0ue/LYKvGZGvYWn/sthG80tYHn0Ny+SvXwmToNBtie0LYLpRv5jG0vehQaqakemXdwcDqQAVoAJU4PUVuHqlh28Fk0oZlRgKsS7yx/0Nv59NbOLv9VSrbATbYPNXxEhgvazcGFt3lXjW0UI0nQ/5pBtbVIAKUAEqcC0FrlLpoaLDAmNx1MqdJbXWbi30H/JNs17ba6UvZd8LffWXb0q/3UbRfr/Bc8Cmcg+eX6r0lc8MARqwSQWoABWgAudW4AqVXt8/Z4XOBa0ldu7Fe2kfktcAwo6kiAF7CJCHBnAxCP3DKPKd9W/3j3hssKGkVVtzmd74Q7LyV2EEbitBzcUeFaACVIAKnE+Bs1d6KX9Yg3EFWw0tBbSU7hzBaqrQ/nddoMxnocdSPzDG30AT91LpHWf+DYHGcvp7MvHZ/p6PTtqG80MLVIJtKkAFqAAVOK8CZ670D2pbVNqxuqVS4tOBDHiFlPao6tGMBgBN/g7yfnu73W7yx03dko3lNltXeseHkKARDRi0pow4/WmQBipABagAFTilAieu9FrW4h1vXz0ZreVytliM2PMtexZesJeHBrDDH5cNl2hEvmh0jtrPhD688Ye8kcNDxqu4zP+soDmxSwWoABWgAqdS4MSVXtdJa1vW6Vi7RbVcmMR9VEf8eN0eEWTAkSF24z8X34iJRrDDxlcq/fJjAgFqDzeYh20qQAWoABU4pwJnr/SyalrivCbbMs51Fz5NLystZXiK1YJZRqITjUCxUj1nDE9p1I8XIhY+FEjbxj/wxLN0lhIkHltUgApQASpwZgWuUOll/Wqhrb2xvusCunAd77JrMZWePBLs/G/4D/Q0Y8RrKHxmsH6wyF248Q+8QPdHlEE4EdiiAlSAClCB6yhwlUqPKyolcf8eGj3ZpgJUgApQASrw6gpcsNLzHe6rb1rypwJUgApQgU8ocMFK/wl16EoFqAAVoAJU4NUVYKV/9RUkfypABagAFaACRwqw0h+pwzEqQAWoABWgAq+uACv9q68g+VMBKkAFqAAVOFKAlf5IHY5RASpABagAFXh1BVjpX30FyZ8KUAEqQAWowJECp6v07d/QwbfM4BfSiNf48X9ZrybvjG+Vk+7OPlS1BIBthgCSro4Ck//4Z2aO9iTHqAAVoAJU4CcVOFulL19RV4v0x/3+rtKJ2SuxtK1Mq3Ox28jObqvwcX97u9/x+++0tL+9ee0vld6z9seHn1xRYlEBKkAFqAAVQAVetdKXih4TirIqltIJl8nsdV/+cvztNkr9+y3q986uiFro4U/NR9r7bZT6YCGNqPSVnVNIkmxRASpABagAFfghBV6x0uu7bH/PjDqUYholFj1qhbURe2iwWCnr+ol9fIP9zq6xnhBzjbY8K3xE4cc/Rz/4yCxiEtspVfLsUQEqQAWoABX4rAKvVumljmaBrLOtb41rLzy9OIdBP0m/K+uBAQAAIABJREFUvQ+7lnqr0vgEIE63d7RLfGJJq72JH6U+RtLZUsfAYCL9/L8KSY8tKkAFqAAVoALfUeCVKv2DWtg+0N9U+tlsFi/E77e32+0mb8fNsrOXQo8fFUiAFn37fCC6DuSrFQNuGIj+xABmNqkAFaACVIAKfFmBF6r0Uhr373p7IdW36vHpeOozFdhhiOeEaBhidKPhmSpSPEGk+eP+Zp8VKA0PcyoS0PmJz36KHslXKkAFqAAVoALPK/BClV4npbWwF8j2/nrMflVK7S/V42/GjQ/v5aXBWmne2fUtv/9LPX+V/8cvYQNJSv3duwYXKzOzE0thFr5sUAEqQAWoABX4sgKvVulloloSa1me67F/Fp610/+VnT4s+G/BR8GdEaxkl39BpzKb/d0reEgvULd3rPTSfnuDf0/vWZUCzmAxpcBlgwpQASpABajANxR4xUov062FufZADi2p4x03VFYwe/GdIayi7yr9bB+fDliY/Nq9/GQJh5z9vft4RhghfKECVIAKUAEq8IMKvGqlRwmkhnrBRjvbVIAKUAEqQAWowAkqPd8RcxtTASpABagAFdgqcIJKv50bB6gAFaACVIAKUAFWeu4BKkAFqAAVoAJnVoCV/syry7lRASpABagAFWCl5x6gAlSAClABKnBmBVjpz7y6nBsVoAJUgApQAVb66+wB/bf981fwXkcAzpQK/EUF/Bs0+C+A/6LoTLVR4CyV3k/Vf7WSjeKGXyavpjx80Y2GKdW648tvp2/fCSAhoKPApJHZLIGZLSzgum/A9wHsB+dowKjYJnh11G8Wipk95m8eEWA51vwX+IPS0j/dgWolBAMwudJsAf7dxFuexR8kKvZPrKXFoT4wr8pmbKuDFQA+ZZKls8OHGSQOGPFc2Pc4K5PxH5xBSZedTLxwflaHRgiRtvgQg/5LPYXu7A+WtrZ1pFwoOz47++Lbt/3rtGRBNCxXJnVliwr8sAKnqPT1wPi33o7vrDPBxMWuBDuUfrysJyM7u8XL99rey/fiyX0g33Wrf4Uevu5e7I7+iaNs10sE9mXWbCNVH4u+YghEzraMNXTwikibSDiqKNFTMGXiX/Fr8AZ0748Sa/xx06maKVT70wUQqpd0UMCBmFtrCMMIwLENT3ARjwjd4kDA3Jz0UYMvXelINkx3f+9whU8fHP0CCR1oqoa4U2OOJol9o6MExMAmGZohVkJbrKbHfYJ89oQgwRZfBjJbnPd22h7Yy2wLYhl5gs+Wp8Wuv31T+UMk5GGTCvy8Aq9a6eH4lBskFepmOVVyj8kfk73JX5sXV/kj8qN+7+yKqIVenwb8vhx31f02DJGu3RNhT2ZfaT0FE07RyFRiqtc4SBjVN/5YbwR2KIvCWPvrvPZ4gRnQBx8+dv6RUhpwB1bmFbXEeKcGuFUXXhbdN0IMQKPMdoMD7ovmUh9QPrOXXAskMT3jk4gSEb3GPuyKmesEeraIDaUwQ2RdMPV4XodG6CH+TpNP2ttsIbqNOKHdfHf2dZxYI1c0zDfXyGP5SgV+SIFXrPRyIPJD0HZaXJfZbCdS7Lf3UW2k0H8c2xXPguCI5nFViOy298SLK9AJ5qugj5+8gW1Yp+qD8ZCRoc+3fAoRUa6VQUHSd0fxi8weVG+35Ar83VUHAX9NIKyjAVmRkLSDTI/xPga4DV4LMbDjIqr5AU4NtZ5jF30EBz5Q6o+GK5xhe2q6umIzvlOZoHBaJQEOHJAaQwVfQvF9tg8+ocO84yyBQ2gP8AtloPkVO2xXeLYUJBw55rPjGdSKBmFdNwTs8QZfx9JKBQ4UeLVKr0e+3PXlpOVM5+NqjsOupd6qtJ3EnV0QE0ta7aYepT5G0tnIxEByW7emiaABUMTcfuZ7aUox3TdhEOj/bu/O218dATLnUAS7F76bNFu4SBTgRwROL4yjIWO+yhofE3Zrj4B+DYDPec1nlTc0RfgHOJBxNCXAliIm706eIFdqRcO9tezolJFPjC4aMz6ULtvBrmidFiRI+osEkymmqHi5f8p5CScPX/C0JxVf4OAToQ1/p9tn7X220rfkmtD5xPPLAR8IKzrYpBPYRTh8tey5Tw6dOUgFnlTglSr9+gxsTvhsNouAyDF6v73dbjf536dm2dnLxWXOebC1ZZ8PSLx2HcgXIAbcsHttjGtc7e0glnbBncqdfsz7dpe/vQv3mwiz5Y8U4tqDjI2/uizwI6L5h33c/HHXFUISZPqnf2+VgD4In2/PQ5baMz/A6eFbfWTASOtSDPrb6SOuhjofHMD2Gn9sXKtYttKWWdwDEvVUnKnCYSZsb9dXYHyJyj7Z8kxYEGiHv9Pts/YiwxBrIVBwO+CzPEcRKA2TNlQvY4tOKrUYpIkKfEGBF6r0dlrykhqzxbsKBBBvv2/UPAxx90RDBvTzfHNvdizughMXSib4uL/Zo7wCGFwy2fBLB28FshkqTmbL93t5KT++QiB+5JN0WDU9fc1rE5aJhS4SXzoACER2+MMblAyLNjQOV64SKhOxHEOHyF0DKjqu4DQiBpehPeFV31XeIgl2AHHg6+zEjNOsGaJXold5kTHiB4I1EqfKA3rWAYxf5TVbzsAT4NTLPnGH5JPBmSy8DvCXuon/DnBl77PN+D6ShDGDE93xjCmBwmF70JCQ1dP5gzAOU4GtAi9U6XUOegbqwc0jWmbpJ9GNo18uooCESu/+/uZ2nLosq+MIwgGWUn/3JwuxR9HJQhmw20YjDPjlHcc2/nig0RpvM5JojEfD8FxdeZ1/cCUW/EGIBltralAXr35f10jpYdYIzUYNSPtoNZ5tHPbHA5wauNWnEc6uRDyYial07JSASqh1nSRMWjzquo8EdcAjd6/i3XAE9fM6lASJmi11SHI73T5pT0DFh+g2Mvjt+OzsMS3YUWE7aqiCuUBHrhyjAs8q8GqVXualRwGuPz1reen4v64pRzAO8nzuxC9+Ax90M7t8/gy5skLZcPz7pDf/B0Vi93Mq7RYNCVpTKHqgT3Nk1hk/DdRwrYu0hkNoUso+Om75zyqWd8OWYI0f7Pp87SPOqrU4IyFd+9klMLVRAuqQ9Ka84AKUW2JweqKJ+ghmLCx2VN0Y+Z/vW4QvfHAA2ghpZwN3kTgWj72eD3SDlNYEcjqVntYyx2oVFqUTyApTAkan4Gtnodvn7OLtjDUy8uJIUBsyrvg80AH3AsKt2ipLEFl50EYFvqTAK1Z6mWg7PnbI7T0nHBQw+6FugfF2ufxbeZVSgldPAKNU2LBV+nGZambICTf8weLUAJmDzyBG4l8IHMA8GBIs1yBcI0GWIqu38e59CrFYVBFARpjzR6wE2vnrLReJtaFB1T9xYha9UQNCzm72gWJH+DIAy9LzLfqoj5faMTXMgALNqy4BxXuRyEwoXUakNW1jv6fMMCTzhe42Ww6AQuvAp3RInn2+W3wYCN2E1ifs6Frz1hHfJg2+zBciil2VahqkelNLhJjjJzcaqMDnFXjVSv/5mV48Qi4j3iIX3wSc/j9Q4PlK/w/IMeVVFGClv8pK8w3DVVaa8/xNCvDc/abVuC4XVvrrrP34lDQ+W7/OzDlTKvD3FfDP9PlR2t/Xnhm7Aqz0XRH2qQAVoAJUgAqcSQFW+jOtJudCBagAFaACVKArwErfFWGfClABKkAFqMCZFGClP9Nqci5UgApQASpABboCrPRdEfa/qgB/4++ryjGOCnxeAf7G3+c1u27EBSu9H5DVN5n4d2/g76dXfxyRbWOjYNV6l79uC90KNL6RoxuVlcH1oZGkmiHz4S62qOTVnGX4IVTMJRqAIrYOD1RjCGzx/S0yuLNPI0GzRYS9RETeYgWVxxQSDHBgeq2Z7kU2FWYGX+0TA9zgtGy1azFOExCKnkf4SRO/F6ZmiV5LkIK2gSFEtTpLR4PRPuQu4xU8p28t2vEHe9LsO6vkhSzFPp9rofUUfmwIwJ63RA5G3jTZQtpAt8oYTG58j1cRT2mKTzTKMDtXVOCilT6OSj8LH/e3/r14ctT8NOqxi2C7wJu/3QbuY708s26f95p41lFJVi0adchnxh0WZb6Cs3EEPcYQRsLVJQH8ShYhsV3hdyNgl2aFTs4LO0TqfR1EdzjL+VSWtaeLGpnjW2xBFUlVOC/2Vb+IA6cm6z2dnn/1ch+0xxmf8Zon6lMFmtHEUmSDOdaBiJ3cU4c1n4isjS3Ojj8GIM0NTy/c8zqOSbdzXWCewkdCdW4lPIb2/uFS19fM8zfzCJCqvs4DaGxeRoGrVHo4DvVAxanQJdcLuf3dNvHwu1OPe3T03EkP0KV9u93G9SZ/vD6+Z7cm7ltMTmXcOk6mWcIcFAq5DvmJ/lM44RSNzCCmQr8Z5ulp7MaszxIO15Ai59rerJCgjQQOuITtoCEwoT/44SboDw8P9xXgHDctS80FETCXA56wUhAAMNisskHmOuAhzZossuWuh69bnMq49gJRzL5IDcl9jvis1svj9PUJ/PJogMEbylv/B7GwIsMzZhYNG9glxgRsn1SBK1R62eBx7Nt7FD1ecfH5nVBOCHbwgMPbHXAxCPub9f+TQv8RJ9GGdhtpPoYbf0i2enM940vA+PHi6U4qjQ/6zeiDn3qdyLb5IOsAVmadk3/UHfYJesSv7fu8a/+nLthgvHpTZYMlr04sn9w8s7y6ytgG+OOmJ4k9Vd017dBtj69eRkPwnFCFyp64+1oUUBxYu4vVU5TQdN+2Orrj2AoM1mlsODjQkcz1iI9H7H0e4/eLJgg6eBi8sR1wh3pZuXWzF3y4vArthwteItg5iQJnr/RyetrWLgcKTyzc+eLjN6BCLKthIqX/sGmp10IvV51BFaD2f9vsRvQL1TbXxr+YneQT21GmWhKgQUAHlt4GPl97LWHrVDHLGEZpjXMnC0kjShrNbsGDEWBs7Nu84r+YiTKXP1loP5CgkPIOquY2eQ0BlNbtHbJlU1og84INQvZ24kSy4gLoq/2Evr7ITzAQ1PwBeeqAb64kafmc1E43ZIXtHY75POAvw8G08AzrAZ9M7eSRmLQn/JWOCVPCt/ut8Jzuh/lcDNQdx5I0O5ZlxTd92DqfAmeu9Js9XQ9UnPz6DA7HJ5rRGNtA+n5iYsyN77e32+12/wBYH1rvovnm2fiXVEB/DZvWliBg1KP2MuiJluD6NV/dBdR+3u7zX//V69L1w8BGtA/lFZ4jyiG02ORNs5Gy3Gb1WO2tSEWuHbu8wA1LkDKDQ4rVxnc4kag3MhQeK9CpItYe+ukclYT4rOREb3j+bSUuZ4j+3eq093wwOts7HDtQxnrNXyLXG1K33EP9MbOzT14jf5x874+dDpmNR7ebdbXfMC/m8/aBggbqm8wDtq/q7hS2Xhw4kwInrvS2++FEjnXbHSix5+7PYwX28lYK7OMKlJMWLtGIfNFYbqBM6MMbf8gbOTzk6LUlqOgVNG8nrIlH4BC/dmvZ7X5MuTPoAdKEMyKfsNcZR8YmIgJJO37GPSq2FW/zzZHAqRMK8w5HeBnWyJx5C3h2bCY1TXvbGZOFnWq2QmOVt1Z6/LxlrWe3egJ/RSreXuXd4bQHxAlWsbo4nshkUUWnQPepQorbWAFzmPE7UwQqoQGA9DLBDsfCKi3PsX2nDw5zU7DgkWR2oOV0Cpy40uta6Z7Gg2UlZnEAx+6Piz2OAh4xaY/YjX+rG+MkagwEL/ZRnngf3PiL2We0cXGE8toSIMy+7haEo84DJi35vhCJo89ukU/S+Arg8M6OeTcU0cUK4UH+USkXHo1BJFN72VVjAg9mirPrxT/gkseMNlsUUvhkGFbultG7MZMeXgfW7lqXLd2Gj8f114Ye0Yf8ZRBn10F1umP/BGJ1UogQ2BpxXSzxxRgeALaxS15wzwtj42+IG7bPbFigJE1BQgJtmN1zKnD2Sh9bOy+39YESa/p4mJzIMhKdaMS+sBOcB9cHwlMacMR9fLy2CwAfEapn4Im5dKpf7/UE0h8zlmZ0etxz/aPJKXydeSfjSXZ2G5ckztkj5HVjb3l3FMXuSy8h3sYM2NZsuZLxr+MgVl10xghuIDHFHQ7m2rSnXRagELDBF9dgXzoQC02BicUTf9enDEQAWpWBu9sqJVToFqGlscUplLFTsxWw0ake2ut8xBiMNUxSxFK2MXWQkBAI0h7ZPcVjPQ0wSAD+aE57YXYJi8rlucPKxgUUuEKll2WE47A+gODgyz5OVz370pPjvvO/+e/fOUoWYw2Fdwv1xM1neeO/5hPppkaHqVe18lnPZ0I6MkiWdt3ptaL4bQDe6FVIiaiqyHjiZIV6zl7zLih6+kwxp3cffEVNIQLMnnq3T94VDgIWE8eMtd1Q17r5I9DYcsAzp1sVrUlGDzkW9zrgK1etLsMCC/is8h7hLPmjcUzZsuPAQz5NWWEm8bf3sg0LvjBtuDqhnb1saVChztj1dAbgWOVaMK4O0RsTiT4bF1LgKpX+Qkv6b6Z6cK39G0LMSgUuocDzlf4ScnCSawVY6de60PpZBfiG4bOK0Z8KfF8Bnrvva3gFBFb6K6zy35mj3Dnf/d/9f4cps1CB11fAP+1f/Z+D158dZ/CzCrDS/6yeRKMCVIAKUAEq8LsUYKX/XetBNlSAClABKkAFflYBVvqf1ZNoVIAKUAEqQAV+lwKs9L9rPciGClABKkAFqMDPKsBK/7N6Eo0KUAEqQAWowO9SgJX+4Xr4r7iWb8to30qCX3MhgOPX0CUkfjN2hzO+O2zA5y+vV3//4oxqHUH2B2Qylc5JOHjUw0n+VQdVR3SJhrYaWZ1pqLcgCFIcuS0imyloRKM5fK/7Yzx3NIJ2NNxTDbpJUNxwi4b756sMfU/VxGKLClCBf6wAK/3DBZCLOu48uBvF7venXubuhJektIfTDkcrvccCmy2++WAWsRQKn/qaXMj5d5pBFdSBppEIp0ecuhCP/OfxSDWRmH2/bvk+z13uDX+YTXgoRPTAo2Hz61iaIOxSgZdWgJV+vXxw08m9mIU4bsn8lltBELNV9GwZclzwO5xnKj3gO9/AdUN5XzyPhtu/b4RE0Rgfg/iDk1B8egZPO24nHjSisXX9xsD3ee6SB+1oiCds4SZvuEWjITf7n2Pe8rJLBajAn1GAlX7WVS42fyM+ivijSi8h60KfN65cnyucZyp94gfd1fXrbu2mjpjSMD4SMn28q2V22J3y++2/27t5394l1mcsoIECupVkT3ScvLlKz1MjPhgHZvW0h64SCc8P3+epM094oxYZEv9f86xPSrZeM6f1stjOwDGdV8wSR9imAlTgBRRgpa+LpFdivdLKvSdX3hget2erk8VbsSVESkMZARwdGGVVX0YdWeMHXYcNgzQ05jb/lZ3iNDqGPybT+EQpS7u0ZOoWZsXegpFJ+kP1j8kF7IqPBrj0iPlxf4tAwHcMdBWbEAx/AV1hLnAc79FrzQe9P8xTMrWfnOZMOiZue0Ifzo78EwGmlMaxS59DgDA2qQAV+AUKsNLnIngNS4u2zOx3rJcNqyjaE4cwz9ekW3Y4rTRF9oCNRgxJw2GLcdR6qHRtGLoCmxd3FAbwkGbYPZ+z8df00MgwN5xnup5iOznkE4AZZabdvGIm6vYNnpigJ0dWsSfM2F0RBnT+KT11uu/5Z35ruuA5N6pOZVwwcquXIXaoABX4xQqw0sfi6DWGHxmPkd0VKfZxmcPlCFaLD8MO52GlxzIQbHeVfmvPyOW8YArj7Zs/24xJeqHy+eBruFrDVJGA9pMPFhMbNXgOfwWmgPS1Cip8208DWnNaWHMlUTV/yookDb5Nqi17IG15flJPc08OPf1iXmLKuS0cBrdHy7iIpIkKUIF/qQArfVVf77K8HmVwd/eJ3T3Bp9+o0QefOefi8tzge2zgumG87uzNrc8rKo0+Kvi84CHDcZ1Wf53wv2KwJJ7KEKS34BPw1Xs7L+cbcd9oCJasWIo2PmT5RTyFI3xm45QfzPrATXQGwAdAHKYCVOAXKcBKPy+GXml5Z+8uP7GHF3SkGTcilKkdzu5RAiCtfEUypdwLnM9jZ/fxeK18smgBZa36D97TK/2Yb6B/saHJ3/B/K5QnDxlO0S1HnzDor033B/sXyUGY/34iPKFtdIugv84TCD0799wFQVsbAuU61hH2qAAVeAEFWOnXiwRXntyScKGHv9iz+Opd6l3t2Ke4GbnDsVIZn/nGjXqALxx64XBeO7uPx2vl0yY86Lzd7/4bbY7rtPxV8KSdP65CZPpMQ2tK1RvQgU9LKuk9cQbovxZw8/V4phBV0d2CwCZAF196tLFNBajACynASv9Ci0WqVOAPKiDPBflg+gcTEZoKUIG/rAAr/V8WnOmowO9UgO/cf+e6kBUV+AEFWOl/QERCUAEqQAWoABX4tQqw0v/apSExKkAFqAAVoAI/oAAr/Q+ISAgqQAWoABWgAr9WAVb6X7s0JEYFqAAVoAJU4AcUYKX/AREJQQWoABWgAlTg1yrASv9rl4bEqAAVoAJUgAr8gAKXr/T5b4vga0bka1javyy20fwSlkdfwzL561fCJCh0W2L7Aphu1C+msfR9aJCqZmT6A/uEEFSAClABKvCqCly90sO3gkmljEoMhViX9uP+ht/PJjbx93qqVTaCbbD5K2IksF5Wboyte0k862ghms6HfNKNLSpABagAFbiWAlep9FDRYYGxOGrlzpJaa7cW+o/6F02mYC/7Xuirv3xT+u02ivb7DZ4DBCgTAz1tfqnSl8eQ7Rfn9lTsUwEqQAWowAkVuEKl1/fPUIZjGWuJnXtRf31IXgMIO5IiBuztvtRucDEI/cMo8p31b/ePePiwoWDVGl+q9I2P1nok2HKwSwWoABWgAudV4OyVXqrorsS1GloKbimVOSItr+gK7X/XxY26U1b+wzb+Bpq4l0rvOPNvCDSW09+Tic/293yCVPied0NzZlSAClABKtAUOHOlt9K3/Vw8Ku2QpFTKqOejsjqKOI2qHs1oANDkL05ifL+93W63+0e+8W//26At0OKjd4dqnkEjGs3BUjr9aZAGKkAFqAAVOKUCJ670UvDm36H3VZzL5Wwx31o48y022MtDA9jhj8uGSzQiXzScW3nNhG7e+EPeyOEh41Vc9pI0Z3apABWgAlTgFAqcuNLr+mhtKx+t27ItquXCJL6jOuLH6/b/72XAkSF24z8X34iJxnJHfaXSLz8mEKD4zYNlKhqpABWgAlTghAqcvdLLkmmJ85psazjXXfg0vSyzlOEpVgtmGYlONALFSvWcMTyl4Z/2R1Q0vlTp8XcBBWkhQSRggwpQASpABU6twBUqvSxgLbS1NxZ4XXAXrqP2RqXWeOnJI8HO/3ZrDwxZjDUUPjNYP1jkNtz4r/mMyR88SiQwW1SAClABKnBCBa5S6XHppCTu30OjJ9tUgApQASpABV5dgQtW+vnj8FdfRPKnAlSAClABKrBV4IKVfqsFB6gAFaACVIAKnE8BVvrzrSlnRAWoABWgAlQgFWClTy3YogJUgApQASpwPgVY6c+3ppwRFaACVIAKUIFUgJU+tWCLClABKkAFqMD5FGClP9+a/qsZ6dfzbP+e0L9ixbxU4JwK+Pdq8F8Mn3N9f3ZWF6z0fkDGd9W0c2Kj+OU11R9HZCkmf613CQrdCjRKYjcqK0vSh0bqau58dtvDopJX85Phh1Axl2gAitgqfCVa4WEs0oJNVAi7J7HxYlYiIFksyFjcGSQ8EqfkrVPw1O0VIsIfbJ489EiadVpgD5yWatFtOrTEDag5I9zBELpZ+8C5D1l/iFDowHyXK1PT7nCKvW6UTJDLO47oig8gFZ5+rDVmjRT+gNHWvYyEv8wRRoq9DEVe8JYMYTe1ZMoNRFUQWzSqsOxdUIGLVvo4Gv0sfNzf3u738n12ctD8dOmhi2A7mM1fEePsWc/CJRhj63YTzzq68T/kUzGhp8xbgjbskwRzbSqGcBSuzXtBdmEyPBUl5vpxv7+rfesfo29vuRSFRTBrX2pcM21wjJT+d14EGBxNyeWTx3b1zJFsjYt8BIvdRVgIWuGyp3CoA+JMK7PYzzgNxMkUi9YXcVDPnQ6LbJMJcbROunDoCSJKrhAXfBAH+WC7F0jfn+iDbYCvCwwDz+WdVs8QJNlqvgN//lZOCdAIUATIsHlFBa5S6eE41IMTp0JXXy80+NPxYhQPv9lrR8dkCNClfbvdxtF8v8FzQE3cdxteBja28T/i00Gf7hfQXVQ4RSM9xdSuo4VJ/BfBBrPxt0GTuAkdywJlv6H0bDNOzuGAWzo1/HnZ1BXM0IS/bZiA4Q+zaaPQnflXQqjQcn8OrBkHkkzN1bkwp2McVP8pHabMZkCcXaWvM5dss6CAU2XTImv7F3yQzdYfnQCmmAFzj1MFyvgWkQPWqvMWW2SLRnj2M9rB2D+rAleo9HKC4NTXgyO92P4+VE4Idtr9sfA3k5R7+2P08E347r3eS/M53/iL2e+wxmeNLAHjp9VivZh8LEDXKA+sC7ILE15DE+DaX91cHLjV3KTjY4oyvY5SJPIgwEEaEuvSoh3bDjFsyxClE1prz2ALmY76KDM8JyB/gfdcjY0PNbM9F0kM4iCd1v4qTs0rvSHvVoeWeHRnHJ9w+pd10VR5rt0LcYr/vjp6aK/hCBU+mnamlqUXlnAEJY60FrHzjo501nhyDdVZJv1whzd8dk+hwNkrvZ69eoWWE1WunByRlkcphJdDN+rir/yHTUu9vKOHN/wFaPoLsu3mGTXR88rruAYKTOFzvCOnBGgQ0IEl5vazvIBqtsV9syaKWSvE2n8IYRQgSzQ17PYuL+Lkr44t/TGzHIrg4RVzfkJP8XU3QczeIqWbPMFGScT0kPl1zd84+Io5M4lOf2nlSNq7DnPOr+H4dCGpQfvARoee390LTtJH95iKDP+X+0F9Vjhic000xnpiXrLb+AMHQXFEM38irz11vcdTeQIZubHumXtoAAAgAElEQVTAafbEc1YfWb4a2nKGS38az6HAmSv9Zk+Xg4MnUwb8BEh7HKpoRmMs/dLfje+3t9vtdv+A+9aH1jtnvmE2/mJWatFYA3ZrS1Cja6+HHvbtNnPh1q7qY3o2Gg/9+xsiv+r0ZteL0SwyAyHhrw4cM4vG9KcN3dWCYw+kubUEyX7e7sLAKQ23PkN1Vx+QASAN7ljA9mFIlLVSz8c7RqcjuI4q7WGH5nPv6b+BI6GFg5FY6wCS9OaM40828QS82w8FquDoVpnWsa8exGu0Bjy17j3S12Kd18Bx7UK4BNoJZ8GRIAPWLXX3VGsXWk+mwIkr/TiX0/YX+2RsN2l+vmm3/zgVeMGWCpT+4RKNyBeN5R6ab5iNv5hXfJaoYGwJKnoFhWtUmyu5AHkSr45pL7JL44lLBv3TPUQ1wRHJA+q8zE8AIFSNCVrYOkyQDi3WIhR/CQIlDbh6SK+kFkO1+NxG5pF3y79OONNnS3gEiy3OcJrm+wUcm7j+N/Img7CHDqqBJ36oc52w5zKMgGzp3GtnTrvgJErE9UbOa4xUmbp74reRxCkLAwtWA9Lf7Q8Suxu+Skg8IuEA26dV4MSVXtdM93Q9uGJa3CZj9/t9o6/qJgOOALEb/3Ze8T0XBC/20/oIb4gu+Cwgq6klwGkt6lONfdw7npy9jbHJCA/nv8VVdcVfvOeft/tHeBhG5I+G2T3bFqdRmNevOdSuwJY18nzhJnxgurUrPRyNqKmx518nHPgK3ZS7ve/1nDIOwzdxQs8gZritu8se9sCxvVo0VyflmWbpZi9gZP6wGmGHdZxWMJygAf5mfRT1XF5gvA5os5Tca0fg2prCdClN82P3VAqcvdLLYunWzuO9vgPEmj4eJievjEQnGrEd7PDP5y48pQFHOQKtYeFo3PgHnviWDgbP7Z5A+mPG0ozOHPmMZUPWQmXQcxlnuGv8XzFBluoPA0VdmIAGmLZI5Dmcip88wb5uqmx1RcVULbb93IYhW3brbGhFHXDCmkwXVazr/bzDQXu2v4cDS7TXIZNtW4ije971xAhwUmkXPuACkWKFVdPg7M/7s/kLkpgW+TzJ03l9ydYBysxdALubfGh6VeZPe0/hNLyuAleo9LI6cDXKcZkPJTj4ao7TK/55OPyw7fxv03uGiNdQeJeVoINho7XxDzzlqU4VyfmP1w6TNTdG3uBfCLToZ7uC1VTVa2XMtw1FZnzAOPB3Fk11gIkEYCv3t0PoK+KUgIAp7rWTPLu3jKzWIiOgHqBxrVJNi70t/1gD9BiRkrAxXnhhmnpwfOQBzoGeOOXGxMHzdYsjA+toCEkHMNb5J5t0HukxJhZ07y8j4eYzQIzCd49jT0O6GQAu/Sv/kejxGjojAZqm6oN8PbcCV6n0517FXzA7udd4i/yChSCFiynwfKW/mDCcLirASo9qsP11BfiG4evaMZIKfFUBnruvKnetOFb6a633n5zt+JQRPnf8k9mITQWurYD/7wF+lHbtffDc7Fnpn9OJXlSAClABKkAFXlMBVvrXXDeypgJUgApQASrwnAKs9M/pRC8qQAWoABWgAq+pACv9a64bWVMBKkAFqAAVeE4BVvrndKIXFaACVIAKUIHXVICV/uG6+a+49m83qfb6G+fj19AlJH4ztvqn3b4pdqDLy4Cq/o5frSPK/uAGQMqkhINHPZzkX3VQdUSXaKzI6kxDvQVBkOLIbRHZTEEjGs3he90f47mjEbSj4Z5q0E1Sd8K/sQe9aDjPfJWh761mYrFFBajAUICV/uFWkIs67h64o8Tu96de5u6El5W0h9MOZ/ftnlt8Y4xZxFIofOprch8q8NMOQRXUgaalC6dH2bsQj/zn8Ug1kZh9v275Ps9d7g1/mE14CMS/sucWBQZtTvwamCYIu1TgRxRgpV/LCDeO3JJexLGgit0rvV5i1inmca9q+A7nmUoP+M53Lhx4f86jHvcLXkOiaNT6oxSfnsHTjtuZB41obF2/MfB9nrvkQTsa4glbuMj7r+zw9Fl4wqya/c8pBjnZpAJXUICVfl5luWCyhrdCLJeRFX68liRkXejzxhX/1RNDSxB81vgxvLoGnQaGRkBvGB+dLPw/A/MKa36U+n777/Zu9tu7xPqMJSL949mnp3vYF4yMll6qlfhgHIjV0+pJiUzQH+CpM0/48g4ZdfjXPHWqwdPWSzkVuf6i/eH695WTAF13WL8nQOhCBajArAArfdVEr756tYgprky5esbwuCXtf5VHSPFWbL9aywjgaKUf/8NdX0ayNX7QddgwSENjbvNf2SlOo2P4g3jjs5iveMjULcyKvQUjE8DRAJwXlu4VIYgtderj/rbgEwiYXoxCMPwFyNcGHTFXID3XQBirRblgkXeBX+M+z1Pi20+kWzCPidue0Icz8f9X9gXFZuoC2bDvt+bMLhWgAp9QgJU+xdrcKWb2O9bLht3U2hOHMM/XlVt2OK00BZ+AjUYMScNhi3HUeqh0bRi6ApulIgoAeEgz7J7P2fhremhkmBvOM11PsZ0c8gnAjDLTbl4xE3X7Bk9M0JMjq9gTZuyuCAM6/5SeOt33/HPBnu5f2UOZXaOuT/ES7nnEyhA7VIAKPKEAK32IpNfJ4n2nX5HhOBpiH5c5XFJgNb8w7HAeVnosA0miFw4f2dl9PF4rH5iCfTLgjzZ+xTquzwdf01dbpooEtJ98sAgWpeE5/HUMSir4+VoFbSCC14AKlaOOQNlUUDV/ygqmDb5Nqi17IG15flJPc08Onv5f2Y8EnT6Jac5Dk0fbp0WxSwWogCvASu9K2KveKXk9ijHv9dnVPcHHb1R3jj74+Ji9bgbEvMD32MB1w3jd2Ztbn1dUGv2wwPPCQ4bjOq3+OuF/xWBJPJUhSG/BJ+Cr93ZezjfivtEQLCk7Kdr4kOUX8RSO8JmNU7bHuKyZf81+LHfQmN1kfWEiswMtVIAKPFKAlX5WSK+WvLN3l5DYwws60oybCcrUDmf3KAGQVr4imVLuBc7nsbP7eLxWPlm0gLJW/TFJx3Va/tpLR+B/qaHJ3/wts0Js+AS8E3ODEBv6a9MXCezu+vVX//3ELJnlCUk4eV5P8td5gnBl7v/K7kIsXnP31cGVjtWDPSpABZ5QgJV+LRJcPXJLwoUe/mLP4qt3qXe1Y5/iZuQOx0plfOYbFeIAXzj0wuG8dnYfj9fKp0140Hm73/032hzXafmr4Ek7f1yFyPSZht7tVW9ABz4tqaT3xBmg/1rAzdfjmUJsFc39Wdfxj9h3GwE2H7r4lkMb21SACnxBAVb6L4jGECpABX5MAXkeKQ8WP4ZMICpABUwBVnruBCpABf6hAnzn/g/FZ+qrKMBKf5WV5jypABWgAlTgmgqw0l9z3TlrKkAFqAAVuIoCrPRXWWnOkwpQASpABa6pACv9Ndeds6YCVIAKUIGrKMBKf5WV5jypABWgAlTgmgqw0l9z3TlrKkAFqAAVuIoCl6/0+W984GtG5GtY2r/wtdH8EpZHX8My+etXwiQodFti+wKYbtQvprH0fWiQqmZkepXNzHlSASpABajAQoGrV3r4di6plFGJoRCrah/3N/x+NrGJv9dTrbIRbIPNXxEjgfWycmNsXSbxrKOFaDof8kk3tqgAFaACVOBaClyl0kNFhwXG4qiVO0tqrd1a6D/qXzSZgr3se6Gv/vJN6bfbKNrvN3gOEKBMDPS0+aVKXx5Dtl+c21OxTwWoABWgAidU4AqVXt8/QxmOZawldu5F/fUheQ0g7EiKGLC3+1K7wcUg9A+jyHfWv90/4uHDhoJVa3yp0jc+WuuRYMvBLhWgAlSACpxXgbNXeqmiuxLXamgpuKVU5oi0vKIrtP9dFzfqTln5D9v4G2jiXiq948y/IdBY1r9DomHj84A9nyDV/z/Aefc1Z0YFqAAVoAKuwJkrvZW+7efiUWmHFqVSRj0fldVRxGlU9WhGA4Amf3ES4/vt7Xa73T/yjX/73wa+Mv66rvSO716DplLrfNJHRpx+WtmiAlSAClCBMytw4kqvZW37LtYrby7ubLExsedb9iy8YC8PDWCHPy4bLtGIfNFILtDKhG7c+EPeyOEh41Vc5n9W0JzYpQJUgApQgVMpcOJKr+uktS3rdKzdolouTOI+qiN+vG7//14GHBliN/5z8Y2YaAQ7bHyl0i8/JhCg+M0DzMA2FaACVIAKnFmBs1d6WTstcV6TbTHnugufppf1ljI8xWrBLCPRiUagWKmeM4anNBafxg+AL1V6/F1AwVlIEPzYoAJUgApQgVMrcIVKLwtYC23tjQVeF9yF66i9Uak1XnrySLDzv93aA0MWYw2FzwzWDxa5DTf+az5j8gePEgnMFhWgAlSACpxQgatUelw6KYn799DoyTYVoAJUgApQgVdX4IKVfv44/NUXkfypABWgAlSACmwVuGCl32rBASpABagAFaAC51OAlf58a8oZUQEqQAWoABVIBVjpUwu2qAAVoAJUgAqcTwFW+vOtKWdEBagAFaACVCAVYKVPLdiiAlSAClABKnA+BVjpz7em/2pG+vU8/F79fyU/815MAf9eDf6L4Yst/Jeme8FK7wdkfFdNOyc2il9eU/1xRBSf/LXeJSh0K9Aoid2orCxJHxqpq7nz2e0Ci0pezU+GH0LFXKIBKGKb4YHskr4tAsRlANDRfJPr+Oq/hd1oGVTCJLSFLEeACkxubiZYwKSp4n/WPierFsOLtDoIOWIAbEooBuwrE7e61Wxjh5t3/z7lXJgEt/BMHiNpqvq0fNHd+2fa3HLdW3LYYraR4COJYGzYwVLmvLMPujlc8Of7oWWN/ZYAkTYmt5qvyyRjAWJGdRdbNNyZr5dV4KKVPo5GPwsf97e3+718n50cQT+9ehwj2G6K5q+IcfasZ+ESjLF104lnHd34H/KpmNBT5i1BG/ZJgrk2FUM4CtfmvSKrk485fdzv7xVPejibFW79lmJMjBnRPnIo8FsuXQUCIsgA2+DSm4t0YyoxWwhBomDWqa/80Wduz/NqF3rovMmL5vVEalL0LysEweIDmwtGAKsAgX3X3PijeZ1IAMVrbFEMKLkkOlmHbsUHcPb2QxrtfkBmpV3gYQTprxLN38opETqvlXtNw95VFLhKpYfjgCfHbgQ87W9yPYB3uTNaR7vdX/4C/e02IN9vcM5r4r7D5FTWe3/jL+Yos6XTIT/RfwonnKKRGcQ00w+e6VhbOGtsV6/s7e6uyW5LOC1kpSi4jfgTJHYuDSlIf9YegavGPC+BX+q8y4uwk244aO0Kk4pmS/wA6LP6zClXiddekLY4IIc6gXDb6hYeY1rznrHpuh1zYaxtrn4/NDab4I0ZZfZUdR3EGjOLhvnuQB2JrydW4AqVXjY43IX1qEkvSpQPlROCHYGCW3XhbyYp9/bH6OGb8N17vZ3mY7jxF7NzaHzWyBIwfvxyckeVxgcd1Ac/9TqRRZo7JGXmnCaEVdRuws0uXVuAkGqq6QPeXUf3Me0tz93AZ+2reTeycLvvCe/yIn7TDYe8jTCQrOgmdn9/jP6Ooa/bgeKVnWf81/yVju+r/iw3EojPox1fcSqz6dLI4Wj5DDBX0Q2qcgSNUh34OPBcpS8RpSPJH866RLBzEgXOXun1rNYD7cdPV7DcFDmCR1MhltVw5T9sWurlHT18QFCA/F6MfdRuAD/vnjj9C0ydWoCtGlMCNAjowBJz+4lLc4VrNqg9YVhfVokBSf2PEL3HU8lyZsJtNVDtgmuUC6s0J4X6blSLwjpDhijmiqfg44+rtsk7kmWE+2eq1kogmBeuYvVP92qHXtUNBqBZpxXqBwUdv71HtkN9Hs5xmzifx8FlzV+oBE8rpqFy2Pe6BX7D2di384VHDERCzmKf9xt6R1JtYKyP7L3do7xays+sQwln50UVOHOl3+xpM/vRj5Nf3/PB8YlmNMZaS99PTIy58f32drvd7h8A60PrrTLfPBv/kgror2HT2hIEjHrUXgY90RLcxTXc0i2AqocwyEtPey7uiDWPZownorDjVKIcCYTF+8ID5Rx4u0sJPxTVnN1FeyO1tIMFzDfhLbf77PwhFJvi7mlhXlXFHpCzhfkOJ+PlbDCytAtNyWYkssBZ390M1YlqD/Q54lOyjvU6YmeZZo+9IvqWOPkvVytZ7HCq/Xi+zk68XBPYiMv9VvGTz26+sbU9WYZsWooUdDZONJ9KgRNXejsY82kW++pMiD13fx43sMMFa4Vj9g+XaES+aCx3UCb04Y3/jo+H7V5bgopeQfE+lvZKrpoG4seApEt5qrf0pogQzHwbXbykC5j4YaICUzp1xgUkOyWtYrsYLkLBxP9ju8P/rN0wPa2LX9JCRziudd7lTX174HK+FUZ6ms58M7P0VSLgJpnCDm9xU27g4hN2nQ/8HbfzF3sQ7EkyldNchUfUDmey7+ZbHVOGyKCNyV7D0lkcl4R3ARk6tSTkqWM9RdLwqgqcuNLrkuiezutIbGKK2yTXbex+v2/0Vd1kwBEgduPfzj3mg+BMG63pyB8RXfAJoF2jJcBpPbwfd5hpnycn+Zxn+nlrHm38ipAq9gJstgvK/KOhM0Unk6+NRA5kq7kkzx3+Z+2ZClr7ecnIQprtRhfQWTdI1ZqVvvRCTThH6fVpfVq+6CZkmLwhQ+tJb9WwUA2003/suRud7WKB+8T3g2ZqOxHcxkxasD0Yzau5n69GzAEu1OJVUiLhhQtN51Pg7JVeVky3dh4GOTXzkRNr+niY+JWR6EQj9oQdWj/oYc54CZkTu+N05p+p9AnuMPvXnkD6Y8bSjM4e4WhkMTkxwZ1S/hVTJyPQKCmQU7szRQqKX9cMh6VdVmNBsfqrDPsVcucjnqvoXd6d3fMcvE7zWum8wxf7Ss9NvgKD6wJthfS5S8eXBXx2+3mTdv+kcsRf8jmPGbhGai+9H+5PwVvhL+eLRiMyh4ol86vX7PTwsazshXnOxaIZfW3KCDsnV+AKlV6WEI6DnMH5MgAHX/Jx6uqZlZ7cYzv/W/m3+AIV8RoKT/n1xM1nfOMfeMpTnSqS8x+vHSZv+RhZz6fhHHcFa1Y1MtQHCZnrkrPeRCpRDqcttNNEOzvyLKu0pjieBBV7ngCCQTtzJ097IgmOOcNdXhRHwgAKUi2bZV7+Hn2kDphN3uQeXA/nXWkWVxgqdnu4Vvhgs6/cyxm2SYE+B/xlCBIOYAyoNMuSQeAax3YKuCXxTOHDfYXgKSGdGxuVzQECPN3X67XIFLG1IUg9ZfVg77QKXKXSn3YBf8vENmXlt9AjDypwUgWer/QnFYDTekYBVvpnVKLPYwX4huGxRvSgAj+tAM/dTyt6TjxW+nOu67+Y1fiYcfr48V9wYU4qcHYF/P+d8AP5s6/0T8yPlf4nVCQGFaACVIAKUIHfqgAr/W9dGfKiAlSAClABKvATCrDS/4SKxKACVIAKUAEq8FsVYKX/rStDXlSAClABKkAFfkIBVvqfUJEYVOD1FOBvUL7empHx6yrwb3+DkpX+4c7xBRrfWxG/6Vrt9TfOxyUqIRv/tJev74BvCFnjV+vgZH8oAyBlUsKhsno41b/koOqILtFYkdWZhnoLaiDFkdsispmCRjSaw/e6P8ZzRyNoRwO/d8a1ERqwH8TXhwwYeMI2nMYC48hfomw83MWkBHXThrmihNnS6n87TomoU4AobEJE+INtnKLUI2nWIwT2wME863bj3xI3oOaMiAdD6GbtA+c+ZP0hQqED88WtM2dTyw6n2Os3RGUCWPjiX/jASLH7Xqs7q1jDHzDaupeR8JepwUixl6GYAXhLhrCbbDLlBqIqiC0as8KLsNnpyMJKf6SOjsnCxdLAWojdV1EX151wUaQ9nHY4uo88Fths8c0Hs4ilULCuswPQX9EMqqAONI1jOD2i3IV45D+PR6qJxOz7dcv3ee5yr/j796n4q/jgJuv9sYPQJdIJ8wyOb41dQETI2IBveUTKo2cwNr/IWjMpmri+FRxI8oymCiB/VHJMcX0q0itbNUDsTlTyrnGAnDUVDvkjzvSE+3F/e7vfp+/ZdCaIM2VCwxdxUM+dDphm10ac3f2Gc5dcIS6AIg7ywXYvkL4/0QfbAO+yjt2RI8/lxRlk7Ha+w8VPZEYIO529pF1vqzkow59rsdKvdQJlZR38hGNBLbsnO9ky5Ng0O5zdzihApaPAgRsTwH0yj4bbv2/EZKKx+Aji6Rk87bideNCIxtb1GwPf57lLHrSjobef3hm2kWUg97DgzJaVyT2X188CIhlaXjhGci0CjKih3YYiXXAbUTU2s3TvHIlWw9+sApihCV9hG3jWCPrNPnVnHSqhOjMt0B9NKsWccaZUYPgqDur5lA6QE5uIs9tXdeZrQQGnyqZF1nY0+HQKsOXrbMJxYwbMbV6gEHDaaBF1ME9m2iNbNHIsEOFQbEi3oNZlpW+C+EeMKWxdOOnZpYnLkvsUrQbtO3qHszsJiJT4QXe13O6GoRHQG8ZHQvQnJ+wSmN1Py/vtv9u7ed/eJRYfPwOl3NI943HfyZuX9Dz1eGqvfAKsevYa5uon6mK6gfW4oTNPYkYttEsdgPwA/bs89R6Sqb7dP2yl69wWtoVp+6ZHwNb+msbnCuq7SccldHxO0FHEr+gpYgMOTkNiwxcHoF3yGukpROnEomrPfAoZAFV1Jxh0sLYnR/444TYBH2pm22QHOvTEX8WpeaU35N3q0DNbf8YJcSPApVGDpsIDP+MUf1jHmivgex1eumnamZrubF/dXd799hfUBahTw73gtuPXGVBIPdz5FZSVvuqha++LbENFZ5F4DKurlY2wra4/3yo7HN0yjuP337hIw1wpCTGHLfyV023+KzvFaXSM/wCGeQmf2Khpl5ZM3cKs2FswMkl/JRj8rRGwKz7l9kTMNZ+AQFcxFp0F1LVDR+AZQE82EKYswx/mKXnbz7GeYz5VD58k6OImW9mRwkVb7zMNWfuXFYAs0dQw2z/Cv9OT/kieQxE8uIYWQdMnMb/iUmtuhw9XSOk2T7BRGDE9ZH5d8zcOvpI4gfSvjNLedZhziiX9n8Xx6U7S+MBGh57f3QtO0kH3mIoM/5f7QX1WOGJztTTGemJestv4A4eqjgx8Iq/dLO/2yFrqrpHr5yjyzlljaN1Yz9CyLGe+hGGlT1k22pWFi71m50l3Xlm6eVncssOBg5lcxnmd8cPFYcNgjc0kmpd0xTM3Shy85hl2z+ez9Vespci64TzT9RSlfrbA4BP2jDLTbl41MugHztMNTNCTB0jNJubuijA6Oq6xGvkNnsqlZnEem8sR2fu12mmHDzbEyY8GMoa5aFMvRpunE/NXh4vwaJh2Qx13s1fxgU1cB6OnXnrz2q+uNqg+Q3VXH5xWoOnBeTKrZwId6rmTDO4kef1ASnvYodnOWlIqrW/gSGjhYCTWOpSktTPj+JNN/MbHbj8UoIIzhBckWMe+ehCv0c+ve4/0tVjnNXBcuxAugXbCWXAkyIBFC/dOG1YYp9DGepeVPhQZ+2KSX+yTsdY0WAzxLtqHYYdTj37QUfNAAvwY3+3wnT0CvVH5YAoZgR8j4bg+H3wFZ2lmQBtYyeh05NVz+OsYW/KJuObc5Ix5NZDkGUBPNwTKphLoGttSlG2Qk/M0iSKWQGogyVPm2X4e6Tm0CMj0F1Pj57zsNVSVxqHn7J/uMSubPiJ5giqD+QkAhII6lSRsGR0oEuVkMcjThm1SonpIL+czElaLz20szsi75V8nnOmzJdyCxRbHufie8Pl+ASfEgLzJQEeLDtKJH88LIMi/v6VwN8NIaWPC7mCvG3OyE4dEqcHQm3CqTOD5ZN66QVG4gjXlxXu9eK47QnOt8ChB8ei0jg8rK31IoQ0Rtm2cnda4VcCnL230wWfOuVjMDb7HBq4bxuvO3tz6AcwLRQDy6ITdcZ1Wf53wv2KwJJ7KEDZ8Ar56b+flfCPuGw3BkhULcQTr9/EcNJ2lv+rEfQobFWQ4n2ZgPzzyFxXmH/+/PrnNI380DNlV3OI0AmVSbWzRFdgkMa1afYCXeKGXp0Flye4igZv2/OuEA1+hm3K3d91VzRrP0p6rvH4TJ/QMYobeuiXlqhM4/UC6s/LMpZBu9typHbFidnffMTm4aD1e9xYE/HEEcKApHuuANsu9IyaB9k6WsXNdA4jYNVnpZ2VkCdvpXu1BWYQ49NApiytYw2m7aJsBgOwXjnBuGy2msbOHgzdq2tyoQNnuGePvuE7LX/Uu/MSO8/TrV03+Vg79hk/EOzE3CLHBR5uo/0/y1N9PhI3x23jK5JWeL62/qlAx6rLhq+pW9rYrqrXv/o7O/t4i/GGwpASBNIFph0Rq3h1OtfvygnXXFAJtB/TN029QDNmy2+VLO+qAE9YDpsKJtSq4oLYpJ5nn2YsC+WC05HQWOHW7CGCzY9CijTjjg6XZC5xU2gU8uEB8YWZThnX1f2WXAc1fBsS0yOcxT+dFsbztIINZN++0z7Bs7Xx1Rh04w1YtVvqVKuUJrZxM8K5nU/eqa68dexLP7bTDsVIJz+0D5QBfWOz26s4OzK1Z+cCeAvbwb3sd12n5q4BBRHlImnI+NugerocQ0IFPSyr6zfJrNXbzpXj6cuHypBAmRe5NXReTvm9bHYIlCJXt9h/7tkH5OsOuQiJYcBF6e/siTgnY5PX8+prz6t4ygqJ4WEYAIzQez9ph8nXLP3Y6eow4SdgYL7wyibYWHg9wDvTEKTcmLW2/BNBbEmA/QyF1OoCxzj/ZpPPAwphY0L2/jISb00GMwnePA0cA4NK/8h+JFivkFPrrxlUSTBL02N5npe+KsE8FLqCA3Gufvi0uoAunSAX+rAKb8j0n/dkjyko/K0wLFTi/Al96Y3B+WThDKvBHFXj63D3t+BxdVvrndKIXFTibAnKVwP/zONv0OB8q8KsU8P898G8+SmOl/1WbgWSoABWgAlSAChloNssAABFlSURBVPywAqz0Pywo4agAFaACVIAK/CoFWOl/1XKQDBWgAlSAClCBH1aAlf6HBSUcFaACVIAKUIFfpQAr/a9aDpKhAlSAClABKvDDCly+0ue/ZfBfjVx/K4aNwvcjtG9uwRFZo8lff9M5f+0Sui2xfadDN8KvSfehkbqaO58f3jeEowJUgApQgVdR4OqVHr7GQCplVGIoxLqUH/c3/H42sYm/11OtshFsg81fESOB9Sy8JJ42jngi8vLrzR7ymWBpoAJUgApQgYsocJVKDxUdVhaLtVbuLKm1dmuhb39fawr2su+Fvvq/3/6TPxxvGd5v8BzwByp9eQzZfnEuKMEmFaACVIAKnFWBK1R6ff8MZTjWspbYuRfvpX1IXgMIO5IiBvJdN7gYhJR7/Rtob/ePePiwoWDVGl96T9/42PczA8GWg10qQAWoABU4rwJnr/RSRbEG40q2GloKbimVOSItL5gKPf6nfhgVf+U/bFrq5R09vOEvQPjHPxSssYxfAfDM8dl+gXGSOV8bzg8tcoQtKkAFqAAVOLMCZ670D2pbvKce61sqJZZuGfAKKe1RRaMZDQCa/B3k/fZ2u93uH/nGv/1vg77b1pXe8cE7aEQDBq0pI05/GqSBClABKkAFTqnAiSu9lrV4x9tXT0ZruZwtFiP2fIuchRfs5aEB7PDHZcMlGpEvGp2j9jOhD2/8IW/k8JDxKi7ThwbNh10qQAWoABU4lwInrvS6UFrbsk7H4i2q5cIk7qM65oflXiplwJEhduM/F9+IiUaww8ZXKv3yYwIBag83mIdtKkAFqAAVOKcCZ6/0smpa4rwm2zLOdRc+TS8rLWV4itWCWUaiE41AsVI9ZwxPadSPFyIWPhRI28Y/8MSzdJYSJB5bVIAKUAEqcGYFrlDpZf1qoa29sb7rArpwHe+yazGVnjwS7Pxvt/bAkMVYQ+Ezg/WDRe7Cjf+az5j8waNEArNFBagAFaACJ1TgKpUel05K4v49NHqyTQWoABWgAlTg1RW4YKUfb8lffeXInwpQASpABajAMwpcsNI/Iwt9qAAVoAJUgAqcRAFW+pMsJKdBBagAFaACVGCpACv9UhYaqQAVoAJUgAqcRAFW+pMsJKdBBagAFaACVGCpACv9UhYaqQAVoAJUgAqcRAFW+pMs5C+Yhn5DEb9X/xesBClcQQH/Xg3+i+ErrPZ353jBSu8HZHxXTTsnNopfXlP9cUTEn/y13iUodCvQKIndqKwsSR8aqau589ltCItKXs1Phh9CxVyiAShiW8An2wpv9mJLVxBBM8AIpABrD/B1EfvI0b1laAIDA0ytNCtOmYD42XDDgZgyojoqd6RS0i06hhaZAbzOqQ24EIOipZX/BtIil5kAqfC3r59UpAJyMC+DqijbvC7nnEFCDMoTA8eYWqRJQu4e8eHsOjSgwEApirEEwMjOrkA5OBilQRgBTcy7GFqcO52tEImGYfC/F1bgopU+zmM/Cx/3t7f7vXyfnRxBP3h6HCPYbovmr4hxcVvPwiUYY+u2E886uvE/5FMxoafMW4I27JMEc20qhnAUrs17SXbhNxAXOuvNXRVQ5z7fSLxMqSH7vDEhRDX3+7QA4YyNklUiU9Q1DmbqbZ/uE4Sdg0K85ZassiFQYerho8J5YjDvmp1z6A+5xMd1wLTgMr7YWU+Lu+5SDrtEp+vH/f4OAUoLdYCxMcnBFEggzypcRiP/utMN6GifiMdK2mYHRpF3SgtAK/8InL+VM2Z5GBcAbFxBgatUejgO5UjZG4M4nFqA4E/HyxYQ/7jdSkfHZAjQpX273cYxlb9EH88NNXHfXe0y2N/IhULpdMhP9J/CCadoZAYxhYxmnmcU7iudNzdvAwbQNhLg4BK23gAfWTApIWDq3thvWaVru2OD0/w3WcQcmwzT9bZtNdxwNQGM1IEE2tnTA1vNO/lDpqjiHxgpbZjXRp8eEX1JvJdk1iECPe/YjluebWYeX80Z/Qz/HediTwk9pbzWtHjrrP0jNhm6KbJFw0YeAHk4X8+owBUqvWxwuDPqkZJelCgfKicEOwIFt8/C30zjVpBCn9+E797rfTQfw42/mJ1D47NGloDx02qxXsQ+FqBrlAfWmexsCQgfklefynTXDe+mC4Q4SsBaY2NGL3GJRfeBlsjN/bXDT0vQcFpXwnPKAT6hxEhpOBje7kiooOMAouzs6JNtTzkskaHYxYrvvyN8Ma8SGI5TIxJNI/BUhjqAn9LJQp9LXXhKpx+IVnJXJA74r9yFVrE/kVZiQrmNf0x3o0GMY0NAV9sPfdg+pQJnr/RyTNrWLicnzpOsbo5Iy+9jhfBy6EbdDCv/YdNSr4VejqxFFaDpXpwvkI1/MRc+xzt0SoAGAR1YYm4/i/uw54pZxoBa3uMpA5hKMoOEtCZ/JE534eM9m/voWSci/Nbe53VqJasb9Wp9YqISjG4TGMoq4Fv+kbn6gLk1MzWqLdb8caXKdq44NWB+5KneO/5BQeFu70kO4nHubu76uL29HrhlqiBRgmU8dAiXiWfCTNFLPYfXipjY9CfSmvPKroTmc9HZxCQ2/sE5HMNy2BD3h2t+iMDBV1TgzJV+s6fN7GcZjqYM+B0u7TEUzWiMhV76u/H99na73e4f8PzgQ+t9Ml8gG38xK7VorAG7tSWo0bXXQw/7dpu5cOEqiK1EDx8ZcfdNXsWMpTEoWbG3u1yRsDCOE2n1cW2d132aEA/MPuyvyF5s0wxm+A1/RHzi7sVEUb56QZfkrlumtc3uWond287h8DWBQP8sQJZvRrWwKdOszzL51k1gfYqoQ6DUyD3PnFbRp0wE9RwJKnxk1YZCTjMeD7Fmt6w+gQwoaWFf7fxLYnNaJC5e0VF3pxBWNs6swIkrve3++U4T++pMiD13f55nsJeLBeyrzxPDN/JFY7mhMqEPb/whb+TwkKPXlqCiV1B/DPLXlVw1FcT7QCMX6atrmD1svD5hrzOI+F3e4VDTR5S9r24TFRLxM8Z6VvHJbQM7AaChOc1LcxQAo9LzlmlhpxKC6dWB5LCzr/NmnLaCv/KGmcfACFjNqyIksmGNGQ+dxdZk8fA0ow4DDgRwf3jixGXe6FDNHQ4BcgLZ6jL4SNobZx+oaS2NTnTj78Dzo2aMbBuSi2/st/KccuDElV7XS/d03gxi60dqrOvY/XHBxlGQAUeA2I1/O5eYD4IXe8lPfA5t/MW84JNxm1ZLgDCLd6YbkK15JtvyuTDi2H9agR2irZ7HEHROqezQxQqvqyXDMor9nFCLy4HaallnvEOcNqhirOnUrMq7y2YzqYSkNwDrQOLt7OmxbyV/QYEVqqA6uJlXQuzTyIj4zRBinX/Sb4ra86yUg0w1Sy/Rnde8YT3ct7n3/TXtbf4+UNPC7Df+DiyelWCMrBuq4H4C6yBaX12Bs1d6WR/d2nkY2pEaK7g/0WUkOtGIHWAncj534SmN/QlrBxofESKFNgJPeqVT/XqvJ5D+UEWa0elxz/UXk0NukQyNhtx5eZ3PFXMGSjMVXKRUT0wReQfGIhmiJ7hbp1fMKm3XMBz3KRb8p+iAOWzgLkNCUCC2j7S7R93DhDrY+Et3LJIK4eItVUn0vT7poy3FyRPT/pWdM6rbZAV+xNM5Q+qtnsNnlcLDIZWb9LXYJYGzzgFMqzN3l3LG0z/wcS+EcdOQ8Mi98aH5lApcodLLwsFxwCOVawoObpRjcXsvB82uTzkrO//b9IQdB1vPL7wfiaOsCUc2T+71bvYPPHVV0IoEENLsafOox8h6Pg3nuCtY87WpN4tOwSnudPPv+RjzRagEQes8MU/hD3clr7IXJPCyGYUKIfXkglOv7sCoDgjYwNnwT3MkBjRMObdRxZoXIGQAuoFSA4JmjPdGEu1ogJRD6V7nBc5j4FBnZYExK2/UYfsxQNkpyXP3xIM5+6cWMSNtGKPi3+DDH+wysdQoZlVg+rot/GOVmgZhnxuC0ojMTrScU4GrVPpzrt4vmpVcVLxFftGCkMpFFHi+0l9EEE5zpQAr/UoV2j6vAN8wfF4zRlCB7yrAc/ddBa8Rz0p/jXX+G7McHzHG55F/IydzUIGrKuCf9/OjtKvugM/Mm5X+M2rRlwpQASpABajAqynASv9qK0a+VIAKUAEqQAU+owAr/WfUoi8VoAJUgApQgVdTgJX+1VaMfKkAFaACVIAKfEYBVvrPqEVfKkAFqAAVoAKvpgAr/cMV819xHd+CEb/pWu31N87Hr6FLyMY/7dNX2wyoNX61Dk72h0cAUiYlHCqrh1P9Sw6qjugSjRVZnWmot6AGUhy5LSKbKWhEozl8r/tjPHc0gnY01BPyyj7JvRBu0ZiRZeh7qs6YtFABKvCPFGClfyi8XJhx58HdKHa/PfVSdSe8JKUNldtdoMbZN3jFQNLZ4psLZhFLoWBdZ5eYv6MVVEEdaBrJcHrEuQvxyH8ej1QTidn365bv89zl3vAX82JfwVbZz5dfx7ITm3Yq8IoKsNKvVw1uunphxq2qpTVqqZitky1Djgt+h3P0rZwLfOcbuG4o74vn0XD7942QKBqLjyCensHTjtuJB41obF2/MfB9nrvkQTsa6im9baXXnVX9E77Z/xzzTMkWFaACf1ABVvpZXLnY/I34eLOcF6ZcgnZ/4nUoIetCn1+5L/4rnGcqfeIH3dX1625ILQJ6w/hIiP7EQ4X4hTU/wn2//Xd7N/vtXWJ9xtW/wPSUh30nb07SS7UWfAKrevaPSOCRrczrqzx15kms/U+S38Nz2rih1+OG7Qz003l9VTIEYpsKUIF/oQArfVVdL/J6pZV7T668Mayuo0y6rdcZAfdKtMOxz90dKP/P/ho/6DpsGKShMbf5r+wUp9Ex/DEZmJeARClLu7RkmhZmxd6CkUn649OCTy5gV3y2n0ms+QQEphejEMxEUOnREXgG0JMNhMnVtcSRd4Ff4z7PU+LbT6RbUreVGiF1Ty/93diJmt3X3b34SgWowOsowEqfa7W5y8qFmSVdK4ren+IQF+l8Tbplh9NKU/AJ2GjEkDQcthhHrYdK14ahK7BZKqAigo+mqfXc2firEInZW37oFqxHnZxStnpMzSaj3Xc3rxoZ9HuCx31M0JNHdM32T3gGF9MIVwmGpubMPFxk5s/CRBAbVIAK/HMFWOljCfQaw4+Mxwhe7OE83juOmgaXo3iXSheGHc7DSg/lFvLvaszODqHWrHxgCkoI3j3adBzX54Ov4CzNDGgD+WAxsVGD5/DX4SWp4KfI+3SlbyDJc03lyCpQNhVUzZ+ygukP8xRR2s8jPWESTVIYqc2cW7Vrb2j4ibQLEJqoABX46wqw0lfJ9S6rV/Tu7hO7e4JPv1KjDz5zzsXlucH32MB1w3jd2Zvb/tNjAfB5wUOG4zqt/jrhf8VgSTyVIWz4BHz13s7L+UbcNxqCJStWCv0v5JlTFMbwCU4OtJbPrJmlK/N7BmIRShMVoAL/VgFW+ll/vdKy1u0uP7GHF3SkGTciXP87nCfe068+FBfkxfPB9GH2PL9hqXyyaAFlu91tkp7PZ+qv9gnAisk288GAJn/zt8zquOETIE7MDUJsKKNNXySwu+vXX/33E2Hev5KnzVCnHnv1YNa5C6qTzM11rCPsUQEq8AIKsNKvFwmuPLkm4UIPf7Hn7VkuU+3YJ60ZucPpH5Y76AG+cOgFznnt7D4er5VPm/D4mPjtfvf/C++4TstfBU/a+ZOiRK7nG1pTqt6ADnxaUknviTNA/7WAm6/G06S0dclteLQUsAnQzZcebWxTASrwQgqw0r/QYpEqFfiDCsgD0nNPBH+QBKGpABX4Awqw0v8BUQlJBV5PAb5zf701I2Mq8KQCrPRPCkU3KkAFqAAVoAIvqQAr/UsuG0lTASpABagAFXhSAVb6J4WiGxWgAlSAClCBl1SAlf4ll42kqQAVoAJUgAo8qcD/AU72XIy6/UmJAAAAAElFTkSuQmCC;" vertex="1" parent="1">
          <mxGeometry x="-160" y="60" width="675" height="975" as="geometry" />
        </mxCell>
        <mxCell id="QoFwCXkcrfL1e2SWgKoZ-4" value="" style="shape=flexArrow;endArrow=classic;html=1;rounded=0;" edge="1" parent="1">
          <mxGeometry width="50" height="50" relative="1" as="geometry">
            <mxPoint x="550" y="430" as="sourcePoint" />
            <mxPoint x="630" y="430" as="targetPoint" />
          </mxGeometry>
        </mxCell>
      </root>
    </mxGraphModel>
  </diagram>
</mxfile>
